<svg width="55" height="23" viewBox="0 0 55 23" fill="none" xmlns="http://www.w3.org/2000/svg">
<path d="M10.0544 2.91113C9.40984 3.67383 8.37859 4.27539 7.34734 4.18945C7.21843 3.1582 7.72331 2.0625 8.31413 1.38574C8.95867 0.601562 10.0866 0.0429688 10.9997 0C11.1071 1.07422 10.6882 2.12695 10.0544 2.91113ZM10.9889 4.39355C9.49578 4.30762 8.21745 5.24219 7.50847 5.24219C6.78874 5.24219 5.70378 4.43652 4.52214 4.45801C2.98601 4.47949 1.5573 5.34961 0.773118 6.73535C-0.83821 9.50684 0.354173 13.6104 1.91179 15.8662C2.67449 16.9834 3.58757 18.208 4.7907 18.165C5.92937 18.1221 6.38054 17.4238 7.75554 17.4238C9.14128 17.4238 9.53874 18.165 10.7419 18.1436C11.988 18.1221 12.7721 17.0264 13.5348 15.9092C14.405 14.6416 14.7594 13.4062 14.7809 13.3418C14.7594 13.3203 12.3747 12.4072 12.3532 9.65723C12.3317 7.3584 14.2331 6.2627 14.319 6.19824C13.2448 4.6084 11.569 4.43652 10.9889 4.39355ZM19.6149 1.27832V18.0254H22.2145V12.2998H25.8132C29.1003 12.2998 31.4098 10.0439 31.4098 6.77832C31.4098 3.5127 29.1432 1.27832 25.8991 1.27832H19.6149ZM22.2145 3.46973H25.2116C27.4675 3.46973 28.7565 4.67285 28.7565 6.78906C28.7565 8.90527 27.4675 10.1191 25.2009 10.1191H22.2145V3.46973ZM36.1579 18.1543C37.7907 18.1543 39.3053 17.3271 39.9928 16.0166H40.0466V18.0254H42.4528V9.68945C42.4528 7.27246 40.5192 5.71484 37.5436 5.71484C34.7829 5.71484 32.7419 7.29394 32.6667 9.46387H35.0085C35.2018 8.43262 36.1579 7.75586 37.4684 7.75586C39.0583 7.75586 39.9499 8.49707 39.9499 9.86133V10.7852L36.7057 10.9785C33.6872 11.1611 32.0544 12.3965 32.0544 14.5449C32.0544 16.7148 33.7409 18.1543 36.1579 18.1543ZM36.8561 16.167C35.4704 16.167 34.5895 15.501 34.5895 14.4805C34.5895 13.4277 35.4382 12.8154 37.0602 12.7188L39.9499 12.5361V13.4814C39.9499 15.0498 38.6178 16.167 36.8561 16.167ZM45.6647 22.5801C48.1999 22.5801 49.3923 21.6133 50.4343 18.6807L54.9997 5.87598H52.3571L49.2956 15.7695H49.2419L46.1803 5.87598H43.4626L47.8669 18.0684L47.6305 18.8096C47.2331 20.0664 46.5886 20.5498 45.4391 20.5498C45.235 20.5498 44.8376 20.5283 44.6764 20.5068V22.5156C44.8268 22.5586 45.4714 22.5801 45.6647 22.5801Z" fill="white"/>
</svg>
