<svg width="20" height="24" viewBox="0 0 20 24" fill="none" xmlns="http://www.w3.org/2000/svg">
<path d="M18.8897 7.95602C18.7789 8.02434 16.3412 9.44359 16.3689 12.3962C16.3995 15.9278 19.4648 17.1038 19.5 17.1172C19.4725 17.2012 19.0099 18.7922 17.8842 20.4353C16.9114 21.8587 15.9036 23.2741 14.3131 23.3036C12.7504 23.3322 12.2468 22.3765 10.4616 22.3765C8.67539 22.3765 8.11629 23.2741 6.63857 23.3322C5.10333 23.3903 3.93451 21.7951 2.95449 20.3795C0.951055 17.4824 -0.580724 12.1922 1.4761 8.62206C2.49722 6.84901 4.32236 5.72571 6.30267 5.69669C7.81084 5.66819 9.23315 6.71057 10.1557 6.71057C11.065 6.71057 12.6947 5.49545 14.6158 5.63756C15.3687 5.69336 17.506 5.91807 18.8897 7.95602ZM13.4304 3.72511C14.2463 2.73908 14.7952 1.36585 14.6441 0C13.4698 0.0465672 12.0496 0.782174 11.2074 1.76758C10.4532 2.6405 9.79078 4.03858 9.97062 5.37655C11.2794 5.47768 12.6152 4.71175 13.4304 3.72511Z" fill="white"/>
</svg>
