<svg width="111" height="19" viewBox="0 0 111 19" fill="none" xmlns="http://www.w3.org/2000/svg">
<path d="M2.84 15.064C2.536 14.968 2.304 14.776 2.144 14.488C2 14.2 1.928 13.848 1.928 13.432C1.928 12.68 2.128 11.76 2.528 10.672C2.944 9.584 3.472 8.464 4.112 7.312C4.592 6.448 5.104 5.624 5.648 4.84C6.208 4.04 6.752 3.328 7.28 2.704C7.824 2.08 8.312 1.592 8.744 1.24C9.192 0.872 9.56 0.688 9.848 0.688C10.12 0.688 10.336 0.792 10.496 1C10.656 1.208 10.808 1.44 10.952 1.696C11.096 1.952 11.272 2.144 11.48 2.272C11.496 2.304 11.504 2.344 11.504 2.392C11.504 2.44 11.504 2.48 11.504 2.512C11.504 2.928 11.36 3.384 11.072 3.88C10.8 4.376 10.44 4.88 9.992 5.392C9.56 5.904 9.096 6.4 8.6 6.88C8.104 7.344 7.632 7.776 7.184 8.176C6.736 8.56 6.376 8.872 6.104 9.112C5.432 9.704 4.816 10.296 4.256 10.888C3.696 11.48 3.288 11.952 3.032 12.304C2.952 12.384 2.904 12.424 2.888 12.424C2.856 12.424 2.84 12.392 2.84 12.328C2.84 12.232 2.864 12.152 2.912 12.088C3.152 11.752 3.52 11.32 4.016 10.792C4.528 10.264 5.04 9.728 5.552 9.184C5.728 9.008 6.016 8.72 6.416 8.32C6.832 7.92 7.296 7.456 7.808 6.928C8.32 6.384 8.816 5.832 9.296 5.272C9.776 4.712 10.168 4.192 10.472 3.712C10.792 3.216 10.952 2.824 10.952 2.536C10.952 2.36 10.904 2.24 10.808 2.176C10.728 2.112 10.624 2.08 10.496 2.08C10.24 2.08 9.928 2.208 9.56 2.464C9.208 2.72 8.832 3.048 8.432 3.448C8.048 3.832 7.672 4.24 7.304 4.672C6.936 5.088 6.616 5.464 6.344 5.8C6.088 6.136 5.904 6.368 5.792 6.496C5.2 7.184 4.64 7.984 4.112 8.896C3.6 9.792 3.16 10.656 2.792 11.488C2.696 11.712 2.584 12.032 2.456 12.448C2.344 12.864 2.288 13.272 2.288 13.672C2.288 13.944 2.328 14.2 2.408 14.44C2.504 14.664 2.68 14.824 2.936 14.92C3.048 14.968 3.104 15 3.104 15.016C3.104 15.032 3.072 15.048 3.008 15.064C2.944 15.08 2.888 15.08 2.84 15.064ZM13.064 18.712C13.048 18.728 13.008 18.728 12.944 18.712C12.896 18.712 12.904 18.68 12.968 18.616C13.144 18.472 13.304 18.288 13.448 18.064C13.592 17.84 13.664 17.592 13.664 17.32C13.664 16.968 13.512 16.688 13.208 16.48C12.904 16.288 12.496 16.152 11.984 16.072C11.488 15.992 10.952 15.952 10.376 15.952C9.784 15.952 9.192 15.976 8.6 16.024C8.024 16.088 7.512 16.152 7.064 16.216C6.616 16.28 6.296 16.336 6.104 16.384C5.56 16.48 5.008 16.576 4.448 16.672C3.888 16.768 3.328 16.816 2.768 16.816C2.272 16.816 1.816 16.76 1.4 16.648C1 16.536 0.688 16.328 0.464 16.024C0.272 15.752 0.176 15.448 0.176 15.112C0.176 14.92 0.216 14.736 0.296 14.56C0.376 14.384 0.504 14.24 0.68 14.128H0.728C0.76 14.128 0.784 14.152 0.8 14.2C0.832 14.232 0.816 14.272 0.752 14.32C0.56 14.464 0.464 14.648 0.464 14.872C0.464 15.048 0.528 15.216 0.656 15.376C0.912 15.648 1.248 15.84 1.664 15.952C2.096 16.064 2.576 16.12 3.104 16.12C3.776 16.12 4.496 16.064 5.264 15.952C6.048 15.824 6.824 15.688 7.592 15.544C8.36 15.384 9.072 15.248 9.728 15.136C10.4 15.008 10.96 14.944 11.408 14.944C12.112 14.944 12.696 15.056 13.16 15.28C13.64 15.504 13.88 15.952 13.88 16.624C13.88 16.688 13.872 16.76 13.856 16.84C13.856 16.936 13.848 17.032 13.832 17.128C13.976 17.288 14.048 17.464 14.048 17.656C14.048 17.768 14.016 17.888 13.952 18.016C13.888 18.144 13.784 18.248 13.64 18.328C13.592 18.344 13.496 18.4 13.352 18.496C13.208 18.608 13.112 18.68 13.064 18.712ZM18.8324 9.064C18.5924 8.968 18.3844 8.816 18.2084 8.608C18.0484 8.384 17.9924 8.144 18.0404 7.888C18.0724 7.744 18.1124 7.656 18.1604 7.624C18.2244 7.576 18.3924 7.544 18.6644 7.528L19.9364 7.312C20.0804 7.28 20.1524 7.28 20.1524 7.312C20.1524 7.376 20.0964 7.424 19.9844 7.456C19.7284 7.52 19.5044 7.616 19.3124 7.744C19.1204 7.872 18.9604 8.048 18.8324 8.272C18.8004 8.32 18.7844 8.392 18.7844 8.488C18.7844 8.584 18.8004 8.68 18.8324 8.776C18.8804 8.856 18.9284 8.928 18.9764 8.992C19.0244 9.056 19.0244 9.088 18.9764 9.088C18.9444 9.088 18.8964 9.08 18.8324 9.064ZM16.0244 16.336C15.4804 16.336 15.0964 16.168 14.8724 15.832C14.6644 15.48 14.5604 15.064 14.5604 14.584C14.5604 14.216 14.6084 13.84 14.7044 13.456C14.8164 13.072 14.9524 12.728 15.1124 12.424C14.9684 12.36 14.9204 12.304 14.9684 12.256C15.0804 12.096 15.2164 11.896 15.3764 11.656C15.5524 11.416 15.7284 11.176 15.9044 10.936C16.1124 10.664 16.2964 10.44 16.4564 10.264C16.6324 10.088 16.8164 10 17.0084 10C17.1364 10 17.2484 10.04 17.3444 10.12C17.4564 10.2 17.5684 10.28 17.6804 10.36C17.3124 10.744 16.9444 11.216 16.5764 11.776C16.2084 12.336 15.9044 12.928 15.6644 13.552C15.4404 14.16 15.3284 14.76 15.3284 15.352C15.3284 15.608 15.3844 15.792 15.4964 15.904C15.6244 16 15.7764 16.048 15.9524 16.048C16.3204 16.048 16.6484 15.92 16.9364 15.664C17.2404 15.392 17.5924 15 17.9924 14.488C18.4084 13.96 18.8004 13.408 19.1684 12.832C19.2644 12.704 19.3364 12.632 19.3844 12.616C19.4484 12.6 19.4564 12.632 19.4084 12.712C19.2804 12.968 19.0804 13.296 18.8084 13.696C18.5524 14.08 18.2804 14.464 17.9924 14.848C17.7044 15.232 17.4564 15.528 17.2484 15.736C17.0404 15.944 16.8244 16.096 16.6004 16.192C16.3924 16.288 16.2004 16.336 16.0244 16.336ZM25.2369 17.872C24.8049 17.872 24.5169 17.736 24.3729 17.464C24.2289 17.208 24.1569 16.952 24.1569 16.696C24.1569 16.28 24.2369 15.848 24.3969 15.4C24.5729 14.936 24.7649 14.48 24.9729 14.032C25.3409 13.28 25.6289 12.712 25.8369 12.328C26.0449 11.944 26.1889 11.656 26.2689 11.464C26.3649 11.272 26.4129 11.096 26.4129 10.936C26.4129 10.776 26.3729 10.672 26.2929 10.624C26.2129 10.576 26.1329 10.552 26.0529 10.552C25.9409 10.552 25.8129 10.6 25.6689 10.696C25.5249 10.776 25.3889 10.88 25.2609 11.008C24.9889 11.296 24.6929 11.664 24.3729 12.112C24.0529 12.544 23.7409 13 23.4369 13.48C23.1489 13.944 22.8929 14.368 22.6689 14.752C22.4609 15.136 22.3169 15.408 22.2369 15.568C22.0929 15.856 21.9249 16 21.7329 16C21.5089 16 21.2769 15.84 21.0369 15.52C21.1489 15.264 21.2769 14.976 21.4209 14.656C21.5649 14.32 21.7089 13.976 21.8529 13.624C22.0289 13.208 22.1889 12.752 22.3329 12.256C22.4929 11.76 22.5729 11.344 22.5729 11.008C22.5729 10.672 22.4849 10.504 22.3089 10.504C22.1649 10.504 21.9729 10.624 21.7329 10.864C21.5089 11.072 21.2289 11.392 20.8929 11.824C20.5729 12.24 20.2449 12.704 19.9089 13.216C19.5729 13.728 19.2769 14.224 19.0209 14.704C18.7809 15.168 18.6289 15.552 18.5649 15.856C18.5329 15.936 18.4609 15.976 18.3489 15.976C18.2049 15.976 18.0529 15.912 17.8929 15.784C17.7329 15.656 17.6609 15.448 17.6769 15.16C17.6769 15.112 17.7409 14.936 17.8689 14.632C17.9969 14.312 18.1489 13.944 18.3249 13.528C18.5169 13.112 18.7009 12.704 18.8769 12.304C19.0529 11.904 19.1969 11.584 19.3089 11.344C19.1969 11.248 19.1329 11.176 19.1169 11.128C19.1169 11.08 19.1249 11.032 19.1409 10.984C19.1889 10.92 19.2609 10.8 19.3569 10.624C19.4529 10.432 19.5489 10.248 19.6449 10.072C19.7409 9.88 19.7969 9.752 19.8129 9.688C19.8769 9.656 20.0049 9.608 20.1969 9.544C20.4049 9.464 20.6049 9.424 20.7969 9.424H20.8929C21.0849 9.424 21.1809 9.48 21.1809 9.592C21.1809 9.704 21.1249 9.848 21.0129 10.024C20.9649 10.104 20.8609 10.296 20.7009 10.6C20.5409 10.888 20.3569 11.224 20.1489 11.608C19.9409 11.992 19.7489 12.36 19.5729 12.712C19.4129 13.048 19.2929 13.312 19.2129 13.504C19.1329 13.68 19.1089 13.864 19.1409 14.056C19.4609 13.528 19.8449 12.944 20.2929 12.304C20.7409 11.648 21.2129 11.064 21.7089 10.552C21.9009 10.328 22.1089 10.216 22.3329 10.216C22.7809 10.216 23.1009 10.32 23.2929 10.528C23.5009 10.736 23.6049 10.968 23.6049 11.224C23.6049 11.528 23.5169 11.88 23.3409 12.28C23.2769 12.44 23.1649 12.728 23.0049 13.144C22.8449 13.544 22.6849 13.936 22.5249 14.32C22.7649 13.984 23.0609 13.56 23.4129 13.048C23.7809 12.536 24.1569 12.032 24.5409 11.536C24.9409 11.024 25.3009 10.6 25.6209 10.264C25.9409 9.928 26.1729 9.76 26.3169 9.76C26.6689 9.76 26.9809 9.888 27.2529 10.144C27.5409 10.384 27.6849 10.592 27.6849 10.768C27.6849 11.024 27.5649 11.36 27.3249 11.776C27.0849 12.192 26.6849 12.848 26.1249 13.744C25.8049 14.256 25.4849 14.832 25.1649 15.472C24.8609 16.096 24.7089 16.64 24.7089 17.104C24.7089 17.52 24.8289 17.728 25.0689 17.728C25.2129 17.728 25.3649 17.656 25.5249 17.512C25.6369 17.416 25.7489 17.312 25.8609 17.2C25.9729 17.088 26.0849 16.992 26.1969 16.912C26.0689 17.2 25.9329 17.432 25.7889 17.608C25.6449 17.784 25.4609 17.872 25.2369 17.872ZM32.5321 9.064C32.2921 8.968 32.0841 8.816 31.9081 8.608C31.7481 8.384 31.6921 8.144 31.7401 7.888C31.7721 7.744 31.8121 7.656 31.8601 7.624C31.9241 7.576 32.0921 7.544 32.3641 7.528L33.6361 7.312C33.7801 7.28 33.8521 7.28 33.8521 7.312C33.8521 7.376 33.7961 7.424 33.6841 7.456C33.4281 7.52 33.2041 7.616 33.0121 7.744C32.8201 7.872 32.6601 8.048 32.5321 8.272C32.5001 8.32 32.4841 8.392 32.4841 8.488C32.4841 8.584 32.5001 8.68 32.5321 8.776C32.5801 8.856 32.6281 8.928 32.6761 8.992C32.7241 9.056 32.7241 9.088 32.6761 9.088C32.6441 9.088 32.5961 9.08 32.5321 9.064ZM29.7241 16.336C29.1801 16.336 28.7961 16.168 28.5721 15.832C28.3641 15.48 28.2601 15.064 28.2601 14.584C28.2601 14.216 28.3081 13.84 28.4041 13.456C28.5161 13.072 28.6521 12.728 28.8121 12.424C28.6681 12.36 28.6201 12.304 28.6681 12.256C28.7801 12.096 28.9161 11.896 29.0761 11.656C29.2521 11.416 29.4281 11.176 29.6041 10.936C29.8121 10.664 29.9961 10.44 30.1561 10.264C30.3321 10.088 30.5161 10 30.7081 10C30.8361 10 30.9481 10.04 31.0441 10.12C31.1561 10.2 31.2681 10.28 31.3801 10.36C31.0121 10.744 30.6441 11.216 30.2761 11.776C29.9081 12.336 29.6041 12.928 29.3641 13.552C29.1401 14.16 29.0281 14.76 29.0281 15.352C29.0281 15.608 29.0841 15.792 29.1961 15.904C29.3241 16 29.4761 16.048 29.6521 16.048C30.0201 16.048 30.3481 15.92 30.6361 15.664C30.9401 15.392 31.2921 15 31.6921 14.488C32.1081 13.96 32.5001 13.408 32.8681 12.832C32.9641 12.704 33.0361 12.632 33.0841 12.616C33.1481 12.6 33.1561 12.632 33.1081 12.712C32.9801 12.968 32.7801 13.296 32.5081 13.696C32.2521 14.08 31.9801 14.464 31.6921 14.848C31.4041 15.232 31.1561 15.528 30.9481 15.736C30.7401 15.944 30.5241 16.096 30.3001 16.192C30.0921 16.288 29.9001 16.336 29.7241 16.336ZM33.2726 16.36C32.9366 16.36 32.6406 16.224 32.3846 15.952C32.1446 15.68 32.0246 15.288 32.0246 14.776C32.0246 14.392 32.1126 13.928 32.2886 13.384C32.4806 12.824 32.7126 12.24 32.9846 11.632C33.2726 11.008 33.5686 10.424 33.8726 9.88C34.1926 9.32 34.4726 8.848 34.7126 8.464C34.4406 8.464 34.2006 8.464 33.9926 8.464C33.7846 8.448 33.6166 8.448 33.4886 8.464C33.3766 8.464 33.3046 8.448 33.2726 8.416C33.2566 8.368 33.2566 8.336 33.2726 8.32C33.2726 8.272 33.2966 8.208 33.3446 8.128C33.4086 8.048 33.4646 8.008 33.5126 8.008H34.9766C35.0566 7.912 35.1606 7.744 35.2886 7.504C35.4326 7.264 35.5766 7.008 35.7206 6.736C35.8646 6.464 35.9846 6.224 36.0806 6.016C36.1926 5.792 36.2486 5.656 36.2486 5.608C36.2486 5.464 36.2006 5.36 36.1046 5.296C36.0406 5.264 36.0086 5.248 36.0086 5.248C35.9926 5.248 35.9846 5.248 35.9846 5.248C35.9846 5.232 35.9766 5.224 35.9606 5.224C35.9446 5.208 35.9366 5.184 35.9366 5.152C35.9366 5.104 35.9606 5.072 36.0086 5.056C36.0566 5.024 36.0966 5.008 36.1286 5.008C36.2246 5.008 36.3126 5.032 36.3926 5.08C36.4886 5.112 36.6406 5.184 36.8486 5.296C36.9446 5.344 37.0406 5.392 37.1366 5.44C37.2486 5.472 37.3366 5.512 37.4006 5.56L37.5926 5.68C37.4966 5.84 37.3446 6.064 37.1366 6.352C36.9446 6.64 36.7526 6.936 36.5606 7.24C36.3686 7.544 36.2086 7.8 36.0806 8.008H40.3766C40.5686 8.008 40.6646 8.032 40.6646 8.08C40.6646 8.128 40.5926 8.184 40.4486 8.248C40.3206 8.296 40.2246 8.32 40.1606 8.32C39.9526 8.336 39.6566 8.344 39.2726 8.344C38.9046 8.344 38.5046 8.352 38.0726 8.368C37.6566 8.368 37.2646 8.384 36.8966 8.416C36.5446 8.432 36.2966 8.464 36.1526 8.512C35.9126 8.592 35.6406 8.856 35.3366 9.304C35.0326 9.736 34.7366 10.248 34.4486 10.84C34.1766 11.432 33.9286 12.008 33.7046 12.568C33.6566 12.696 33.5686 12.912 33.4406 13.216C33.3286 13.52 33.2166 13.848 33.1046 14.2C33.0086 14.552 32.9606 14.88 32.9606 15.184C32.9606 15.472 33.0166 15.68 33.1286 15.808C33.2406 15.936 33.3766 16 33.5366 16C33.7286 16 33.9446 15.888 34.1846 15.664C34.4406 15.44 34.7206 15.152 35.0246 14.8C35.3446 14.4 35.6406 14 35.9126 13.6C36.2006 13.184 36.3846 12.904 36.4646 12.76C36.5926 12.552 36.6726 12.448 36.7046 12.448C36.7206 12.448 36.7286 12.456 36.7286 12.472C36.7286 12.52 36.7046 12.608 36.6566 12.736C36.6086 12.848 36.5606 12.944 36.5126 13.024C36.2246 13.44 35.9126 13.904 35.5766 14.416C35.2406 14.928 34.8966 15.368 34.5446 15.736C34.1286 16.152 33.7046 16.36 33.2726 16.36ZM37.469 16.312C37.037 16.312 36.637 16.16 36.269 15.856C35.917 15.536 35.741 15.072 35.741 14.464C35.741 13.984 35.869 13.464 36.125 12.904C36.381 12.344 36.709 11.808 37.109 11.296C37.525 10.784 37.965 10.36 38.429 10.024C38.893 9.688 39.325 9.512 39.725 9.496C39.789 9.56 39.861 9.608 39.941 9.64C40.037 9.672 40.125 9.704 40.205 9.736L40.829 9.88C41.181 9.976 41.357 10.2 41.357 10.552C41.357 10.76 41.285 10.984 41.141 11.224C41.013 11.464 40.813 11.672 40.541 11.848C40.397 11.944 40.237 12.04 40.061 12.136C39.901 12.232 39.733 12.328 39.557 12.424L38.477 13C38.141 13.176 37.845 13.368 37.589 13.576C37.333 13.768 37.149 13.976 37.037 14.2C37.037 14.2 37.013 14.208 36.965 14.224C36.933 14.224 36.925 14.192 36.941 14.128C37.053 13.856 37.269 13.584 37.589 13.312C37.925 13.024 38.261 12.776 38.597 12.568C38.757 12.44 38.917 12.328 39.077 12.232C39.253 12.136 39.421 12.032 39.581 11.92C39.741 11.808 39.893 11.696 40.037 11.584C40.197 11.456 40.333 11.336 40.445 11.224C40.573 11.096 40.661 10.968 40.709 10.84C40.773 10.712 40.805 10.6 40.805 10.504C40.805 10.2 40.629 10.048 40.277 10.048C40.053 10.048 39.797 10.144 39.509 10.336C39.157 10.576 38.821 10.864 38.501 11.2C38.181 11.52 37.877 11.872 37.589 12.256C37.285 12.672 37.013 13.152 36.773 13.696C36.549 14.24 36.437 14.696 36.437 15.064C36.437 15.432 36.541 15.696 36.749 15.856C36.973 16 37.229 16.072 37.517 16.072C37.917 16.072 38.301 15.968 38.669 15.76C38.941 15.6 39.197 15.4 39.437 15.16C39.677 14.904 39.877 14.68 40.037 14.488C40.165 14.328 40.309 14.136 40.469 13.912C40.645 13.688 40.765 13.52 40.829 13.408C40.861 13.376 40.885 13.376 40.901 13.408C40.917 13.44 40.925 13.464 40.925 13.48C40.861 13.592 40.749 13.776 40.589 14.032C40.445 14.272 40.229 14.576 39.941 14.944C39.605 15.376 39.253 15.712 38.885 15.952C38.517 16.192 38.045 16.312 37.469 16.312ZM41.5966 16.264C41.3566 16.264 41.1326 16.184 40.9246 16.024C40.7166 15.864 40.5486 15.68 40.4206 15.472C40.2926 15.264 40.2286 15.088 40.2286 14.944C40.2286 14.4 40.3966 13.832 40.7326 13.24C41.0686 12.632 41.4926 12.064 42.0046 11.536C42.5326 11.008 43.0846 10.584 43.6606 10.264C44.2366 9.928 44.7726 9.76 45.2686 9.76C45.3486 9.76 45.4286 9.776 45.5086 9.808C45.5886 9.84 45.6926 9.912 45.8206 10.024C46.4606 8.696 47.1646 7.392 47.9326 6.112C48.7006 4.816 49.4446 3.744 50.1646 2.896C50.7886 2.144 51.4206 1.568 52.0606 1.168C52.7166 0.751999 53.3886 0.463999 54.0766 0.303999C54.5566 0.175999 55.0526 0.111999 55.5646 0.111999C55.6446 0.111999 55.7326 0.111999 55.8286 0.111999C55.9246 0.111999 56.0126 0.119999 56.0926 0.136C56.2526 0.151999 56.4366 0.199999 56.6446 0.279999C56.8526 0.359999 56.9726 0.447999 57.0046 0.543999C57.0366 0.607999 57.0366 0.647999 57.0046 0.663999C56.9726 0.679999 56.9326 0.664 56.8846 0.615999C56.7726 0.52 56.6286 0.455999 56.4526 0.423999C56.2926 0.375999 56.1166 0.352 55.9246 0.352C55.6206 0.352 55.3166 0.392 55.0126 0.472C54.7086 0.552 54.4686 0.631999 54.2926 0.711999C53.7646 0.984 53.2206 1.368 52.6606 1.864C52.1006 2.344 51.5486 2.896 51.0046 3.52C50.2206 4.416 49.4766 5.392 48.7726 6.448C48.0846 7.504 47.4686 8.56 46.9246 9.616C46.3966 10.672 45.9806 11.656 45.6766 12.568C45.3886 13.48 45.2446 14.248 45.2446 14.872C45.2446 14.968 45.2446 15.064 45.2446 15.16C45.2606 15.24 45.2766 15.32 45.2926 15.4C45.3406 15.608 45.4206 15.752 45.5326 15.832C45.6446 15.912 45.7726 15.952 45.9166 15.952C46.0766 15.952 46.2286 15.92 46.3726 15.856C46.5326 15.776 46.6686 15.688 46.7806 15.592C47.0846 15.32 47.4286 14.928 47.8126 14.416C48.2126 13.904 48.5886 13.392 48.9406 12.88C49.0046 12.8 49.0446 12.776 49.0606 12.808C49.0766 12.84 49.0686 12.872 49.0366 12.904C48.9726 13.016 48.8286 13.24 48.6046 13.576C48.3806 13.912 48.1246 14.272 47.8366 14.656C47.5646 15.04 47.3006 15.36 47.0446 15.616C46.6286 16.032 46.2046 16.24 45.7726 16.24C45.4526 16.24 45.1806 16.104 44.9566 15.832C44.7326 15.56 44.6206 15.176 44.6206 14.68C44.6206 14.52 44.6366 14.256 44.6686 13.888C44.7006 13.52 44.7486 13.208 44.8126 12.952C44.4446 13.56 44.0606 14.12 43.6606 14.632C43.2766 15.128 42.9006 15.528 42.5326 15.832C42.1806 16.12 41.8686 16.264 41.5966 16.264ZM41.4286 15.952C41.5726 15.952 41.7326 15.888 41.9086 15.76C42.1966 15.536 42.5166 15.232 42.8686 14.848C43.2366 14.464 43.5966 14.056 43.9486 13.624C44.3166 13.176 44.6366 12.752 44.9086 12.352C44.9886 12.096 45.1006 11.792 45.2446 11.44C45.3886 11.088 45.5166 10.768 45.6286 10.48C45.4206 10.448 45.1806 10.48 44.9086 10.576C44.6526 10.656 44.4686 10.728 44.3566 10.792C43.9246 11.048 43.4686 11.408 42.9886 11.872C42.5246 12.32 42.1086 12.808 41.7406 13.336C41.3726 13.848 41.1006 14.344 40.9246 14.824C40.8766 14.936 40.8526 15.064 40.8526 15.208C40.8526 15.4 40.9006 15.576 40.9966 15.736C41.1086 15.88 41.2526 15.952 41.4286 15.952ZM58.7553 17.56C58.7073 17.56 58.6833 17.488 58.6833 17.344C58.6833 17.216 58.6833 17.144 58.6833 17.128C58.6833 16.92 58.7233 16.736 58.8033 16.576C58.8993 16.432 58.9953 16.312 59.0913 16.216C59.3793 15.944 59.7713 15.72 60.2673 15.544C60.7633 15.352 61.4273 15.176 62.2593 15.016C61.7313 14.952 61.3553 14.752 61.1313 14.416C60.9073 14.08 60.7953 13.696 60.7953 13.264C60.7953 12.736 60.9313 12.112 61.2033 11.392C61.4913 10.656 61.8673 9.88 62.3313 9.064C62.7953 8.248 63.3153 7.44 63.8913 6.64C64.4833 5.824 65.0753 5.064 65.6673 4.36C66.2753 3.64 66.8513 3.032 67.3953 2.536C66.8993 2.552 66.1473 2.568 65.1393 2.584C64.1313 2.584 62.7793 2.736 61.0833 3.04C59.1953 3.36 57.8513 3.752 57.0513 4.216C56.2513 4.664 55.8513 5.248 55.8513 5.968C55.8513 6.048 55.8753 6.112 55.9233 6.16C55.9873 6.192 56.0353 6.248 56.0673 6.328C56.1153 6.376 56.1393 6.416 56.1393 6.448C56.1393 6.496 56.1153 6.52 56.0673 6.52C56.0193 6.52 55.9553 6.496 55.8753 6.448C55.6193 6.272 55.3793 6.048 55.1553 5.776C54.9473 5.488 54.8433 5.24 54.8433 5.032C54.8433 4.632 55.1393 4.248 55.7313 3.88C56.3393 3.496 57.1233 3.16 58.0833 2.872C59.0593 2.584 60.0993 2.376 61.2033 2.248C61.7793 2.168 62.5073 2.104 63.3873 2.056C64.2833 1.992 65.2513 1.96 66.2913 1.96C66.5633 1.96 66.8273 1.96 67.0833 1.96C67.3553 1.96 67.6273 1.968 67.8993 1.984C67.8193 1.904 67.7793 1.8 67.7793 1.672C67.7793 1.432 67.9233 1.192 68.2113 0.951999C68.3873 0.776 68.5793 0.631999 68.7873 0.519999C68.9953 0.391999 69.1953 0.247999 69.3873 0.0879989C69.5153 0.151999 69.6433 0.191999 69.7713 0.207999C69.8993 0.207999 70.0273 0.223999 70.1553 0.256C70.3793 0.351999 70.4913 0.479999 70.4913 0.639999C70.4913 0.751999 70.4273 0.895999 70.2993 1.072C70.1873 1.232 70.0353 1.4 69.8433 1.576C69.6673 1.736 69.4833 1.904 69.2913 2.08C70.1713 2.176 70.9793 2.296 71.7153 2.44C72.4673 2.584 73.0353 2.768 73.4193 2.992C73.6913 3.152 73.8673 3.304 73.9473 3.448C74.0433 3.592 74.0993 3.712 74.1153 3.808C74.1473 3.888 74.1553 3.992 74.1393 4.12C74.1393 4.232 74.1793 4.304 74.2593 4.336C74.4513 4.672 74.5473 5 74.5473 5.32C74.5473 5.8 74.3633 6.248 73.9953 6.664C73.6273 7.08 73.1553 7.464 72.5793 7.816C72.0033 8.152 71.3793 8.456 70.7073 8.728C70.0353 8.984 69.3953 9.208 68.7873 9.4C68.1793 9.576 67.6673 9.704 67.2513 9.784C66.9793 9.848 66.5873 9.912 66.0753 9.976C65.5633 10.04 65.0913 10.128 64.6593 10.24C64.5953 10.256 64.5153 10.28 64.4193 10.312C64.3233 10.328 64.2273 10.352 64.1313 10.384C64.0513 10.4 63.9793 10.424 63.9153 10.456C63.8513 10.472 63.8033 10.48 63.7713 10.48C63.6113 10.48 63.4753 10.48 63.3633 10.48C63.2673 10.464 63.2113 10.432 63.1953 10.384C63.1793 10.352 63.2273 10.328 63.3393 10.312C63.4513 10.296 63.6353 10.264 63.8913 10.216C64.5793 10.088 65.3873 9.896 66.3153 9.64C67.2593 9.384 68.2113 9.056 69.1713 8.656C70.1473 8.24 71.0353 7.76 71.8353 7.216C72.6513 6.672 73.2593 6.056 73.6593 5.368C73.7393 5.224 73.8113 5.064 73.8753 4.888C73.9393 4.712 73.9713 4.544 73.9713 4.384C73.9713 3.92 73.7153 3.568 73.2033 3.328C72.7073 3.072 72.0673 2.896 71.2833 2.8C70.4993 2.688 69.6833 2.624 68.8353 2.608C68.3553 3.024 67.7953 3.568 67.1553 4.24C66.5153 4.912 65.8593 5.656 65.1873 6.472C64.5313 7.288 63.9153 8.128 63.3393 8.992C62.7793 9.856 62.3233 10.688 61.9713 11.488C61.6193 12.288 61.4433 13 61.4433 13.624C61.4433 13.992 61.4833 14.264 61.5633 14.44C61.6433 14.6 61.7793 14.712 61.9713 14.776C62.1633 14.84 62.4113 14.904 62.7153 14.968C63.3073 14.872 63.7793 14.824 64.1313 14.824C64.4833 14.808 64.8433 14.8 65.2113 14.8C65.2433 14.8 65.2513 14.832 65.2353 14.896C65.2353 14.944 65.2193 14.968 65.1873 14.968C64.6433 14.968 63.9873 15.064 63.2193 15.256C62.4513 15.432 61.6753 15.704 60.8913 16.072C60.1073 16.456 59.4113 16.944 58.8033 17.536C58.7873 17.552 58.7713 17.56 58.7553 17.56ZM73.8596 16.312C73.4756 16.312 73.2116 16.184 73.0676 15.928C72.9236 15.656 72.8756 15.368 72.9236 15.064C72.9876 14.648 73.0996 14.312 73.2596 14.056C73.4356 13.8 73.6436 13.52 73.8836 13.216C74.0756 12.944 74.2596 12.664 74.4356 12.376C74.6116 12.088 74.6356 11.92 74.5076 11.872C74.4276 11.936 74.2916 12.008 74.0996 12.088C73.9076 12.168 73.7076 12.208 73.4996 12.208C73.3236 12.208 73.1476 12.168 72.9716 12.088C72.8116 12.008 72.6916 11.864 72.6116 11.656C72.4036 12.04 72.1476 12.464 71.8436 12.928C71.5556 13.376 71.2596 13.808 70.9556 14.224C70.6676 14.64 70.4116 14.984 70.1876 15.256C70.1236 15.32 70.0676 15.344 70.0196 15.328C69.9556 15.312 69.9476 15.272 69.9956 15.208C70.3636 14.744 70.7876 14.16 71.2676 13.456C71.7476 12.752 72.1876 11.992 72.5876 11.176C72.9876 10.344 73.2356 9.536 73.3316 8.752C73.8756 9.008 74.1476 9.336 74.1476 9.736C74.1476 10.04 74.0196 10.352 73.7636 10.672C73.5076 10.976 73.1716 11.256 72.7556 11.512C72.9636 11.816 73.2276 11.968 73.5476 11.968C73.7876 11.968 74.0276 11.896 74.2676 11.752C74.5236 11.592 74.7236 11.416 74.8676 11.224C74.9956 11.08 75.0996 10.984 75.1796 10.936C75.2756 10.888 75.3556 10.864 75.4196 10.864C75.6436 10.864 75.8036 10.936 75.8996 11.08C76.0116 11.208 76.0276 11.352 75.9476 11.512C75.6596 11.912 75.3316 12.408 74.9636 13C74.5956 13.576 74.2676 14.12 73.9796 14.632C73.9316 14.696 73.8676 14.84 73.7876 15.064C73.7076 15.288 73.6676 15.488 73.6676 15.664C73.6676 15.904 73.7636 16.024 73.9556 16.024C74.1796 16.024 74.4356 15.896 74.7236 15.64C75.0116 15.368 75.2996 15.048 75.5876 14.68C75.8756 14.296 76.1316 13.928 76.3556 13.576C76.5956 13.224 76.7716 12.968 76.8836 12.808C76.9636 12.664 77.0276 12.592 77.0756 12.592C77.0916 12.592 77.0996 12.608 77.0996 12.64C77.0996 12.704 77.0756 12.776 77.0276 12.856C76.7876 13.256 76.5316 13.656 76.2596 14.056C75.9876 14.456 75.7156 14.84 75.4436 15.208C75.1876 15.544 74.9236 15.808 74.6516 16C74.3956 16.208 74.1316 16.312 73.8596 16.312ZM77.8873 16.36C77.4233 16.36 77.0233 16.184 76.6873 15.832C76.3673 15.48 76.2073 15 76.2073 14.392C76.2073 14.168 76.2313 13.928 76.2793 13.672C76.3433 13.4 76.4313 13.12 76.5433 12.832C76.7833 12.272 77.1113 11.736 77.5273 11.224C77.9593 10.712 78.4233 10.288 78.9193 9.952C79.4153 9.616 79.8873 9.448 80.3353 9.448C80.3833 9.448 80.4393 9.472 80.5033 9.52C80.5673 9.552 80.6153 9.584 80.6473 9.616L80.7673 9.736C80.9593 9.928 81.1433 10.04 81.3193 10.072C81.5113 10.104 81.6633 10.2 81.7753 10.36C81.9673 10.664 82.0633 11.032 82.0633 11.464C82.0633 12.056 81.8793 12.704 81.5113 13.408C81.1593 14.096 80.6793 14.72 80.0713 15.28C79.7673 15.552 79.4313 15.8 79.0633 16.024C78.6953 16.248 78.3033 16.36 77.8873 16.36ZM78.0553 16.096C78.4393 16.096 78.8313 15.968 79.2313 15.712C79.6313 15.44 79.9993 15.088 80.3353 14.656C80.6873 14.224 80.9833 13.768 81.2233 13.288C81.4793 12.808 81.6393 12.352 81.7033 11.92C81.7193 11.84 81.7273 11.76 81.7273 11.68C81.7433 11.584 81.7513 11.504 81.7513 11.44C81.7513 11.008 81.6473 10.696 81.4393 10.504C81.2313 10.296 80.9833 10.192 80.6953 10.192C80.3913 10.192 80.0793 10.288 79.7593 10.48C79.4553 10.656 79.0713 11.024 78.6073 11.584C78.1433 12.128 77.7273 12.696 77.3593 13.288C77.0233 13.816 76.8553 14.328 76.8553 14.824C76.8553 15.176 76.9513 15.48 77.1433 15.736C77.3513 15.976 77.6553 16.096 78.0553 16.096ZM83.3285 16.264C83.0885 16.264 82.8645 16.184 82.6565 16.024C82.4485 15.864 82.2805 15.68 82.1525 15.472C82.0245 15.264 81.9605 15.088 81.9605 14.944C81.9605 14.4 82.1285 13.832 82.4645 13.24C82.8005 12.632 83.2245 12.064 83.7365 11.536C84.2645 11.008 84.8165 10.584 85.3925 10.264C85.9685 9.928 86.5045 9.76 87.0005 9.76C87.0805 9.76 87.1605 9.776 87.2405 9.808C87.3205 9.84 87.4245 9.912 87.5525 10.024C88.1925 8.696 88.8965 7.392 89.6645 6.112C90.4325 4.816 91.1765 3.744 91.8965 2.896C92.5205 2.144 93.1525 1.568 93.7925 1.168C94.4485 0.751999 95.1205 0.463999 95.8085 0.303999C96.2885 0.175999 96.7845 0.111999 97.2965 0.111999C97.3765 0.111999 97.4645 0.111999 97.5605 0.111999C97.6565 0.111999 97.7445 0.119999 97.8245 0.136C97.9845 0.151999 98.1685 0.199999 98.3765 0.279999C98.5845 0.359999 98.7045 0.447999 98.7365 0.543999C98.7685 0.607999 98.7685 0.647999 98.7365 0.663999C98.7045 0.679999 98.6645 0.664 98.6165 0.615999C98.5045 0.52 98.3605 0.455999 98.1845 0.423999C98.0245 0.375999 97.8485 0.352 97.6565 0.352C97.3525 0.352 97.0485 0.392 96.7445 0.472C96.4405 0.552 96.2005 0.631999 96.0245 0.711999C95.4965 0.984 94.9525 1.368 94.3925 1.864C93.8325 2.344 93.2805 2.896 92.7365 3.52C91.9525 4.416 91.2085 5.392 90.5045 6.448C89.8165 7.504 89.2005 8.56 88.6565 9.616C88.1285 10.672 87.7125 11.656 87.4085 12.568C87.1205 13.48 86.9765 14.248 86.9765 14.872C86.9765 14.968 86.9765 15.064 86.9765 15.16C86.9925 15.24 87.0085 15.32 87.0245 15.4C87.0725 15.608 87.1525 15.752 87.2645 15.832C87.3765 15.912 87.5045 15.952 87.6485 15.952C87.8085 15.952 87.9605 15.92 88.1045 15.856C88.2645 15.776 88.4005 15.688 88.5125 15.592C88.8165 15.32 89.1605 14.928 89.5445 14.416C89.9445 13.904 90.3205 13.392 90.6725 12.88C90.7365 12.8 90.7765 12.776 90.7925 12.808C90.8085 12.84 90.8005 12.872 90.7685 12.904C90.7045 13.016 90.5605 13.24 90.3365 13.576C90.1125 13.912 89.8565 14.272 89.5685 14.656C89.2965 15.04 89.0325 15.36 88.7765 15.616C88.3605 16.032 87.9365 16.24 87.5045 16.24C87.1845 16.24 86.9125 16.104 86.6885 15.832C86.4645 15.56 86.3525 15.176 86.3525 14.68C86.3525 14.52 86.3685 14.256 86.4005 13.888C86.4325 13.52 86.4805 13.208 86.5445 12.952C86.1765 13.56 85.7925 14.12 85.3925 14.632C85.0085 15.128 84.6325 15.528 84.2645 15.832C83.9125 16.12 83.6005 16.264 83.3285 16.264ZM83.1605 15.952C83.3045 15.952 83.4645 15.888 83.6405 15.76C83.9285 15.536 84.2485 15.232 84.6005 14.848C84.9685 14.464 85.3285 14.056 85.6805 13.624C86.0485 13.176 86.3685 12.752 86.6405 12.352C86.7205 12.096 86.8325 11.792 86.9765 11.44C87.1205 11.088 87.2485 10.768 87.3605 10.48C87.1525 10.448 86.9125 10.48 86.6405 10.576C86.3845 10.656 86.2005 10.728 86.0885 10.792C85.6565 11.048 85.2005 11.408 84.7205 11.872C84.2565 12.32 83.8405 12.808 83.4725 13.336C83.1045 13.848 82.8325 14.344 82.6565 14.824C82.6085 14.936 82.5845 15.064 82.5845 15.208C82.5845 15.4 82.6325 15.576 82.7285 15.736C82.8405 15.88 82.9845 15.952 83.1605 15.952ZM90.9127 16.072C90.5607 16.072 90.2887 15.992 90.0967 15.832C89.9207 15.672 89.8487 15.464 89.8807 15.208C89.9127 15.032 89.9607 14.832 90.0247 14.608C90.0887 14.384 90.1687 14.16 90.2647 13.936L90.8407 12.592C90.8247 12.56 90.8087 12.536 90.7927 12.52C90.7927 12.488 90.7927 12.464 90.7927 12.448C90.7767 12.384 90.7847 12.328 90.8167 12.28C91.2327 11.64 91.6167 11.104 91.9687 10.672C92.3207 10.24 92.5527 10.024 92.6647 10.024C92.8887 10.024 93.1527 10.176 93.4567 10.48C93.2487 10.736 93.0327 11.024 92.8087 11.344C92.5847 11.648 92.3687 11.96 92.1607 12.28C91.9367 12.616 91.6967 12.984 91.4407 13.384C91.2007 13.768 91.0327 14.12 90.9367 14.44C90.8407 14.728 90.7927 14.952 90.7927 15.112C90.7927 15.336 90.8727 15.448 91.0327 15.448C91.2407 15.448 91.5447 15.232 91.9447 14.8C92.2167 14.512 92.5127 14.16 92.8327 13.744C93.1687 13.312 93.4887 12.88 93.7927 12.448C94.1127 12 94.4087 11.584 94.6807 11.2C94.9687 10.8 95.2087 10.48 95.4007 10.24C95.5767 10.016 95.7367 9.904 95.8807 9.904C96.0887 9.904 96.3287 10.08 96.6007 10.432C96.3767 10.752 96.1047 11.168 95.7847 11.68C95.4647 12.176 95.1687 12.688 94.8967 13.216C94.6407 13.728 94.4727 14.184 94.3927 14.584C94.3767 14.648 94.3607 14.712 94.3447 14.776C94.3447 14.84 94.3447 14.912 94.3447 14.992C94.3447 15.456 94.4647 15.688 94.7047 15.688C94.8327 15.688 94.9847 15.616 95.1607 15.472C95.3527 15.328 95.5367 15.16 95.7127 14.968C95.8887 14.776 96.0247 14.616 96.1207 14.488C96.6327 13.8 97.1207 13.088 97.5847 12.352C97.6807 12.208 97.7447 12.136 97.7767 12.136C97.8087 12.136 97.8167 12.168 97.8007 12.232C97.8007 12.28 97.7927 12.32 97.7767 12.352C97.4567 12.88 97.0807 13.456 96.6487 14.08C96.2327 14.704 95.8167 15.216 95.4007 15.616C95.1767 15.84 94.9527 15.952 94.7287 15.952C94.2967 15.952 93.9767 15.848 93.7687 15.64C93.5607 15.432 93.4567 15.2 93.4567 14.944C93.4567 14.784 93.4807 14.616 93.5287 14.44C93.5767 14.248 93.6327 14.056 93.6967 13.864L94.3447 12.16C94.1047 12.464 93.9047 12.72 93.7447 12.928C93.5847 13.12 93.4407 13.304 93.3127 13.48C93.2007 13.64 93.0727 13.824 92.9287 14.032C92.7847 14.224 92.6327 14.416 92.4727 14.608C92.1687 15.008 91.8727 15.352 91.5847 15.64C91.2967 15.928 91.0727 16.072 90.9127 16.072ZM98.4764 16.36C97.9804 16.36 97.5564 16.176 97.2044 15.808C96.8684 15.44 96.7004 14.944 96.7004 14.32C96.7004 13.856 96.8044 13.36 97.0124 12.832C97.2524 12.272 97.5644 11.744 97.9484 11.248C98.3484 10.736 98.7804 10.32 99.2444 10C99.7084 9.664 100.164 9.496 100.612 9.496C100.916 9.496 101.212 9.584 101.5 9.76C101.788 9.92 101.892 10.184 101.812 10.552C101.796 10.6 101.764 10.632 101.716 10.648C101.684 10.664 101.668 10.664 101.668 10.648C101.556 10.328 101.316 10.168 100.948 10.168C100.74 10.168 100.524 10.24 100.3 10.384C99.8524 10.72 99.4284 11.12 99.0284 11.584C98.6444 12.032 98.3164 12.488 98.0444 12.952C97.7724 13.416 97.5884 13.84 97.4924 14.224C97.4604 14.384 97.4284 14.528 97.3964 14.656C97.3804 14.768 97.3724 14.888 97.3724 15.016C97.3724 15.416 97.4764 15.704 97.6844 15.88C97.8924 16.04 98.1404 16.12 98.4284 16.12C98.8924 16.12 99.3244 15.976 99.7244 15.688C100.076 15.416 100.404 15.104 100.708 14.752C101.012 14.4 101.308 14.008 101.596 13.576C101.644 13.496 101.692 13.456 101.74 13.456C101.756 13.456 101.764 13.472 101.764 13.504C101.764 13.552 101.732 13.632 101.668 13.744C101.428 14.096 101.156 14.48 100.852 14.896C100.548 15.296 100.212 15.624 99.8444 15.88C99.6204 16.04 99.3884 16.16 99.1484 16.24C98.9244 16.32 98.7004 16.36 98.4764 16.36ZM102.773 16.36C102.437 16.36 102.141 16.224 101.885 15.952C101.645 15.68 101.525 15.288 101.525 14.776C101.525 14.392 101.613 13.928 101.789 13.384C101.981 12.824 102.213 12.24 102.485 11.632C102.773 11.008 103.069 10.424 103.373 9.88C103.693 9.32 103.973 8.848 104.213 8.464C103.941 8.464 103.701 8.464 103.493 8.464C103.285 8.448 103.117 8.448 102.989 8.464C102.877 8.464 102.805 8.448 102.773 8.416C102.757 8.368 102.757 8.336 102.773 8.32C102.773 8.272 102.797 8.208 102.845 8.128C102.909 8.048 102.965 8.008 103.013 8.008H104.477C104.557 7.912 104.661 7.744 104.789 7.504C104.933 7.264 105.077 7.008 105.221 6.736C105.365 6.464 105.485 6.224 105.581 6.016C105.693 5.792 105.749 5.656 105.749 5.608C105.749 5.464 105.701 5.36 105.605 5.296C105.541 5.264 105.509 5.248 105.509 5.248C105.493 5.248 105.485 5.248 105.485 5.248C105.485 5.232 105.477 5.224 105.461 5.224C105.445 5.208 105.437 5.184 105.437 5.152C105.437 5.104 105.461 5.072 105.509 5.056C105.557 5.024 105.597 5.008 105.629 5.008C105.725 5.008 105.813 5.032 105.893 5.08C105.989 5.112 106.141 5.184 106.349 5.296C106.445 5.344 106.541 5.392 106.637 5.44C106.749 5.472 106.837 5.512 106.901 5.56L107.093 5.68C106.997 5.84 106.845 6.064 106.637 6.352C106.445 6.64 106.253 6.936 106.061 7.24C105.869 7.544 105.709 7.8 105.581 8.008H109.877C110.069 8.008 110.165 8.032 110.165 8.08C110.165 8.128 110.093 8.184 109.949 8.248C109.821 8.296 109.725 8.32 109.661 8.32C109.453 8.336 109.157 8.344 108.773 8.344C108.405 8.344 108.005 8.352 107.573 8.368C107.157 8.368 106.765 8.384 106.397 8.416C106.045 8.432 105.797 8.464 105.653 8.512C105.413 8.592 105.141 8.856 104.837 9.304C104.533 9.736 104.237 10.248 103.949 10.84C103.677 11.432 103.429 12.008 103.205 12.568C103.157 12.696 103.069 12.912 102.941 13.216C102.829 13.52 102.717 13.848 102.605 14.2C102.509 14.552 102.461 14.88 102.461 15.184C102.461 15.472 102.517 15.68 102.629 15.808C102.741 15.936 102.877 16 103.037 16C103.229 16 103.445 15.888 103.685 15.664C103.941 15.44 104.221 15.152 104.525 14.8C104.845 14.4 105.141 14 105.413 13.6C105.701 13.184 105.885 12.904 105.965 12.76C106.093 12.552 106.173 12.448 106.205 12.448C106.221 12.448 106.229 12.456 106.229 12.472C106.229 12.52 106.205 12.608 106.157 12.736C106.109 12.848 106.061 12.944 106.013 13.024C105.725 13.44 105.413 13.904 105.077 14.416C104.741 14.928 104.397 15.368 104.045 15.736C103.629 16.152 103.205 16.36 102.773 16.36Z" fill="#FF5748"/>
</svg>
