<svg width="24" height="23" viewBox="0 0 24 23" fill="none" xmlns="http://www.w3.org/2000/svg">
<path d="M14.3208 21.2834L14.7422 22.076L13.3755 22.8025L12.6845 21.5026L12.6685 21.4725L12.6345 21.4748C12.4247 21.4886 12.2132 21.4953 11.9998 21.4953C11.7864 21.4953 11.5745 21.4886 11.3645 21.4748L11.3645 21.4747H11.361H11.3606H11.329L11.3141 21.5026L10.6231 22.8025L9.25642 22.076L9.6781 21.2831L9.70978 21.2235L9.64431 21.2072C7.96863 20.7898 6.46542 19.9362 5.26159 18.7738L5.21128 18.7252L5.17845 18.787L3.52578 21.8954L2.15913 21.1689L4.1125 17.4954L4.12788 17.4665L4.10877 17.4399C3.97201 17.2496 3.84234 17.0541 3.71973 16.8535L3.70432 16.8283H3.67477H0.0527011V15.2801H2.86599H2.94216L2.91531 15.2089C2.51491 14.1459 2.2959 12.9942 2.2959 11.791C2.2959 9.55281 3.0535 7.49192 4.32673 5.8505L4.34763 5.82357L4.33162 5.79346L2.15771 1.70491L3.52435 0.978384L5.42928 4.56137L5.46094 4.62093L5.51107 4.5758C6.75245 3.4581 8.28399 2.65691 9.97918 2.29796L10.0476 2.28346L10.0148 2.22167L9.25784 0.797794L10.6245 0.07127L11.6836 2.06307L11.699 2.09205L11.7318 2.09101C11.8209 2.08818 11.9094 2.08711 11.9998 2.08711C12.0903 2.08711 12.1802 2.08818 12.2696 2.09101L12.3024 2.09204L12.3178 2.06307L13.3769 0.07127L14.7436 0.797792L13.9863 2.22202L13.9534 2.28381L14.0219 2.29832C15.716 2.65727 17.2468 3.4581 18.4879 4.57509L18.538 4.62021L18.5697 4.56066L20.4742 0.978383L21.8409 1.70491L19.6677 5.79239L19.6517 5.8225L19.6726 5.84944C20.9461 7.49121 21.7041 9.55246 21.7041 11.791C21.7041 12.9942 21.4851 14.1459 21.0847 15.2089L21.0578 15.2801H21.134H23.9473V16.8283H20.3252H20.2957L20.2803 16.8535C20.158 17.0537 20.0284 17.2486 19.8922 17.4389L19.8732 17.4655L19.8886 17.4943L21.8423 21.1689L20.4756 21.8954L18.8223 18.7863L18.7894 18.7245L18.7391 18.7731C17.5349 19.9358 16.031 20.7898 14.3546 21.2076L14.2892 21.2239L14.3208 21.2834ZM13.3668 3.46349L13.3295 3.45744L13.3118 3.49076L12.8903 4.28314L12.8772 4.30789L12.8903 4.33263L15.7439 9.69977L15.7904 9.78729L15.8369 9.69978L17.9055 5.80946L17.9241 5.77451L17.8957 5.74693C16.6815 4.56637 15.114 3.7471 13.3668 3.46349ZM16.8707 15.2801H16.9584L16.9172 15.2027L15.8369 13.1715L15.7904 13.084L15.7439 13.1715L14.6639 15.2027L14.6228 15.2801H14.7105H16.8707ZM10.6896 3.49041L10.6719 3.45709L10.6346 3.46313C8.88636 3.74674 7.3178 4.56637 6.10354 5.74801L6.07519 5.7756L6.09376 5.81052L8.16308 9.70227L8.20962 9.78979L8.25615 9.70227L11.1111 4.33263L11.1242 4.30789L11.1111 4.28315L10.6896 3.49041ZM4.27045 15.2489L4.28437 15.2801H4.31858H5.25847H5.29014L5.30501 15.2522L7.31982 11.4631L7.33298 11.4383L7.31982 11.4136L5.04491 7.13489L5.00346 7.05692L4.95452 7.13042C4.06213 8.47062 3.54226 10.0801 3.54226 11.811C3.54226 13.0349 3.80218 14.1983 4.27045 15.2489ZM8.25615 13.174L8.20962 13.0865L8.16309 13.174L7.08424 15.2027L7.04306 15.2801H7.13077H9.28811H9.37581L9.33464 15.2027L8.25615 13.174ZM10.2689 20.0911L10.3076 20.0991L10.3262 20.0642L11.1097 18.5906L11.1228 18.5659L11.1097 18.5411L10.214 16.8562L10.1991 16.8283H10.1674H6.25181H6.22015L6.20528 16.8562L5.83617 17.5499L5.81841 17.5833L5.84434 17.6108C7.00912 18.8469 8.54253 19.7322 10.2689 20.0911ZM11.1139 15.2522L11.1287 15.2801H11.1604H12.8382H12.8698L12.8847 15.2522L14.9009 11.4602L14.9141 11.4355L14.9009 11.4107L12.0474 6.04393L12.0009 5.95642L11.9544 6.04393L9.09906 11.4136L9.0859 11.4383L9.09906 11.4631L11.1139 15.2522ZM13.6727 20.0646L13.6913 20.0995L13.73 20.0914C15.4575 19.7322 16.9916 18.8466 18.1564 17.6097L18.1823 17.5822L18.1645 17.5489L17.7961 16.8562L17.7813 16.8283H17.7496H13.8311H13.7995L13.7846 16.8562L12.8889 18.5411L12.8758 18.5659L12.8889 18.5906L13.6727 20.0646ZM19.6814 15.2801H19.7156L19.7296 15.2489C20.1975 14.1984 20.4577 13.0349 20.4577 11.811C20.4577 10.0798 19.9375 8.4699 19.0448 7.12935L18.9958 7.05586L18.9544 7.13382L16.6802 11.4107L16.667 11.4355L16.6802 11.4602L18.6964 15.2522L18.7113 15.2801H18.743H19.6814Z" fill="#D9D9D9" stroke="url(#paint0_linear_936_445)" stroke-width="0.105402"/>
<defs>
<linearGradient id="paint0_linear_936_445" x1="12" y1="0" x2="12" y2="22.8738" gradientUnits="userSpaceOnUse">
<stop/>
<stop offset="1" stop-color="#FF5959"/>
</linearGradient>
</defs>
</svg>
