<svg width="40" height="39" viewBox="0 0 40 39" fill="none" xmlns="http://www.w3.org/2000/svg">
<path d="M40 28.135V25.3791H35.2233C35.8944 23.5976 36.2613 21.6677 36.2613 19.6517C36.2613 15.9006 34.9912 12.4464 32.857 9.69522L36.5202 2.80518L34.0874 1.51185L30.8719 7.55986C28.7923 5.68816 26.227 4.34614 23.388 3.7446L24.6914 1.29333L22.2586 0L20.4522 3.39722C20.302 3.39247 20.1511 3.39069 19.9997 3.39069C19.8483 3.39069 19.6998 3.39247 19.5502 3.39722L17.7438 0L15.3109 1.29333L16.6138 3.74401C13.773 4.34554 11.2065 5.68816 9.12635 7.56105L5.91024 1.51185L3.47738 2.80518L7.14182 9.69701C5.00824 12.4476 3.73866 15.9012 3.73866 19.6517C3.73866 21.6677 4.10564 23.5976 4.77665 25.3791H0V28.135H6.12461C6.33007 28.4711 6.54741 28.7989 6.77662 29.1177L3.47976 35.3178L5.91262 36.6111L8.7083 31.3529C10.7255 33.3006 13.2445 34.7311 16.0526 35.4306L15.3086 36.8296L17.7414 38.123L18.9344 35.8789H18.935C19.2871 35.9021 19.6422 35.9134 19.9997 35.9134C20.3572 35.9134 20.7117 35.9021 21.0632 35.8789L22.2562 38.123L24.6891 36.8296L23.9456 35.4312C26.7549 34.7311 29.2751 33.3 31.2929 31.3517L34.0898 36.6111L36.5226 35.3178L33.2252 29.116C33.4532 28.7971 33.6705 28.4705 33.8754 28.135H40ZM22.2639 5.85918C25.1576 6.32889 27.7537 7.68575 29.765 9.64119L26.3173 16.1251L21.5614 7.17982L22.2639 5.85918ZM28.1178 25.3791H24.5175L26.3173 21.9937L28.1178 25.3791ZM17.7385 5.85858L18.4409 7.17982L13.6827 16.1292L10.2338 9.64297C12.2451 7.68575 14.843 6.32829 17.7385 5.85858ZM7.19764 25.3791C6.42211 23.6392 5.9916 21.7123 5.9916 19.685C5.9916 16.818 6.85263 14.1524 8.33064 11.9327L12.1221 19.0639L8.76412 25.3791H7.19764ZM13.6827 21.9979L15.4802 25.3791H11.8846L13.6827 21.9979ZM17.1328 33.3992C14.2735 32.8047 11.7338 31.3386 9.80449 29.2911L10.4197 28.135H16.9457L18.4386 30.9431L17.1328 33.3992ZM18.6007 25.3791L15.2426 19.0639L20.0015 10.1145L24.7574 19.0591L21.397 25.3791H18.6007ZM22.8655 33.3997L21.5591 30.9431L23.0519 28.135H29.5827L30.1967 29.2894C28.2674 31.338 25.7265 32.8047 22.8655 33.3997ZM32.8024 25.3791H31.2383L27.8778 19.0591L31.6682 11.9309C33.1468 14.1512 34.0084 16.8174 34.0084 19.685C34.0084 21.7123 33.5773 23.6392 32.8024 25.3791Z" fill="#ff5959"/>
</svg>
