<svg width="16" height="18" viewBox="0 0 16 18" fill="none" xmlns="http://www.w3.org/2000/svg">
<path d="M5.875 6.5V3.375C5.875 2.87772 6.07254 2.40081 6.42417 2.04917C6.77581 1.69754 7.25272 1.5 7.75 1.5H12.75C13.2473 1.5 13.7242 1.69754 14.0758 2.04917C14.4275 2.40081 14.625 2.87772 14.625 3.375V14.625C14.625 15.1223 14.4275 15.5992 14.0758 15.9508C13.7242 16.3025 13.2473 16.5 12.75 16.5H7.75C7.25272 16.5 6.77581 16.3025 6.42417 15.9508C6.07254 15.5992 5.875 15.1223 5.875 14.625V11.5M9 6.5L11.5 9M11.5 9L9 11.5M11.5 9H0.875" stroke="#F8F8F8" stroke-width="1.25" stroke-linecap="round" stroke-linejoin="round"/>
</svg>
