<svg width="152" height="24" viewBox="0 0 152 24" fill="none" xmlns="http://www.w3.org/2000/svg">
<path d="M21.072 6.184C21.008 6.184 20.976 6.168 20.976 6.136C20.976 6.088 21.032 6.032 21.144 5.968C21.496 5.744 21.832 5.432 22.152 5.032C22.488 4.616 22.656 4.16 22.656 3.664C22.656 3.28 22.512 2.976 22.224 2.752C21.952 2.528 21.6 2.36 21.168 2.248C20.752 2.12 20.336 2.04 19.92 2.008C19.504 1.96 19.16 1.936 18.888 1.936C17.48 1.936 16.112 2.088 14.784 2.392C13.456 2.68 12.152 3.024 10.872 3.424C9.592 3.824 8.296 4.2 6.984 4.552C5.688 4.904 4.344 5.144 2.952 5.272C2.312 5.336 1.808 5.168 1.44 4.768C1.088 4.352 0.912 3.864 0.912 3.304C0.912 3.08 1.064 2.832 1.368 2.56C1.688 2.272 2.096 1.992 2.592 1.72C3.088 1.448 3.616 1.2 4.176 0.975999C4.752 0.735999 5.312 0.543999 5.856 0.399999C6.4 0.255999 6.872 0.183999 7.272 0.183999H7.344C7.424 0.183999 7.504 0.191999 7.584 0.207999C7.68 0.224 7.728 0.248 7.728 0.279999C7.728 0.328 7.6 0.375999 7.344 0.423999C7.072 0.471999 6.696 0.567999 6.216 0.711999C5.736 0.855999 5.224 1.032 4.68 1.24C4.136 1.448 3.616 1.68 3.12 1.936C2.624 2.176 2.216 2.424 1.896 2.68C1.576 2.92 1.416 3.152 1.416 3.376C1.416 3.616 1.64 3.8 2.088 3.928C2.536 4.056 3.104 4.12 3.792 4.12C4.992 4.12 6.224 3.976 7.488 3.688C8.752 3.384 10.024 3.04 11.304 2.656C12.6 2.256 13.888 1.912 15.168 1.624C16.464 1.32 17.72 1.168 18.936 1.168C19.544 1.168 20.144 1.216 20.736 1.312C20.976 1.344 21.224 1.384 21.48 1.432C21.736 1.48 21.968 1.568 22.176 1.696C22.4 1.808 22.576 1.968 22.704 2.176C22.832 2.368 22.872 2.64 22.824 2.992C22.904 3.12 23 3.312 23.112 3.568C23.24 3.808 23.304 4.064 23.304 4.336C23.304 4.528 23.248 4.712 23.136 4.888C23.024 5.064 22.808 5.216 22.488 5.344L21.96 5.56C21.88 5.592 21.76 5.688 21.6 5.848C21.456 5.992 21.344 6.088 21.264 6.136C21.2 6.168 21.136 6.184 21.072 6.184ZM9.36 17.488C8.896 17.488 8.568 17.296 8.376 16.912C8.2 16.544 8.112 16.192 8.112 15.856C8.112 15.248 8.28 14.536 8.616 13.72C8.968 12.888 9.416 12.016 9.96 11.104C10.52 10.192 11.112 9.304 11.736 8.44C12.376 7.576 12.992 6.792 13.584 6.088C14.176 5.384 14.672 4.84 15.072 4.456C14.976 4.328 14.928 4.208 14.928 4.096C14.928 3.904 15.024 3.712 15.216 3.52C15.408 3.328 15.624 3.16 15.864 3.016C16.104 2.856 16.288 2.728 16.416 2.632C16.64 2.648 16.888 2.712 17.16 2.824C17.432 2.936 17.568 3.112 17.568 3.352C17.568 3.592 17.432 3.84 17.16 4.096C16.904 4.352 16.696 4.552 16.536 4.696C16.424 4.808 16.304 4.912 16.176 5.008C16.064 5.104 15.952 5.2 15.84 5.296C15.728 5.392 15.624 5.488 15.528 5.584C15.448 5.664 15.376 5.736 15.312 5.8C14.912 6.216 14.424 6.744 13.848 7.384C13.288 8.008 12.712 8.696 12.12 9.448C11.528 10.2 10.976 10.976 10.464 11.776C9.952 12.576 9.536 13.36 9.216 14.128C8.896 14.88 8.736 15.576 8.736 16.216C8.736 16.472 8.784 16.704 8.88 16.912C8.992 17.136 9.184 17.288 9.456 17.368C9.488 17.384 9.512 17.392 9.528 17.392C9.544 17.408 9.552 17.416 9.552 17.416C9.552 17.464 9.488 17.488 9.36 17.488ZM19.0656 17.872C18.6336 17.872 18.3456 17.736 18.2016 17.464C18.0736 17.208 18.0096 16.96 18.0096 16.72C18.0096 16.336 18.1136 15.872 18.3216 15.328C18.5296 14.784 18.7696 14.224 19.0416 13.648C19.3296 13.072 19.5936 12.568 19.8336 12.136C20.0256 11.8 20.1216 11.536 20.1216 11.344C20.1216 11.216 20.0736 11.152 19.9776 11.152C19.8496 11.152 19.6256 11.288 19.3056 11.56C19.0016 11.832 18.6816 12.16 18.3456 12.544C18.0096 12.912 17.7216 13.256 17.4816 13.576C17.2416 13.896 17.0096 14.256 16.7856 14.656C16.5776 15.056 16.3856 15.392 16.2096 15.664C16.1296 15.808 16.0336 15.88 15.9216 15.88C15.8096 15.88 15.6976 15.816 15.5856 15.688C15.4736 15.56 15.4176 15.328 15.4176 14.992C15.4176 14.848 15.4816 14.52 15.6096 14.008C15.7536 13.48 15.9456 12.856 16.1856 12.136C16.4256 11.416 16.6976 10.672 17.0016 9.904C17.3216 9.136 17.6576 8.416 18.0096 7.744C18.4736 6.896 18.9776 6.072 19.5216 5.272C20.0656 4.456 20.6096 3.72 21.1536 3.064C21.6976 2.408 22.2096 1.888 22.6896 1.504C23.1696 1.12 23.5616 0.927999 23.8656 0.927999C24.1376 0.927999 24.3136 0.992 24.3936 1.12C24.4736 1.232 24.5376 1.368 24.5856 1.528C24.6496 1.672 24.7696 1.8 24.9456 1.912C24.8816 2.312 24.6816 2.816 24.3456 3.424C24.0256 4.032 23.5536 4.672 22.9296 5.344C22.0656 6.272 21.1936 7.288 20.3136 8.392C19.4336 9.48 18.6416 10.552 17.9376 11.608C17.8736 11.688 17.8096 11.728 17.7456 11.728C17.6976 11.728 17.7056 11.68 17.7696 11.584C18.3136 10.624 18.9216 9.712 19.5936 8.848C20.2816 7.984 20.9776 7.128 21.6816 6.28C22.4016 5.416 23.0736 4.536 23.6976 3.64C23.8896 3.368 24.0256 3.144 24.1056 2.968C24.1856 2.776 24.2256 2.624 24.2256 2.512C24.2256 2.336 24.1376 2.248 23.9616 2.248C23.5936 2.248 23.1536 2.52 22.6416 3.064C22.1296 3.624 21.5696 4.296 20.9616 5.08C20.3696 5.864 19.8416 6.608 19.3776 7.312C19.1216 7.696 18.8256 8.192 18.4896 8.8C18.1696 9.392 17.8496 10.016 17.5296 10.672C17.2256 11.312 16.9696 11.904 16.7616 12.448C16.5696 12.992 16.4736 13.4 16.4736 13.672C16.4736 13.816 16.5296 13.888 16.6416 13.888C16.7056 13.888 16.7696 13.864 16.8336 13.816C16.8976 13.768 16.9616 13.712 17.0256 13.648C17.4096 13.264 17.8176 12.84 18.2496 12.376C18.6976 11.912 19.1456 11.448 19.5936 10.984C20.0416 10.504 20.4496 10.08 20.8176 9.712C20.9936 9.776 21.1456 9.808 21.2736 9.808C21.4176 9.808 21.5776 9.848 21.7536 9.928C21.9136 9.992 21.9936 10.12 21.9936 10.312C21.9936 10.424 21.9616 10.56 21.8976 10.72C21.8336 10.88 21.7536 11.048 21.6576 11.224C21.3056 11.816 20.9216 12.392 20.5056 12.952C20.0896 13.496 19.7056 14.064 19.3536 14.656C19.0176 15.232 18.7696 15.872 18.6096 16.576C18.5936 16.656 18.5776 16.744 18.5616 16.84C18.5616 16.936 18.5616 17.024 18.5616 17.104C18.5616 17.52 18.6816 17.728 18.9216 17.728C19.0656 17.728 19.2176 17.656 19.3776 17.512L20.0496 16.912C19.9216 17.2 19.7776 17.432 19.6176 17.608C19.4736 17.784 19.2896 17.872 19.0656 17.872ZM22.4076 16.264C22.0716 16.264 21.8156 16.104 21.6396 15.784C21.4796 15.448 21.3996 15.16 21.3996 14.92C21.3996 14.36 21.5676 13.776 21.9036 13.168C22.2396 12.56 22.6636 11.984 23.1756 11.44C23.7036 10.896 24.2556 10.456 24.8316 10.12C25.4076 9.784 25.9436 9.616 26.4396 9.616C26.5836 9.616 26.7436 9.68 26.9196 9.808C27.1116 9.92 27.2876 10.104 27.4476 10.36C27.4796 10.392 27.5196 10.464 27.5676 10.576C27.6156 10.672 27.6156 10.76 27.5676 10.84L27.5436 10.792C27.5116 10.712 27.4396 10.648 27.3276 10.6C27.2156 10.536 27.0476 10.504 26.8236 10.504C26.4556 10.504 26.0396 10.632 25.5756 10.888C25.1276 11.144 24.6716 11.488 24.2076 11.92C23.7596 12.352 23.3516 12.824 22.9836 13.336C22.6156 13.848 22.3436 14.368 22.1676 14.896C22.0556 15.168 21.9996 15.4 21.9996 15.592C21.9996 15.832 22.0876 15.952 22.2636 15.952C22.3916 15.952 22.5436 15.888 22.7196 15.76C23.0556 15.504 23.4076 15.176 23.7756 14.776C24.1436 14.376 24.4956 13.96 24.8316 13.528C25.1836 13.096 25.4876 12.696 25.7436 12.328C26.0156 11.96 26.2076 11.688 26.3196 11.512C26.3676 11.448 26.4236 11.416 26.4876 11.416C26.5676 11.4 26.6636 11.392 26.7756 11.392C27.0956 11.392 27.2956 11.448 27.3756 11.56C27.4716 11.656 27.4796 11.76 27.3996 11.872C27.1916 12.176 26.9676 12.528 26.7276 12.928C26.5036 13.328 26.3036 13.72 26.1276 14.104C25.9676 14.488 25.8876 14.832 25.8876 15.136C25.8876 15.376 25.9836 15.496 26.1756 15.496C26.3516 15.496 26.5436 15.392 26.7516 15.184C26.9436 15.008 27.1676 14.752 27.4236 14.416C27.6956 14.08 27.9596 13.728 28.2156 13.36C28.4876 12.992 28.7116 12.672 28.8876 12.4C28.9516 12.32 28.9996 12.288 29.0316 12.304C29.0796 12.304 29.0796 12.352 29.0316 12.448C28.7756 12.848 28.5116 13.264 28.2396 13.696C27.9676 14.112 27.6796 14.504 27.3756 14.872C26.7996 15.608 26.3676 15.976 26.0796 15.976C25.8236 15.976 25.5836 15.896 25.3596 15.736C25.1356 15.576 25.0236 15.344 25.0236 15.04C25.0236 14.72 25.0876 14.352 25.2156 13.936C25.3596 13.504 25.4876 13.168 25.5996 12.928C25.2636 13.44 24.8796 13.952 24.4476 14.464C24.0156 14.976 23.6076 15.408 23.2236 15.76C22.8556 16.096 22.5836 16.264 22.4076 16.264ZM31.9723 16.312C31.5563 16.312 31.2603 16.192 31.0843 15.952C30.9243 15.696 30.8443 15.4 30.8443 15.064C30.8443 14.68 30.9003 14.296 31.0123 13.912C31.1403 13.512 31.2763 13.152 31.4203 12.832C31.5803 12.496 31.7083 12.24 31.8043 12.064C32.0763 11.552 32.2123 11.216 32.2123 11.056C32.2123 10.88 32.1323 10.824 31.9723 10.888C31.8443 10.936 31.6683 11.072 31.4443 11.296C31.2203 11.52 30.9883 11.776 30.7483 12.064C30.5083 12.352 30.2923 12.616 30.1003 12.856C29.9243 13.096 29.8123 13.256 29.7643 13.336C29.3163 13.976 29.0043 14.504 28.8283 14.92C28.6523 15.336 28.5243 15.64 28.4443 15.832C28.4123 15.912 28.3243 15.952 28.1803 15.952C28.0363 15.952 27.8923 15.896 27.7483 15.784C27.6043 15.656 27.5323 15.472 27.5323 15.232C27.5323 15.104 27.6043 14.88 27.7483 14.56C27.8923 14.224 28.0683 13.832 28.2763 13.384C28.4683 12.952 28.6603 12.52 28.8523 12.088C29.0443 11.64 29.1963 11.288 29.3083 11.032C29.1963 10.936 29.1403 10.864 29.1403 10.816C29.1403 10.768 29.1483 10.728 29.1643 10.696C29.1963 10.616 29.2603 10.488 29.3563 10.312C29.4523 10.12 29.5483 9.936 29.6443 9.76C29.7403 9.568 29.8043 9.448 29.8363 9.4C29.8843 9.368 30.0043 9.312 30.1963 9.232C30.4043 9.152 30.6043 9.112 30.7963 9.112H30.8923C31.0843 9.112 31.1803 9.168 31.1803 9.28C31.1803 9.392 31.1243 9.536 31.0123 9.712C30.9643 9.792 30.8523 10 30.6763 10.336C30.5003 10.656 30.3003 11.024 30.0763 11.44C29.8523 11.856 29.6443 12.256 29.4523 12.64C29.2763 13.008 29.1483 13.288 29.0683 13.48C29.0203 13.624 28.9963 13.768 28.9963 13.912C29.0123 14.04 29.0523 14.056 29.1163 13.96C29.5643 13.288 29.9803 12.712 30.3643 12.232C30.7483 11.752 31.1323 11.304 31.5163 10.888C31.9003 10.472 32.3243 10.04 32.7883 9.592C32.9483 9.656 33.1163 9.688 33.2923 9.688C33.4683 9.688 33.6203 9.736 33.7483 9.832C33.8123 9.88 33.8443 9.96 33.8443 10.072C33.8443 10.296 33.7083 10.632 33.4363 11.08C33.1803 11.512 32.8923 12 32.5723 12.544C32.3323 12.96 32.0923 13.44 31.8523 13.984C31.6123 14.528 31.4923 15 31.4923 15.4C31.4923 15.608 31.5243 15.784 31.5883 15.928C31.6683 16.056 31.7883 16.12 31.9483 16.12C32.0923 16.12 32.2523 16.064 32.4283 15.952C32.5563 15.872 32.8363 15.608 33.2683 15.16C33.7003 14.696 34.1723 14.072 34.6843 13.288C34.7323 13.24 34.7643 13.216 34.7803 13.216C34.8123 13.216 34.8283 13.232 34.8283 13.264C34.8283 13.296 34.8043 13.36 34.7563 13.456C34.2283 14.352 33.7003 15.056 33.1723 15.568C32.6603 16.064 32.2603 16.312 31.9723 16.312ZM38.3651 16.12C37.8851 16.12 37.4931 15.824 37.1891 15.232C37.0131 14.896 36.8691 14.536 36.7571 14.152C36.6451 13.752 36.5571 13.376 36.4931 13.024C36.4291 12.672 36.3811 12.4 36.3491 12.208C35.3731 13.872 34.8851 15.112 34.8851 15.928C34.8851 15.992 34.8531 16.024 34.7891 16.024C34.7411 16.024 34.6691 15.992 34.5731 15.928C34.4611 15.864 34.3571 15.784 34.2611 15.688C34.1651 15.576 34.1171 15.472 34.1171 15.376C34.1651 14.496 34.3571 13.512 34.6931 12.424C35.0451 11.336 35.4771 10.232 35.9891 9.112C36.5011 7.976 37.0451 6.928 37.6211 5.968C38.1971 4.992 38.7491 4.184 39.2771 3.544C40.3171 2.312 41.2931 1.44 42.2051 0.927999C43.1331 0.4 44.0931 0.136 45.0851 0.136C45.3251 0.136 45.5891 0.151999 45.8771 0.183999C46.1651 0.216 46.4131 0.296 46.6211 0.423999C46.7011 0.487999 46.7171 0.535999 46.6691 0.568C46.6211 0.599999 46.5811 0.607999 46.5491 0.592C46.3891 0.512 46.1971 0.455999 45.9731 0.423999C45.7651 0.391999 45.5491 0.375999 45.3251 0.375999C44.5891 0.375999 43.8131 0.696 42.9971 1.336C42.1971 1.96 41.3811 2.744 40.5491 3.688C39.7491 4.6 39.0131 5.6 38.3411 6.688C37.6691 7.76 37.0691 8.84 36.5411 9.928C36.0131 11 35.5731 12.008 35.2211 12.952C35.1251 13.192 35.0771 13.392 35.0771 13.552C35.0771 13.664 35.1011 13.72 35.1491 13.72C35.2291 13.72 35.3491 13.56 35.5091 13.24C35.6211 13.016 35.7651 12.744 35.9411 12.424C36.1331 12.104 36.3091 11.816 36.4691 11.56C36.9651 10.76 37.4611 10.088 37.9571 9.544C38.4691 9 38.9331 8.672 39.3491 8.56C39.4771 8.656 39.6211 8.736 39.7811 8.8C39.9571 8.848 40.1171 8.92 40.2611 9.016C40.4211 9.112 40.5011 9.264 40.5011 9.472C40.5011 9.84 40.3011 10.272 39.9011 10.768C39.5491 11.216 39.1251 11.56 38.6291 11.8C38.1491 12.024 37.7011 12.176 37.2851 12.256C37.3171 12.544 37.3731 12.92 37.4531 13.384C37.5491 13.832 37.6531 14.24 37.7651 14.608C37.8931 14.96 38.0371 15.208 38.1971 15.352C38.3571 15.496 38.5171 15.568 38.6771 15.568C38.9011 15.568 39.1171 15.488 39.3251 15.328C39.5491 15.152 39.7491 14.952 39.9251 14.728C40.0851 14.536 40.2371 14.344 40.3811 14.152C40.5251 13.944 40.6531 13.752 40.7651 13.576L41.2451 12.856C41.2771 12.808 41.3091 12.784 41.3411 12.784C41.4371 12.784 41.4451 12.856 41.3651 13C41.1891 13.272 40.9331 13.664 40.5971 14.176C40.2771 14.672 39.9411 15.104 39.5891 15.472C39.2051 15.904 38.7971 16.12 38.3651 16.12ZM36.7331 12.088C36.9091 12.088 37.1331 12.024 37.4051 11.896C37.6771 11.752 37.9331 11.592 38.1731 11.416C38.4291 11.24 38.5971 11.112 38.6771 11.032C38.8531 10.856 38.9971 10.664 39.1091 10.456C39.2211 10.248 39.2771 10.04 39.2771 9.832C39.2771 9.8 39.2771 9.76 39.2771 9.712C39.2771 9.664 39.2691 9.624 39.2531 9.592C39.2051 9.416 39.0931 9.328 38.9171 9.328C38.7091 9.328 38.4691 9.456 38.1971 9.712C37.9251 9.952 37.6611 10.24 37.4051 10.576C37.1491 10.912 36.9491 11.2 36.8051 11.44C36.7571 11.536 36.7011 11.632 36.6371 11.728C36.5891 11.808 36.5651 11.888 36.5651 11.968C36.5651 12.048 36.6211 12.088 36.7331 12.088ZM40.4657 23.56C40.2417 23.56 40.0017 23.48 39.7457 23.32C39.4737 23.16 39.2497 22.96 39.0737 22.72C38.8817 22.496 38.7857 22.264 38.7857 22.024C38.7857 21.768 38.9297 21.448 39.2177 21.064C39.5057 20.68 39.8577 20.288 40.2737 19.888C40.6897 19.488 41.1057 19.12 41.5217 18.784C41.9217 18.448 42.2417 18.192 42.4817 18.016C42.9777 17.68 43.4337 17.392 43.8497 17.152C44.2817 16.912 44.7057 16.688 45.1217 16.48C45.5377 16.288 46.0497 16.072 46.6577 15.832C47.2657 15.576 47.8177 15.368 48.3137 15.208C48.4417 14.984 48.5697 14.672 48.6977 14.272C48.8257 13.856 48.9377 13.432 49.0337 13C49.1297 12.568 49.1777 12.224 49.1777 11.968C49.1777 11.888 49.1697 11.8 49.1537 11.704C49.1377 11.608 49.0977 11.56 49.0337 11.56C48.9697 11.56 48.8977 11.6 48.8177 11.68C48.6257 11.888 48.3777 12.208 48.0737 12.64C47.7697 13.056 47.4417 13.496 47.0897 13.96C46.7377 14.408 46.3937 14.8 46.0577 15.136C45.7377 15.456 45.4497 15.616 45.1937 15.616C44.8737 15.616 44.6257 15.552 44.4497 15.424C44.2737 15.312 44.1857 15.096 44.1857 14.776C44.1857 14.488 44.2417 14.176 44.3537 13.84C44.4657 13.504 44.5937 13.192 44.7377 12.904C44.8817 12.616 44.9937 12.408 45.0737 12.28C44.9937 12.328 44.9537 12.336 44.9537 12.304C44.9697 12.272 44.9857 12.248 45.0017 12.232C45.0177 12.168 45.0577 12.088 45.1217 11.992C45.5377 11.384 45.8977 10.904 46.2017 10.552C46.5217 10.2 46.7377 10.024 46.8497 10.024C46.9777 10.024 47.0977 10.072 47.2097 10.168C47.3377 10.248 47.4817 10.352 47.6417 10.48C47.4657 10.624 47.2177 10.896 46.8977 11.296C46.5777 11.696 46.2497 12.144 45.9137 12.64C45.5937 13.12 45.3297 13.584 45.1217 14.032C45.0257 14.224 44.9537 14.392 44.9057 14.536C44.8737 14.68 44.8577 14.792 44.8577 14.872C44.8577 15.064 44.9377 15.16 45.0977 15.16C45.2417 15.16 45.4177 15.096 45.6257 14.968C45.8337 14.84 46.0337 14.672 46.2257 14.464C46.8337 13.84 47.3857 13.184 47.8817 12.496C48.3777 11.808 48.8577 11.112 49.3217 10.408C49.3537 10.408 49.3857 10.408 49.4177 10.408C49.4657 10.392 49.5057 10.384 49.5377 10.384C49.7617 10.384 49.9377 10.448 50.0657 10.576C50.1617 10.672 50.2097 10.872 50.2097 11.176C50.2097 11.48 50.1617 11.848 50.0657 12.28C49.9857 12.712 49.8817 13.144 49.7537 13.576C49.6417 13.992 49.5297 14.36 49.4177 14.68C49.3057 15 49.2257 15.2 49.1777 15.28C49.6097 15.344 49.9297 15.52 50.1377 15.808C50.3617 16.08 50.4737 16.4 50.4737 16.768C50.4737 16.832 50.4737 16.896 50.4737 16.96C50.4737 17.024 50.4657 17.088 50.4497 17.152C50.4337 17.264 50.3857 17.312 50.3057 17.296C50.2417 17.296 50.2177 17.248 50.2337 17.152C50.2657 16.736 50.2097 16.368 50.0657 16.048C49.9217 15.744 49.5777 15.592 49.0337 15.592C48.7457 16.152 48.3617 16.784 47.8817 17.488C47.4177 18.192 46.8817 18.896 46.2737 19.6C45.6817 20.32 45.0497 20.976 44.3777 21.568C43.7217 22.176 43.0577 22.656 42.3857 23.008C41.7137 23.376 41.0737 23.56 40.4657 23.56ZM40.2017 23.104C40.5857 23.104 41.1057 22.92 41.7617 22.552C42.2257 22.296 42.7217 21.936 43.2497 21.472C43.7777 21.008 44.2977 20.488 44.8097 19.912C45.3377 19.352 45.8257 18.792 46.2737 18.232C46.7377 17.672 47.1297 17.152 47.4497 16.672C47.7697 16.208 47.9937 15.848 48.1217 15.592C47.6897 15.688 47.1537 15.872 46.5137 16.144C45.8737 16.416 45.1937 16.76 44.4737 17.176C43.7697 17.608 43.0817 18.088 42.4097 18.616C41.7377 19.144 41.1457 19.704 40.6337 20.296C40.3457 20.648 40.1057 21.016 39.9137 21.4C39.7057 21.8 39.6017 22.152 39.6017 22.456C39.6017 22.888 39.8017 23.104 40.2017 23.104ZM52.5894 16.36C52.1254 16.36 51.7254 16.184 51.3894 15.832C51.0694 15.48 50.9094 15 50.9094 14.392C50.9094 14.168 50.9334 13.928 50.9814 13.672C51.0454 13.4 51.1334 13.12 51.2454 12.832C51.4854 12.272 51.8134 11.736 52.2294 11.224C52.6614 10.712 53.1254 10.288 53.6214 9.952C54.1174 9.616 54.5894 9.448 55.0374 9.448C55.0854 9.448 55.1414 9.472 55.2054 9.52C55.2694 9.552 55.3174 9.584 55.3494 9.616L55.4694 9.736C55.6614 9.928 55.8454 10.04 56.0214 10.072C56.2134 10.104 56.3654 10.2 56.4774 10.36C56.6694 10.664 56.7654 11.032 56.7654 11.464C56.7654 12.056 56.5814 12.704 56.2134 13.408C55.8614 14.096 55.3814 14.72 54.7734 15.28C54.4694 15.552 54.1334 15.8 53.7654 16.024C53.3974 16.248 53.0054 16.36 52.5894 16.36ZM52.7574 16.096C53.1414 16.096 53.5334 15.968 53.9334 15.712C54.3334 15.44 54.7014 15.088 55.0374 14.656C55.3894 14.224 55.6854 13.768 55.9254 13.288C56.1814 12.808 56.3414 12.352 56.4054 11.92C56.4214 11.84 56.4294 11.76 56.4294 11.68C56.4454 11.584 56.4534 11.504 56.4534 11.44C56.4534 11.008 56.3494 10.696 56.1414 10.504C55.9334 10.296 55.6854 10.192 55.3974 10.192C55.0934 10.192 54.7814 10.288 54.4614 10.48C54.1574 10.656 53.7734 11.024 53.3094 11.584C52.8454 12.128 52.4294 12.696 52.0614 13.288C51.7254 13.816 51.5574 14.328 51.5574 14.824C51.5574 15.176 51.6534 15.48 51.8454 15.736C52.0534 15.976 52.3574 16.096 52.7574 16.096ZM57.8627 16.072C57.5107 16.072 57.2387 15.992 57.0467 15.832C56.8707 15.672 56.7987 15.464 56.8307 15.208C56.8627 15.032 56.9107 14.832 56.9747 14.608C57.0387 14.384 57.1187 14.16 57.2147 13.936L57.7907 12.592C57.7747 12.56 57.7587 12.536 57.7427 12.52C57.7427 12.488 57.7427 12.464 57.7427 12.448C57.7267 12.384 57.7347 12.328 57.7667 12.28C58.1827 11.64 58.5667 11.104 58.9187 10.672C59.2707 10.24 59.5027 10.024 59.6147 10.024C59.8387 10.024 60.1027 10.176 60.4067 10.48C60.1987 10.736 59.9827 11.024 59.7587 11.344C59.5347 11.648 59.3187 11.96 59.1107 12.28C58.8867 12.616 58.6467 12.984 58.3907 13.384C58.1507 13.768 57.9827 14.12 57.8867 14.44C57.7907 14.728 57.7427 14.952 57.7427 15.112C57.7427 15.336 57.8227 15.448 57.9827 15.448C58.1907 15.448 58.4947 15.232 58.8947 14.8C59.1667 14.512 59.4627 14.16 59.7827 13.744C60.1187 13.312 60.4387 12.88 60.7427 12.448C61.0627 12 61.3587 11.584 61.6307 11.2C61.9187 10.8 62.1587 10.48 62.3507 10.24C62.5267 10.016 62.6867 9.904 62.8307 9.904C63.0387 9.904 63.2787 10.08 63.5507 10.432C63.3267 10.752 63.0547 11.168 62.7347 11.68C62.4147 12.176 62.1187 12.688 61.8467 13.216C61.5907 13.728 61.4227 14.184 61.3427 14.584C61.3267 14.648 61.3107 14.712 61.2947 14.776C61.2947 14.84 61.2947 14.912 61.2947 14.992C61.2947 15.456 61.4147 15.688 61.6547 15.688C61.7827 15.688 61.9347 15.616 62.1107 15.472C62.3027 15.328 62.4867 15.16 62.6627 14.968C62.8387 14.776 62.9747 14.616 63.0707 14.488C63.5827 13.8 64.0707 13.088 64.5347 12.352C64.6307 12.208 64.6947 12.136 64.7267 12.136C64.7587 12.136 64.7667 12.168 64.7507 12.232C64.7507 12.28 64.7427 12.32 64.7267 12.352C64.4067 12.88 64.0307 13.456 63.5987 14.08C63.1827 14.704 62.7667 15.216 62.3507 15.616C62.1267 15.84 61.9027 15.952 61.6787 15.952C61.2467 15.952 60.9267 15.848 60.7187 15.64C60.5107 15.432 60.4067 15.2 60.4067 14.944C60.4067 14.784 60.4307 14.616 60.4787 14.44C60.5267 14.248 60.5827 14.056 60.6467 13.864L61.2947 12.16C61.0547 12.464 60.8547 12.72 60.6947 12.928C60.5347 13.12 60.3907 13.304 60.2627 13.48C60.1507 13.64 60.0227 13.824 59.8787 14.032C59.7347 14.224 59.5827 14.416 59.4227 14.608C59.1187 15.008 58.8227 15.352 58.5347 15.64C58.2467 15.928 58.0227 16.072 57.8627 16.072ZM60.9377 21.664C60.7617 21.664 60.5937 21.64 60.4337 21.592C60.2577 21.56 60.0977 21.52 59.9537 21.472C59.8737 21.44 59.8497 21.4 59.8817 21.352C59.9137 21.304 59.9697 21.296 60.0497 21.328C60.1777 21.376 60.3297 21.416 60.5057 21.448C60.6657 21.48 60.8257 21.496 60.9857 21.496C62.0257 21.496 62.9857 21.112 63.8657 20.344C64.7457 19.576 65.5537 18.584 66.2897 17.368C66.8017 16.52 67.2897 15.584 67.7537 14.56C68.2177 13.536 68.6657 12.496 69.0977 11.44C69.5457 10.384 69.9697 9.4 70.3697 8.488C70.0017 8.488 69.6657 8.488 69.3617 8.488C69.0577 8.488 68.7617 8.496 68.4737 8.512C68.3617 8.512 68.2897 8.488 68.2577 8.44C68.2417 8.392 68.2337 8.36 68.2337 8.344C68.2337 8.232 68.2977 8.176 68.4257 8.176H70.5137C71.0257 7.04 71.5377 5.968 72.0497 4.96C72.5617 3.936 73.0897 3.04 73.6337 2.272C73.9057 1.888 74.1777 1.576 74.4497 1.336C74.7377 1.096 75.0977 0.895999 75.5297 0.735999C75.6737 0.895999 75.8577 1.04 76.0817 1.168C76.3057 1.28 76.5297 1.392 76.7537 1.504C76.9777 1.616 77.1537 1.768 77.2817 1.96C77.3457 2.04 77.3777 2.136 77.3777 2.248C77.3777 2.392 77.3137 2.552 77.1857 2.728C77.0577 2.904 76.8817 3.104 76.6577 3.328C76.4817 3.52 76.1697 3.872 75.7217 4.384C75.2897 4.88 74.8017 5.464 74.2577 6.136C73.7297 6.792 73.2177 7.464 72.7217 8.152H75.6737C75.8817 8.152 75.9857 8.168 75.9857 8.2C75.9857 8.248 75.9297 8.304 75.8177 8.368C75.7057 8.432 75.5937 8.472 75.4817 8.488C75.1297 8.504 74.7857 8.512 74.4497 8.512C74.1137 8.512 73.7617 8.512 73.3937 8.512H72.5057C72.2337 8.928 72.0177 9.32 71.8577 9.688C71.6977 10.04 71.6417 10.336 71.6897 10.576C71.7057 10.608 71.6977 10.64 71.6657 10.672C71.6337 10.688 71.6097 10.664 71.5937 10.6C71.5777 10.552 71.5697 10.472 71.5697 10.36C71.5697 9.928 71.7697 9.312 72.1697 8.512H71.4017C70.8577 9.68 70.3537 10.888 69.8897 12.136C69.4417 13.384 68.9377 14.6 68.3777 15.784C67.8337 16.968 67.1537 18.08 66.3377 19.12C65.7137 19.888 64.9377 20.504 64.0097 20.968C63.0657 21.432 62.0417 21.664 60.9377 21.664ZM71.5697 8.176L72.3377 8.152C72.6897 7.528 73.0897 6.904 73.5377 6.28C73.9857 5.656 74.4177 5.088 74.8337 4.576C75.2497 4.064 75.5777 3.672 75.8177 3.4C76.2017 2.936 76.4417 2.576 76.5377 2.32C76.5697 2.224 76.5857 2.144 76.5857 2.08C76.5857 1.888 76.4817 1.792 76.2737 1.792C75.8257 1.792 75.2657 2.168 74.5937 2.92C74.1937 3.368 73.7217 4.08 73.1777 5.056C72.6337 6.016 72.0977 7.056 71.5697 8.176ZM73.0982 16.36C72.6342 16.36 72.2342 16.184 71.8982 15.832C71.5782 15.48 71.4182 15 71.4182 14.392C71.4182 14.168 71.4422 13.928 71.4902 13.672C71.5542 13.4 71.6422 13.12 71.7542 12.832C71.9942 12.272 72.3222 11.736 72.7382 11.224C73.1702 10.712 73.6342 10.288 74.1302 9.952C74.6262 9.616 75.0982 9.448 75.5462 9.448C75.5942 9.448 75.6502 9.472 75.7142 9.52C75.7782 9.552 75.8262 9.584 75.8582 9.616L75.9782 9.736C76.1702 9.928 76.3542 10.04 76.5302 10.072C76.7222 10.104 76.8742 10.2 76.9862 10.36C77.1782 10.664 77.2742 11.032 77.2742 11.464C77.2742 12.056 77.0902 12.704 76.7222 13.408C76.3702 14.096 75.8902 14.72 75.2822 15.28C74.9782 15.552 74.6422 15.8 74.2742 16.024C73.9062 16.248 73.5142 16.36 73.0982 16.36ZM73.2662 16.096C73.6502 16.096 74.0422 15.968 74.4422 15.712C74.8422 15.44 75.2102 15.088 75.5462 14.656C75.8982 14.224 76.1942 13.768 76.4342 13.288C76.6902 12.808 76.8502 12.352 76.9142 11.92C76.9302 11.84 76.9382 11.76 76.9382 11.68C76.9542 11.584 76.9622 11.504 76.9622 11.44C76.9622 11.008 76.8582 10.696 76.6502 10.504C76.4422 10.296 76.1942 10.192 75.9062 10.192C75.6022 10.192 75.2902 10.288 74.9702 10.48C74.6662 10.656 74.2822 11.024 73.8182 11.584C73.3542 12.128 72.9382 12.696 72.5702 13.288C72.2342 13.816 72.0662 14.328 72.0662 14.824C72.0662 15.176 72.1622 15.48 72.3542 15.736C72.5622 15.976 72.8662 16.096 73.2662 16.096ZM80.0514 16.312C79.6674 16.312 79.4034 16.184 79.2594 15.928C79.1154 15.656 79.0674 15.368 79.1154 15.064C79.1794 14.648 79.2914 14.312 79.4514 14.056C79.6274 13.8 79.8354 13.52 80.0754 13.216C80.2674 12.944 80.4514 12.664 80.6274 12.376C80.8034 12.088 80.8274 11.92 80.6994 11.872C80.6194 11.936 80.4834 12.008 80.2914 12.088C80.0994 12.168 79.8994 12.208 79.6914 12.208C79.5154 12.208 79.3394 12.168 79.1634 12.088C79.0034 12.008 78.8834 11.864 78.8034 11.656C78.5954 12.04 78.3394 12.464 78.0354 12.928C77.7474 13.376 77.4514 13.808 77.1474 14.224C76.8594 14.64 76.6034 14.984 76.3794 15.256C76.3154 15.32 76.2594 15.344 76.2114 15.328C76.1474 15.312 76.1394 15.272 76.1874 15.208C76.5554 14.744 76.9794 14.16 77.4594 13.456C77.9394 12.752 78.3794 11.992 78.7794 11.176C79.1794 10.344 79.4274 9.536 79.5234 8.752C80.0674 9.008 80.3394 9.336 80.3394 9.736C80.3394 10.04 80.2114 10.352 79.9554 10.672C79.6994 10.976 79.3634 11.256 78.9474 11.512C79.1554 11.816 79.4194 11.968 79.7394 11.968C79.9794 11.968 80.2194 11.896 80.4594 11.752C80.7154 11.592 80.9154 11.416 81.0594 11.224C81.1874 11.08 81.2914 10.984 81.3714 10.936C81.4674 10.888 81.5474 10.864 81.6114 10.864C81.8354 10.864 81.9954 10.936 82.0914 11.08C82.2034 11.208 82.2194 11.352 82.1394 11.512C81.8514 11.912 81.5234 12.408 81.1554 13C80.7874 13.576 80.4594 14.12 80.1714 14.632C80.1234 14.696 80.0594 14.84 79.9794 15.064C79.8994 15.288 79.8594 15.488 79.8594 15.664C79.8594 15.904 79.9554 16.024 80.1474 16.024C80.3714 16.024 80.6274 15.896 80.9154 15.64C81.2034 15.368 81.4914 15.048 81.7794 14.68C82.0674 14.296 82.3234 13.928 82.5474 13.576C82.7874 13.224 82.9634 12.968 83.0754 12.808C83.1554 12.664 83.2194 12.592 83.2674 12.592C83.2834 12.592 83.2914 12.608 83.2914 12.64C83.2914 12.704 83.2674 12.776 83.2194 12.856C82.9794 13.256 82.7234 13.656 82.4514 14.056C82.1794 14.456 81.9074 14.84 81.6354 15.208C81.3794 15.544 81.1154 15.808 80.8434 16C80.5874 16.208 80.3234 16.312 80.0514 16.312ZM82.3504 23.56C82.1264 23.56 81.8864 23.48 81.6304 23.32C81.3584 23.16 81.1344 22.96 80.9584 22.72C80.7664 22.496 80.6704 22.264 80.6704 22.024C80.6704 21.768 80.8144 21.448 81.1024 21.064C81.3904 20.68 81.7424 20.288 82.1584 19.888C82.5744 19.488 82.9904 19.12 83.4064 18.784C83.8064 18.448 84.1264 18.192 84.3664 18.016C84.8624 17.68 85.3184 17.392 85.7344 17.152C86.1664 16.912 86.5904 16.688 87.0064 16.48C87.4224 16.288 87.9344 16.072 88.5424 15.832C89.1504 15.576 89.7024 15.368 90.1984 15.208C90.3264 14.984 90.4544 14.672 90.5824 14.272C90.7104 13.856 90.8224 13.432 90.9184 13C91.0144 12.568 91.0624 12.224 91.0624 11.968C91.0624 11.888 91.0544 11.8 91.0384 11.704C91.0224 11.608 90.9824 11.56 90.9184 11.56C90.8544 11.56 90.7824 11.6 90.7024 11.68C90.5104 11.888 90.2624 12.208 89.9584 12.64C89.6544 13.056 89.3264 13.496 88.9744 13.96C88.6224 14.408 88.2784 14.8 87.9424 15.136C87.6224 15.456 87.3344 15.616 87.0784 15.616C86.7584 15.616 86.5104 15.552 86.3344 15.424C86.1584 15.312 86.0704 15.096 86.0704 14.776C86.0704 14.488 86.1264 14.176 86.2384 13.84C86.3504 13.504 86.4784 13.192 86.6224 12.904C86.7664 12.616 86.8784 12.408 86.9584 12.28C86.8784 12.328 86.8384 12.336 86.8384 12.304C86.8544 12.272 86.8704 12.248 86.8864 12.232C86.9024 12.168 86.9424 12.088 87.0064 11.992C87.4224 11.384 87.7824 10.904 88.0864 10.552C88.4064 10.2 88.6224 10.024 88.7344 10.024C88.8624 10.024 88.9824 10.072 89.0944 10.168C89.2224 10.248 89.3664 10.352 89.5264 10.48C89.3504 10.624 89.1024 10.896 88.7824 11.296C88.4624 11.696 88.1344 12.144 87.7984 12.64C87.4784 13.12 87.2144 13.584 87.0064 14.032C86.9104 14.224 86.8384 14.392 86.7904 14.536C86.7584 14.68 86.7424 14.792 86.7424 14.872C86.7424 15.064 86.8224 15.16 86.9824 15.16C87.1264 15.16 87.3024 15.096 87.5104 14.968C87.7184 14.84 87.9184 14.672 88.1104 14.464C88.7184 13.84 89.2704 13.184 89.7664 12.496C90.2624 11.808 90.7424 11.112 91.2064 10.408C91.2384 10.408 91.2704 10.408 91.3024 10.408C91.3504 10.392 91.3904 10.384 91.4224 10.384C91.6464 10.384 91.8224 10.448 91.9504 10.576C92.0464 10.672 92.0944 10.872 92.0944 11.176C92.0944 11.48 92.0464 11.848 91.9504 12.28C91.8704 12.712 91.7664 13.144 91.6384 13.576C91.5264 13.992 91.4144 14.36 91.3024 14.68C91.1904 15 91.1104 15.2 91.0624 15.28C91.4944 15.344 91.8144 15.52 92.0224 15.808C92.2464 16.08 92.3584 16.4 92.3584 16.768C92.3584 16.832 92.3584 16.896 92.3584 16.96C92.3584 17.024 92.3504 17.088 92.3344 17.152C92.3184 17.264 92.2704 17.312 92.1904 17.296C92.1264 17.296 92.1024 17.248 92.1184 17.152C92.1504 16.736 92.0944 16.368 91.9504 16.048C91.8064 15.744 91.4624 15.592 90.9184 15.592C90.6304 16.152 90.2464 16.784 89.7664 17.488C89.3024 18.192 88.7664 18.896 88.1584 19.6C87.5664 20.32 86.9344 20.976 86.2624 21.568C85.6064 22.176 84.9424 22.656 84.2704 23.008C83.5984 23.376 82.9584 23.56 82.3504 23.56ZM82.0864 23.104C82.4704 23.104 82.9904 22.92 83.6464 22.552C84.1104 22.296 84.6064 21.936 85.1344 21.472C85.6624 21.008 86.1824 20.488 86.6944 19.912C87.2224 19.352 87.7104 18.792 88.1584 18.232C88.6224 17.672 89.0144 17.152 89.3344 16.672C89.6544 16.208 89.8784 15.848 90.0064 15.592C89.5744 15.688 89.0384 15.872 88.3984 16.144C87.7584 16.416 87.0784 16.76 86.3584 17.176C85.6544 17.608 84.9664 18.088 84.2944 18.616C83.6224 19.144 83.0304 19.704 82.5184 20.296C82.2304 20.648 81.9904 21.016 81.7984 21.4C81.5904 21.8 81.4864 22.152 81.4864 22.456C81.4864 22.888 81.6864 23.104 82.0864 23.104ZM94.4741 16.36C94.0101 16.36 93.6101 16.184 93.2741 15.832C92.9541 15.48 92.7941 15 92.7941 14.392C92.7941 14.168 92.8181 13.928 92.8661 13.672C92.9301 13.4 93.0181 13.12 93.1301 12.832C93.3701 12.272 93.6981 11.736 94.1141 11.224C94.5461 10.712 95.0101 10.288 95.5061 9.952C96.0021 9.616 96.4741 9.448 96.9221 9.448C96.9701 9.448 97.0261 9.472 97.0901 9.52C97.1541 9.552 97.2021 9.584 97.2341 9.616L97.3541 9.736C97.5461 9.928 97.7301 10.04 97.9061 10.072C98.0981 10.104 98.2501 10.2 98.3621 10.36C98.5541 10.664 98.6501 11.032 98.6501 11.464C98.6501 12.056 98.4661 12.704 98.0981 13.408C97.7461 14.096 97.2661 14.72 96.6581 15.28C96.3541 15.552 96.0181 15.8 95.6501 16.024C95.2821 16.248 94.8901 16.36 94.4741 16.36ZM94.6421 16.096C95.0261 16.096 95.4181 15.968 95.8181 15.712C96.2181 15.44 96.5861 15.088 96.9221 14.656C97.2741 14.224 97.5701 13.768 97.8101 13.288C98.0661 12.808 98.2261 12.352 98.2901 11.92C98.3061 11.84 98.3141 11.76 98.3141 11.68C98.3301 11.584 98.3381 11.504 98.3381 11.44C98.3381 11.008 98.2341 10.696 98.0261 10.504C97.8181 10.296 97.5701 10.192 97.2821 10.192C96.9781 10.192 96.6661 10.288 96.3461 10.48C96.0421 10.656 95.6581 11.024 95.1941 11.584C94.7301 12.128 94.3141 12.696 93.9461 13.288C93.6101 13.816 93.4421 14.328 93.4421 14.824C93.4421 15.176 93.5381 15.48 93.7301 15.736C93.9381 15.976 94.2421 16.096 94.6421 16.096ZM99.7474 16.072C99.3954 16.072 99.1234 15.992 98.9314 15.832C98.7554 15.672 98.6834 15.464 98.7154 15.208C98.7474 15.032 98.7954 14.832 98.8594 14.608C98.9234 14.384 99.0034 14.16 99.0994 13.936L99.6754 12.592C99.6594 12.56 99.6434 12.536 99.6274 12.52C99.6274 12.488 99.6274 12.464 99.6274 12.448C99.6114 12.384 99.6194 12.328 99.6514 12.28C100.067 11.64 100.451 11.104 100.803 10.672C101.155 10.24 101.387 10.024 101.499 10.024C101.723 10.024 101.987 10.176 102.291 10.48C102.083 10.736 101.867 11.024 101.643 11.344C101.419 11.648 101.203 11.96 100.995 12.28C100.771 12.616 100.531 12.984 100.275 13.384C100.035 13.768 99.8674 14.12 99.7714 14.44C99.6754 14.728 99.6274 14.952 99.6274 15.112C99.6274 15.336 99.7074 15.448 99.8674 15.448C100.075 15.448 100.379 15.232 100.779 14.8C101.051 14.512 101.347 14.16 101.667 13.744C102.003 13.312 102.323 12.88 102.627 12.448C102.947 12 103.243 11.584 103.515 11.2C103.803 10.8 104.043 10.48 104.235 10.24C104.411 10.016 104.571 9.904 104.715 9.904C104.923 9.904 105.163 10.08 105.435 10.432C105.211 10.752 104.939 11.168 104.619 11.68C104.299 12.176 104.003 12.688 103.731 13.216C103.475 13.728 103.307 14.184 103.227 14.584C103.211 14.648 103.195 14.712 103.179 14.776C103.179 14.84 103.179 14.912 103.179 14.992C103.179 15.456 103.299 15.688 103.539 15.688C103.667 15.688 103.819 15.616 103.995 15.472C104.187 15.328 104.371 15.16 104.547 14.968C104.723 14.776 104.859 14.616 104.955 14.488C105.467 13.8 105.955 13.088 106.419 12.352C106.515 12.208 106.579 12.136 106.611 12.136C106.643 12.136 106.651 12.168 106.635 12.232C106.635 12.28 106.627 12.32 106.611 12.352C106.291 12.88 105.915 13.456 105.483 14.08C105.067 14.704 104.651 15.216 104.235 15.616C104.011 15.84 103.787 15.952 103.563 15.952C103.131 15.952 102.811 15.848 102.603 15.64C102.395 15.432 102.291 15.2 102.291 14.944C102.291 14.784 102.315 14.616 102.363 14.44C102.411 14.248 102.467 14.056 102.531 13.864L103.179 12.16C102.939 12.464 102.739 12.72 102.579 12.928C102.419 13.12 102.275 13.304 102.147 13.48C102.035 13.64 101.907 13.824 101.763 14.032C101.619 14.224 101.467 14.416 101.307 14.608C101.003 15.008 100.707 15.352 100.419 15.64C100.131 15.928 99.9074 16.072 99.7474 16.072ZM108.031 16.312C107.647 16.312 107.383 16.184 107.239 15.928C107.095 15.656 107.047 15.368 107.095 15.064C107.159 14.648 107.271 14.312 107.431 14.056C107.607 13.8 107.815 13.52 108.055 13.216C108.247 12.944 108.431 12.664 108.607 12.376C108.783 12.088 108.807 11.92 108.679 11.872C108.599 11.936 108.463 12.008 108.271 12.088C108.079 12.168 107.879 12.208 107.671 12.208C107.495 12.208 107.319 12.168 107.143 12.088C106.983 12.008 106.863 11.864 106.783 11.656C106.575 12.04 106.319 12.464 106.015 12.928C105.727 13.376 105.431 13.808 105.127 14.224C104.839 14.64 104.583 14.984 104.359 15.256C104.295 15.32 104.239 15.344 104.191 15.328C104.127 15.312 104.119 15.272 104.167 15.208C104.535 14.744 104.959 14.16 105.439 13.456C105.919 12.752 106.359 11.992 106.759 11.176C107.159 10.344 107.407 9.536 107.503 8.752C108.047 9.008 108.319 9.336 108.319 9.736C108.319 10.04 108.191 10.352 107.935 10.672C107.679 10.976 107.343 11.256 106.927 11.512C107.135 11.816 107.399 11.968 107.719 11.968C107.959 11.968 108.199 11.896 108.439 11.752C108.695 11.592 108.895 11.416 109.039 11.224C109.167 11.08 109.271 10.984 109.351 10.936C109.447 10.888 109.527 10.864 109.591 10.864C109.815 10.864 109.975 10.936 110.071 11.08C110.183 11.208 110.199 11.352 110.119 11.512C109.831 11.912 109.503 12.408 109.135 13C108.767 13.576 108.439 14.12 108.151 14.632C108.103 14.696 108.039 14.84 107.959 15.064C107.879 15.288 107.839 15.488 107.839 15.664C107.839 15.904 107.935 16.024 108.127 16.024C108.351 16.024 108.607 15.896 108.895 15.64C109.183 15.368 109.471 15.048 109.759 14.68C110.047 14.296 110.303 13.928 110.527 13.576C110.767 13.224 110.943 12.968 111.055 12.808C111.135 12.664 111.199 12.592 111.247 12.592C111.263 12.592 111.271 12.608 111.271 12.64C111.271 12.704 111.247 12.776 111.199 12.856C110.959 13.256 110.703 13.656 110.431 14.056C110.159 14.456 109.887 14.84 109.615 15.208C109.359 15.544 109.095 15.808 108.823 16C108.567 16.208 108.303 16.312 108.031 16.312ZM115.85 16.36C115.386 16.36 114.986 16.184 114.65 15.832C114.33 15.48 114.17 15 114.17 14.392C114.17 14.168 114.194 13.928 114.242 13.672C114.306 13.4 114.394 13.12 114.506 12.832C114.746 12.272 115.074 11.736 115.49 11.224C115.922 10.712 116.386 10.288 116.882 9.952C117.378 9.616 117.85 9.448 118.298 9.448C118.346 9.448 118.402 9.472 118.466 9.52C118.53 9.552 118.578 9.584 118.61 9.616L118.73 9.736C118.922 9.928 119.106 10.04 119.282 10.072C119.474 10.104 119.626 10.2 119.738 10.36C119.93 10.664 120.026 11.032 120.026 11.464C120.026 12.056 119.842 12.704 119.474 13.408C119.122 14.096 118.642 14.72 118.034 15.28C117.73 15.552 117.394 15.8 117.026 16.024C116.658 16.248 116.266 16.36 115.85 16.36ZM116.018 16.096C116.402 16.096 116.794 15.968 117.194 15.712C117.594 15.44 117.962 15.088 118.298 14.656C118.65 14.224 118.946 13.768 119.186 13.288C119.442 12.808 119.602 12.352 119.666 11.92C119.682 11.84 119.69 11.76 119.69 11.68C119.706 11.584 119.714 11.504 119.714 11.44C119.714 11.008 119.61 10.696 119.402 10.504C119.194 10.296 118.946 10.192 118.658 10.192C118.354 10.192 118.042 10.288 117.722 10.48C117.418 10.656 117.034 11.024 116.57 11.584C116.106 12.128 115.69 12.696 115.322 13.288C114.986 13.816 114.818 14.328 114.818 14.824C114.818 15.176 114.914 15.48 115.106 15.736C115.314 15.976 115.618 16.096 116.018 16.096ZM122.803 16.312C122.419 16.312 122.155 16.184 122.011 15.928C121.867 15.656 121.819 15.368 121.867 15.064C121.931 14.648 122.043 14.312 122.203 14.056C122.379 13.8 122.587 13.52 122.827 13.216C123.019 12.944 123.203 12.664 123.379 12.376C123.555 12.088 123.579 11.92 123.451 11.872C123.371 11.936 123.235 12.008 123.043 12.088C122.851 12.168 122.651 12.208 122.443 12.208C122.267 12.208 122.091 12.168 121.915 12.088C121.755 12.008 121.635 11.864 121.555 11.656C121.347 12.04 121.091 12.464 120.787 12.928C120.499 13.376 120.203 13.808 119.899 14.224C119.611 14.64 119.355 14.984 119.131 15.256C119.067 15.32 119.011 15.344 118.963 15.328C118.899 15.312 118.891 15.272 118.939 15.208C119.307 14.744 119.731 14.16 120.211 13.456C120.691 12.752 121.131 11.992 121.531 11.176C121.931 10.344 122.179 9.536 122.275 8.752C122.819 9.008 123.091 9.336 123.091 9.736C123.091 10.04 122.963 10.352 122.707 10.672C122.451 10.976 122.115 11.256 121.699 11.512C121.907 11.816 122.171 11.968 122.491 11.968C122.731 11.968 122.971 11.896 123.211 11.752C123.467 11.592 123.667 11.416 123.811 11.224C123.939 11.08 124.043 10.984 124.123 10.936C124.219 10.888 124.299 10.864 124.363 10.864C124.587 10.864 124.747 10.936 124.843 11.08C124.955 11.208 124.971 11.352 124.891 11.512C124.603 11.912 124.275 12.408 123.907 13C123.539 13.576 123.211 14.12 122.923 14.632C122.875 14.696 122.811 14.84 122.731 15.064C122.651 15.288 122.611 15.488 122.611 15.664C122.611 15.904 122.707 16.024 122.899 16.024C123.123 16.024 123.379 15.896 123.667 15.64C123.955 15.368 124.243 15.048 124.531 14.68C124.819 14.296 125.075 13.928 125.299 13.576C125.539 13.224 125.715 12.968 125.827 12.808C125.907 12.664 125.971 12.592 126.019 12.592C126.035 12.592 126.043 12.608 126.043 12.64C126.043 12.704 126.019 12.776 125.971 12.856C125.731 13.256 125.475 13.656 125.203 14.056C124.931 14.456 124.659 14.84 124.387 15.208C124.131 15.544 123.867 15.808 123.595 16C123.339 16.208 123.075 16.312 122.803 16.312ZM126.231 16.264C125.991 16.264 125.767 16.184 125.559 16.024C125.351 15.864 125.183 15.68 125.055 15.472C124.927 15.264 124.863 15.088 124.863 14.944C124.863 14.4 125.031 13.832 125.367 13.24C125.703 12.632 126.127 12.064 126.639 11.536C127.167 11.008 127.719 10.584 128.295 10.264C128.871 9.928 129.407 9.76 129.903 9.76C129.983 9.76 130.063 9.776 130.143 9.808C130.223 9.84 130.327 9.912 130.455 10.024C131.095 8.696 131.799 7.392 132.567 6.112C133.335 4.816 134.079 3.744 134.799 2.896C135.423 2.144 136.055 1.568 136.695 1.168C137.351 0.751999 138.023 0.463999 138.711 0.303999C139.191 0.175999 139.687 0.111999 140.199 0.111999C140.279 0.111999 140.367 0.111999 140.463 0.111999C140.559 0.111999 140.647 0.119999 140.727 0.136C140.887 0.151999 141.071 0.199999 141.279 0.279999C141.487 0.359999 141.607 0.447999 141.639 0.543999C141.671 0.607999 141.671 0.647999 141.639 0.663999C141.607 0.679999 141.567 0.664 141.519 0.615999C141.407 0.52 141.263 0.455999 141.087 0.423999C140.927 0.375999 140.751 0.352 140.559 0.352C140.255 0.352 139.951 0.392 139.647 0.472C139.343 0.552 139.103 0.631999 138.927 0.711999C138.399 0.984 137.855 1.368 137.295 1.864C136.735 2.344 136.183 2.896 135.639 3.52C134.855 4.416 134.111 5.392 133.407 6.448C132.719 7.504 132.103 8.56 131.559 9.616C131.031 10.672 130.615 11.656 130.311 12.568C130.023 13.48 129.879 14.248 129.879 14.872C129.879 14.968 129.879 15.064 129.879 15.16C129.895 15.24 129.911 15.32 129.927 15.4C129.975 15.608 130.055 15.752 130.167 15.832C130.279 15.912 130.407 15.952 130.551 15.952C130.711 15.952 130.863 15.92 131.007 15.856C131.167 15.776 131.303 15.688 131.415 15.592C131.719 15.32 132.063 14.928 132.447 14.416C132.847 13.904 133.223 13.392 133.575 12.88C133.639 12.8 133.679 12.776 133.695 12.808C133.711 12.84 133.703 12.872 133.671 12.904C133.607 13.016 133.463 13.24 133.239 13.576C133.015 13.912 132.759 14.272 132.471 14.656C132.199 15.04 131.935 15.36 131.679 15.616C131.263 16.032 130.839 16.24 130.407 16.24C130.087 16.24 129.815 16.104 129.591 15.832C129.367 15.56 129.255 15.176 129.255 14.68C129.255 14.52 129.271 14.256 129.303 13.888C129.335 13.52 129.383 13.208 129.447 12.952C129.079 13.56 128.695 14.12 128.295 14.632C127.911 15.128 127.535 15.528 127.167 15.832C126.815 16.12 126.503 16.264 126.231 16.264ZM126.063 15.952C126.207 15.952 126.367 15.888 126.543 15.76C126.831 15.536 127.151 15.232 127.503 14.848C127.871 14.464 128.231 14.056 128.583 13.624C128.951 13.176 129.271 12.752 129.543 12.352C129.623 12.096 129.735 11.792 129.879 11.44C130.023 11.088 130.151 10.768 130.263 10.48C130.055 10.448 129.815 10.48 129.543 10.576C129.287 10.656 129.103 10.728 128.991 10.792C128.559 11.048 128.103 11.408 127.623 11.872C127.159 12.32 126.743 12.808 126.375 13.336C126.007 13.848 125.735 14.344 125.559 14.824C125.511 14.936 125.487 15.064 125.487 15.208C125.487 15.4 125.535 15.576 125.631 15.736C125.743 15.88 125.887 15.952 126.063 15.952ZM134.631 16.312C134.199 16.312 133.799 16.16 133.431 15.856C133.079 15.536 132.903 15.072 132.903 14.464C132.903 13.984 133.031 13.464 133.287 12.904C133.543 12.344 133.871 11.808 134.271 11.296C134.687 10.784 135.127 10.36 135.591 10.024C136.055 9.688 136.487 9.512 136.887 9.496C136.951 9.56 137.023 9.608 137.103 9.64C137.199 9.672 137.287 9.704 137.367 9.736L137.991 9.88C138.343 9.976 138.519 10.2 138.519 10.552C138.519 10.76 138.447 10.984 138.303 11.224C138.175 11.464 137.975 11.672 137.703 11.848C137.559 11.944 137.399 12.04 137.223 12.136C137.063 12.232 136.895 12.328 136.719 12.424L135.639 13C135.303 13.176 135.007 13.368 134.751 13.576C134.495 13.768 134.311 13.976 134.199 14.2C134.199 14.2 134.175 14.208 134.127 14.224C134.095 14.224 134.087 14.192 134.103 14.128C134.215 13.856 134.431 13.584 134.751 13.312C135.087 13.024 135.423 12.776 135.759 12.568C135.919 12.44 136.079 12.328 136.239 12.232C136.415 12.136 136.583 12.032 136.743 11.92C136.903 11.808 137.055 11.696 137.199 11.584C137.359 11.456 137.495 11.336 137.607 11.224C137.735 11.096 137.823 10.968 137.871 10.84C137.935 10.712 137.967 10.6 137.967 10.504C137.967 10.2 137.791 10.048 137.439 10.048C137.215 10.048 136.959 10.144 136.671 10.336C136.319 10.576 135.983 10.864 135.663 11.2C135.343 11.52 135.039 11.872 134.751 12.256C134.447 12.672 134.175 13.152 133.935 13.696C133.711 14.24 133.599 14.696 133.599 15.064C133.599 15.432 133.703 15.696 133.911 15.856C134.135 16 134.391 16.072 134.679 16.072C135.079 16.072 135.463 15.968 135.831 15.76C136.103 15.6 136.359 15.4 136.599 15.16C136.839 14.904 137.039 14.68 137.199 14.488C137.327 14.328 137.471 14.136 137.631 13.912C137.807 13.688 137.927 13.52 137.991 13.408C138.023 13.376 138.047 13.376 138.063 13.408C138.079 13.44 138.087 13.464 138.087 13.48C138.023 13.592 137.911 13.776 137.751 14.032C137.607 14.272 137.391 14.576 137.103 14.944C136.767 15.376 136.415 15.712 136.047 15.952C135.679 16.192 135.207 16.312 134.631 16.312ZM140.271 16.312C139.887 16.312 139.623 16.184 139.479 15.928C139.335 15.656 139.287 15.368 139.335 15.064C139.399 14.648 139.511 14.312 139.671 14.056C139.847 13.8 140.055 13.52 140.295 13.216C140.487 12.944 140.671 12.664 140.847 12.376C141.023 12.088 141.047 11.92 140.919 11.872C140.839 11.936 140.703 12.008 140.511 12.088C140.319 12.168 140.119 12.208 139.911 12.208C139.735 12.208 139.559 12.168 139.383 12.088C139.223 12.008 139.103 11.864 139.023 11.656C138.815 12.04 138.559 12.464 138.255 12.928C137.967 13.376 137.671 13.808 137.367 14.224C137.079 14.64 136.823 14.984 136.599 15.256C136.535 15.32 136.479 15.344 136.431 15.328C136.367 15.312 136.359 15.272 136.407 15.208C136.775 14.744 137.199 14.16 137.679 13.456C138.159 12.752 138.599 11.992 138.999 11.176C139.399 10.344 139.647 9.536 139.743 8.752C140.287 9.008 140.559 9.336 140.559 9.736C140.559 10.04 140.431 10.352 140.175 10.672C139.919 10.976 139.583 11.256 139.167 11.512C139.375 11.816 139.639 11.968 139.959 11.968C140.199 11.968 140.439 11.896 140.679 11.752C140.935 11.592 141.135 11.416 141.279 11.224C141.407 11.08 141.511 10.984 141.591 10.936C141.687 10.888 141.767 10.864 141.831 10.864C142.055 10.864 142.215 10.936 142.311 11.08C142.423 11.208 142.439 11.352 142.359 11.512C142.071 11.912 141.743 12.408 141.375 13C141.007 13.576 140.679 14.12 140.391 14.632C140.343 14.696 140.279 14.84 140.199 15.064C140.119 15.288 140.079 15.488 140.079 15.664C140.079 15.904 140.175 16.024 140.367 16.024C140.591 16.024 140.847 15.896 141.135 15.64C141.423 15.368 141.711 15.048 141.999 14.68C142.287 14.296 142.543 13.928 142.767 13.576C143.007 13.224 143.183 12.968 143.295 12.808C143.375 12.664 143.439 12.592 143.487 12.592C143.503 12.592 143.511 12.608 143.511 12.64C143.511 12.704 143.487 12.776 143.439 12.856C143.199 13.256 142.943 13.656 142.671 14.056C142.399 14.456 142.127 14.84 141.855 15.208C141.599 15.544 141.335 15.808 141.063 16C140.807 16.208 140.543 16.312 140.271 16.312ZM145.379 13.264C145.283 13.264 145.187 13.248 145.091 13.216C144.931 13.136 144.811 13.064 144.731 13C144.667 12.92 144.635 12.816 144.635 12.688C144.635 12.576 144.659 12.424 144.707 12.232C144.851 11.576 145.107 10.856 145.475 10.072C145.843 9.272 146.267 8.464 146.747 7.648C147.227 6.832 147.683 6.08 148.115 5.392C148.179 5.312 148.203 5.232 148.187 5.152C148.187 5.056 148.195 4.976 148.211 4.912C148.291 4.56 148.451 4.192 148.691 3.808C148.947 3.408 149.227 3.024 149.531 2.656C149.851 2.288 150.147 1.984 150.419 1.744C150.483 1.728 150.563 1.72 150.659 1.72C150.755 1.72 150.859 1.72 150.971 1.72C151.227 1.72 151.459 1.744 151.667 1.792C151.891 1.84 151.939 1.944 151.811 2.104C150.771 3.512 149.891 4.712 149.171 5.704C148.451 6.68 147.851 7.528 147.371 8.248C146.891 8.968 146.499 9.64 146.195 10.264C145.891 10.872 145.627 11.52 145.403 12.208C145.371 12.304 145.355 12.376 145.355 12.424C145.355 12.52 145.395 12.568 145.475 12.568C145.523 12.568 145.579 12.56 145.643 12.544C145.707 12.528 145.779 12.488 145.859 12.424C146.003 12.328 146.147 12.192 146.291 12.016C146.435 11.84 146.563 11.696 146.675 11.584C146.723 11.536 146.763 11.512 146.795 11.512C146.875 11.512 146.875 11.584 146.795 11.728C146.747 11.824 146.643 11.992 146.483 12.232C146.339 12.472 146.187 12.696 146.027 12.904C145.867 13.112 145.747 13.224 145.667 13.24C145.651 13.24 145.611 13.248 145.547 13.264C145.499 13.264 145.443 13.264 145.379 13.264ZM144.563 16.264C144.403 16.264 144.235 16.184 144.059 16.024C143.883 15.88 143.779 15.688 143.747 15.448C143.747 15.416 143.739 15.392 143.723 15.376C143.723 15.344 143.723 15.32 143.723 15.304C143.723 15.224 143.747 15.168 143.795 15.136C143.843 15.104 143.915 15.064 144.011 15.016C144.203 14.92 144.363 14.832 144.491 14.752C144.635 14.656 144.811 14.552 145.019 14.44C145.083 14.408 145.123 14.392 145.139 14.392C145.187 14.392 145.211 14.432 145.211 14.512C145.211 14.592 145.195 14.688 145.163 14.8C145.131 14.912 145.099 14.984 145.067 15.016C145.051 15.032 145.003 15.112 144.923 15.256C144.843 15.384 144.771 15.528 144.707 15.688C144.659 15.832 144.651 15.936 144.683 16C144.699 16.016 144.707 16.032 144.707 16.048C144.707 16.08 144.691 16.12 144.659 16.168C144.627 16.232 144.595 16.264 144.563 16.264Z" fill="#FF5748"/>
</svg>
