<svg width="35" height="41" viewBox="0 0 35 41" fill="none" xmlns="http://www.w3.org/2000/svg">
<path fill-rule="evenodd" clip-rule="evenodd" d="M19.4709 0.179415C19.4482 0.277264 19.3932 0.386892 19.3488 0.422938C19.3044 0.458984 19.2074 0.621678 19.1333 0.7845C19.0592 0.947258 18.9534 1.11791 18.8982 1.16367C18.843 1.20942 18.7979 1.30423 18.7979 1.37438C18.7979 1.53739 18.5639 1.84123 18.5079 1.75076C18.4795 1.70468 18.4259 1.70546 18.3368 1.75309C18.127 1.86537 18.0136 1.72254 18.0638 1.409C18.1206 1.05417 17.9573 1.10523 17.8367 1.48012L17.7491 1.75225L17.3568 1.74053C17.027 1.73063 16.9468 1.75056 16.8536 1.86563C16.7579 1.98393 16.6472 2.00845 16.0393 2.04612C15.6523 2.07006 15.3029 2.11543 15.2629 2.14688C15.2159 2.1839 15.1527 2.14662 15.0835 2.04107C14.9482 1.8345 14.8503 1.83262 14.8503 2.03667C14.8503 2.17399 14.8007 2.20946 14.4782 2.30258C14.2735 2.3616 14.0556 2.4359 13.9938 2.46767C13.9319 2.49938 13.8227 2.52533 13.7511 2.52533C13.6794 2.52533 13.6207 2.54979 13.6207 2.57963C13.6207 2.66764 13.3249 2.77655 13.2356 2.72142C13.1303 2.65638 12.65 2.84295 12.65 2.94889C12.65 3.04363 12.5058 3.10777 12.2926 3.10777C12.2087 3.10777 12.1219 3.13689 12.0999 3.17248C12.0779 3.20807 11.9774 3.2372 11.8765 3.2372C11.7732 3.2372 11.6769 3.27958 11.6559 3.33427C11.6354 3.38766 11.5699 3.43134 11.5104 3.43134C11.3707 3.43134 10.838 3.6968 10.838 3.76637C10.838 3.79568 10.787 3.81982 10.7247 3.82002C10.6625 3.82028 10.5281 3.86396 10.4261 3.91709C10.3242 3.97029 10.2077 4.01384 10.1673 4.01384C10.1268 4.0139 10.0092 4.08671 9.90571 4.17563C9.8023 4.26461 9.69519 4.33735 9.66769 4.33735C9.64018 4.33735 9.57916 4.37385 9.53211 4.41837C9.48513 4.46296 9.33492 4.55764 9.19838 4.6287C9.06183 4.69982 8.92379 4.8066 8.8915 4.866C8.85927 4.92541 8.74803 4.99265 8.64422 5.01543C8.54042 5.03821 8.34362 5.1578 8.20688 5.28109C7.81995 5.63003 7.73562 5.69636 7.67919 5.69636C7.65027 5.69636 7.56348 5.75519 7.48628 5.82715C7.30889 5.99243 7.16083 5.91387 7.01418 5.57657C6.68679 4.82381 6.60396 4.66422 6.52494 4.63387C6.47679 4.61536 6.43738 4.54793 6.43738 4.48399C6.43738 4.38342 6.2721 4.02329 5.95428 3.43134C5.90652 3.34236 5.83547 3.18944 5.79644 3.09159C5.75742 2.99374 5.69905 2.84813 5.66669 2.76801C5.63433 2.68789 5.59227 2.57335 5.57324 2.51336C5.55422 2.45343 5.47442 2.36995 5.39592 2.32795C5.25342 2.25172 5.25323 2.25256 5.29529 2.69586C5.32325 2.99063 5.40181 3.27078 5.52885 3.52841C5.73962 3.95605 5.80744 4.12638 5.82518 4.27263C5.84394 4.42711 6.1802 5.45271 6.2741 5.64148C6.3383 5.77072 6.34102 5.83175 6.28517 5.88824C6.22919 5.9448 6.2367 5.97787 6.31565 6.02246C6.37325 6.05495 6.45718 6.1704 6.50216 6.27893C6.57192 6.44731 6.56843 6.49333 6.47828 6.59292C6.42017 6.65712 6.37266 6.75924 6.37266 6.81981C6.37266 6.95921 6.20389 7.02761 6.09109 6.93397C6.04391 6.89482 5.9704 6.74623 5.92775 6.60386C5.85378 6.35704 5.57454 5.73966 5.36272 5.35493C5.3083 5.25611 5.24688 5.06681 5.22618 4.93428C5.20547 4.80174 5.11163 4.59135 5.0176 4.46678C4.92363 4.3422 4.8098 4.09506 4.76456 3.91754C4.71933 3.74003 4.64044 3.54847 4.58912 3.49178C4.53787 3.43516 4.49593 3.35828 4.49593 3.32094C4.49593 3.2836 4.45225 3.21681 4.39886 3.17248C4.34547 3.12815 4.30179 3.02441 4.30179 2.9419C4.30179 2.85933 4.27267 2.77384 4.23707 2.75183C4.20148 2.72983 4.17236 2.62926 4.17236 2.52837C4.17236 2.32342 3.83131 1.90607 3.72007 1.9748C3.68292 1.99778 3.66803 2.04165 3.687 2.07239C3.70602 2.10307 3.73728 2.2943 3.7565 2.49731C3.77579 2.70032 3.82937 2.98623 3.87558 3.13268C3.99543 3.51269 4.08939 3.847 4.23235 4.40206C4.38592 4.99828 4.5301 5.41492 4.69435 5.73713C4.7632 5.87213 4.81951 6.03359 4.81951 6.09591C4.81951 6.2322 5.0484 6.88925 5.18055 7.13232C5.23258 7.22803 5.26837 7.32996 5.26009 7.35882C5.2518 7.38769 5.28021 7.47473 5.32325 7.55225C5.41443 7.7165 5.37528 7.84897 5.16981 8.07062C5.08833 8.15857 5.00369 8.31252 4.98162 8.41277C4.95961 8.51308 4.885 8.64633 4.81582 8.70891C4.74664 8.77155 4.69008 8.87309 4.69008 8.93469C4.69008 8.99624 4.61481 9.09597 4.52285 9.15622C4.43096 9.21646 4.31551 9.36188 4.26645 9.47934C4.21733 9.59686 4.13243 9.71017 4.07768 9.73114C4.023 9.75217 3.97821 9.82401 3.97821 9.8908C3.97821 9.95758 3.92042 10.0645 3.84982 10.1284C3.7721 10.1988 3.70486 10.3694 3.67949 10.5605C3.65645 10.7343 3.61503 10.8904 3.58747 10.9074C3.5599 10.9245 3.55161 10.9929 3.56902 11.0595C3.59277 11.1502 3.54999 11.1984 3.39921 11.251C3.25807 11.3002 3.16287 11.399 3.08152 11.5808C3.01759 11.7235 2.8899 11.8996 2.79775 11.9721C2.70113 12.0481 2.55824 12.2922 2.46013 12.549C2.36662 12.7938 2.23305 13.0457 2.16341 13.1087C2.09378 13.1718 2.03677 13.2735 2.03677 13.3349C2.03677 13.3961 1.99308 13.4825 1.93969 13.5269C1.8863 13.5712 1.84262 13.6452 1.84262 13.6913C1.84262 13.7374 1.80159 13.8577 1.7515 13.9584C1.36923 14.727 1.16616 15.184 1.1835 15.237C1.1947 15.2713 1.13186 15.4466 1.04385 15.6265C0.850866 16.0212 0.648179 16.6611 0.55583 17.1673C0.51849 17.3721 0.457852 17.5959 0.42103 17.6646C0.384272 17.7333 0.354179 17.8626 0.354179 17.9517C0.354179 18.041 0.327322 18.1306 0.294512 18.1509C0.261766 18.1711 0.216595 18.3694 0.194269 18.5915C0.171942 18.8136 0.13706 19.1554 0.11674 19.3512C0.0964195 19.547 0.0713101 19.8673 0.0610205 20.0631C0.0506661 20.2588 0.0289218 20.6083 0.0126136 20.8397C-0.0640735 21.9284 0.204299 22.6806 0.944444 23.4514C1.60156 24.1358 1.97205 24.5918 1.97205 24.7164C1.97205 24.7552 2.07398 24.895 2.19855 25.0271C2.32313 25.1592 2.42506 25.2874 2.42506 25.312C2.42506 25.3657 2.84331 25.9962 2.99998 26.1786C3.06107 26.2498 3.19393 26.4682 3.29521 26.664C3.39649 26.8598 3.5188 27.0659 3.56701 27.1221C3.61516 27.1783 3.65464 27.2705 3.65464 27.327C3.65464 27.3836 3.67671 27.4395 3.70369 27.4514C3.77313 27.4819 4.29803 28.4061 4.33926 28.5704C4.37226 28.7019 4.34528 28.849 4.16097 29.5424C4.0771 29.8579 4.06914 29.8656 3.78407 29.9069C2.82778 30.0452 2.38312 30.0943 1.76173 30.1305C1.37913 30.1528 1.06604 30.1954 1.06604 30.2252C1.06604 30.3062 1.2378 30.3337 1.81026 30.3441C2.09501 30.3494 2.47029 30.3864 2.64424 30.4265L2.96051 30.4993L2.69647 30.6203C2.55125 30.6869 2.41535 30.7691 2.39445 30.8029C2.33355 30.9015 2.87981 31.0163 3.20468 30.9732C3.36834 30.9515 3.51887 30.9504 3.53919 30.9707C3.58455 31.0161 3.42277 31.351 3.31353 31.4378C3.26978 31.4726 2.91365 31.5243 2.52213 31.5528C1.39221 31.6348 1.36897 31.6372 1.13076 31.6964L0.904256 31.7527L1.13076 31.7965C1.25533 31.8207 1.54655 31.844 1.77791 31.8484C2.00926 31.8528 2.22858 31.8803 2.26521 31.9096C2.3019 31.9389 2.49119 31.9719 2.68586 31.9829C2.88058 31.994 3.03512 32.0321 3.0293 32.0677C2.93825 32.6271 2.83994 33.0172 2.74235 33.2062C2.63557 33.4131 2.59118 33.862 2.6645 33.9931C2.73413 34.1176 2.94491 33.8892 2.98355 33.6474C3.02969 33.359 3.26027 33.007 3.26421 33.219C3.26538 33.2826 3.20655 33.4519 3.13355 33.5951C3.06049 33.7383 3.00697 33.9046 3.01467 33.9647C3.02231 34.0247 3.00561 34.1852 2.97759 34.3214C2.94951 34.4575 2.95203 34.5938 2.98322 34.6242C3.06321 34.7025 3.40348 34.3909 3.42749 34.2174C3.45279 34.0343 3.67658 33.4046 3.85461 33.0154C3.93026 32.8501 4.03594 32.6129 4.08939 32.4883C4.25959 32.0918 4.2792 32.0681 4.45393 32.0472C4.68011 32.0202 4.6761 32.1263 4.43122 32.6501C4.32444 32.8785 4.23707 33.098 4.23707 33.1379C4.23707 33.1778 4.16737 33.3902 4.08221 33.6098C3.88858 34.1092 3.82678 34.4298 3.92418 34.4298C4.01523 34.4298 4.16757 34.2327 4.17029 34.1113C4.17145 34.0607 4.21183 33.9733 4.26005 33.9172C4.35887 33.802 4.62523 33.2983 4.79317 32.909C4.85458 32.7666 4.97683 32.5409 5.06491 32.4074L5.22501 32.1648H5.98509H6.74523L7.01794 32.5182C7.16788 32.7126 7.34617 32.8893 7.41406 32.9109C7.48194 32.9324 7.53753 32.9799 7.53753 33.0164C7.53753 33.1033 8.27528 33.8473 8.36135 33.8473C8.39785 33.8473 8.46542 33.8928 8.51156 33.9484C8.63005 34.0911 9.52324 34.6995 9.78243 34.814C9.86034 34.8484 9.95211 34.9289 9.98641 34.9929C10.0247 35.0644 10.1945 35.1427 10.4271 35.1959C10.6442 35.2456 10.876 35.349 10.9706 35.4383C11.1401 35.5983 11.347 35.6394 11.5928 35.5619C11.6974 35.529 11.7518 35.5529 11.8071 35.6564C11.856 35.7476 11.9205 35.7826 11.996 35.7586C12.0759 35.7333 12.1331 35.7716 12.1848 35.885C12.2274 35.9783 12.3131 36.0477 12.386 36.0477C12.4558 36.0477 12.5272 36.0706 12.5445 36.0988C12.57 36.1399 12.8408 36.1476 13.1839 36.1167C13.2106 36.1143 13.2354 36.0614 13.2389 35.9991C13.243 35.9266 13.2621 35.9442 13.2919 36.0477C13.3218 36.1515 13.3812 36.2056 13.4575 36.1988C13.5229 36.1929 13.6496 36.2158 13.739 36.2499C13.8285 36.2839 14.0277 36.3142 14.1818 36.3173C14.336 36.3204 14.462 36.3451 14.462 36.3721C14.462 36.4206 14.7292 36.4898 15.0445 36.5229C15.1334 36.5322 15.2573 36.5633 15.3196 36.592C15.382 36.6206 15.504 36.6263 15.5907 36.6045C15.6774 36.5827 15.7649 36.5916 15.7851 36.6242C15.8053 36.6568 15.938 36.7032 16.0802 36.7272C16.2224 36.7512 16.3388 36.8048 16.3388 36.8463C16.3388 36.8878 16.2805 37.1254 16.2093 37.3743C16.1381 37.6232 16.0799 37.9047 16.0799 37.9998C16.0799 38.2264 16.0163 38.3857 15.9437 38.3408C15.8573 38.2874 15.8737 38.4689 15.9634 38.5586C16.0061 38.6013 16.0716 38.6354 16.109 38.6344C16.184 38.6322 16.727 37.5566 16.727 37.4104C16.727 37.36 16.7617 37.2231 16.8039 37.1061C16.8859 36.8794 17.0324 36.7802 17.1344 36.8821C17.1692 36.9169 17.2569 36.9216 17.3339 36.8928C17.4095 36.8644 17.6897 36.8359 17.9566 36.8295C18.2236 36.823 18.4962 36.8119 18.5623 36.8048C18.7168 36.7882 18.9371 37.45 19.1289 38.5068C19.2032 38.9161 19.3338 39.3921 19.4193 39.5644C19.5046 39.7368 19.575 39.9843 19.5755 40.1145C19.5761 40.2447 19.602 40.3914 19.6331 40.4406C19.7353 40.602 19.7751 40.3046 19.6975 39.9593C19.6581 39.7833 19.6034 39.2316 19.576 38.7333C19.5487 38.235 19.491 37.6516 19.4477 37.4369C19.3538 36.9707 19.3769 36.6803 19.5098 36.6569C19.5632 36.6476 19.6993 36.6199 19.8123 36.5955C20.0035 36.5542 20.0268 36.5692 20.151 36.8127C20.2245 36.9566 20.3141 37.0925 20.3502 37.1149C20.3863 37.1372 20.4158 37.2078 20.4158 37.2717C20.4158 37.3357 20.5206 37.5254 20.6488 37.6932C20.7769 37.861 20.911 38.1055 20.9467 38.2364C21.0238 38.5189 21.1092 38.6362 21.2378 38.6362C21.3566 38.6362 21.2977 38.3074 21.1277 38.0215C21.0643 37.9147 20.9789 37.6675 20.938 37.4722C20.8971 37.2769 20.8254 37.0585 20.7789 36.9869C20.7323 36.9152 20.6749 36.7523 20.6512 36.6247C20.6124 36.4157 20.6258 36.3846 20.787 36.3092C20.9017 36.2556 21.3564 36.2156 22.0555 36.1976C22.6548 36.1822 23.2172 36.1421 23.3054 36.1086C23.3937 36.0751 23.5641 36.0477 23.6843 36.0477C23.8045 36.0477 23.9186 36.022 23.9379 35.9908C23.9573 35.9595 24.1008 35.9483 24.2569 35.9659C24.4293 35.9853 24.5582 35.9695 24.5853 35.9257C24.6098 35.886 24.7004 35.8535 24.7865 35.8535C25.0118 35.8535 25.7686 35.6123 26.1202 35.4283C26.2856 35.3419 26.4932 35.2711 26.5815 35.2711C26.6698 35.2711 26.7782 35.2274 26.8226 35.174C26.8669 35.1206 26.9433 35.0769 26.9923 35.0769C27.0413 35.0769 27.0814 35.0502 27.0814 35.0176C27.0814 34.9849 27.2198 34.9094 27.3888 34.8497C27.5579 34.7901 27.7722 34.701 27.8651 34.6519C27.958 34.6028 28.0527 34.5813 28.0755 34.6041C28.0982 34.6268 28.1169 34.6033 28.1169 34.5518C28.1169 34.5003 28.2115 34.4176 28.3272 34.3681C28.4429 34.3185 28.5554 34.2673 28.5772 34.2544C28.599 34.2414 28.6552 34.3265 28.702 34.4435C28.7487 34.5606 28.9056 34.9038 29.0506 35.2064C29.2905 35.7073 29.3158 35.7383 29.3338 35.5535C29.3447 35.4419 29.2931 35.0924 29.2192 34.7769C29.1453 34.4614 29.0721 34.1448 29.0565 34.0733C29.0211 33.9106 29.1141 33.7513 29.2098 33.8105C29.2494 33.835 29.2817 33.9101 29.2817 33.9774C29.2817 34.0447 29.3182 34.123 29.3626 34.1515C29.4549 34.2106 29.7347 34.5957 29.7347 34.6637C29.7347 34.6885 29.8035 34.7989 29.8875 34.9091C29.9715 35.0192 30.131 35.2892 30.2419 35.509C30.3529 35.7289 30.4754 35.9284 30.5142 35.9523C30.6239 36.0201 30.6683 35.9323 30.5789 35.8246C30.5347 35.7713 30.4754 35.6322 30.4472 35.5156C30.3774 35.2276 30.1208 34.4848 30.0496 34.3651C29.9334 34.1694 29.7539 33.7451 29.7075 33.5561C29.6608 33.3659 29.6631 33.3668 29.8259 33.6063C29.9172 33.7408 30.0111 33.9301 30.0346 34.027C30.058 34.1239 30.1312 34.2805 30.1972 34.375C30.2632 34.4695 30.3172 34.5855 30.3172 34.6327C30.3172 34.7609 30.7292 35.5911 30.7937 35.593C30.865 35.5951 30.7794 35.0058 30.6933 34.9012C30.6576 34.8579 30.6406 34.7864 30.6552 34.7424C30.6699 34.6983 30.6274 34.4717 30.5609 34.2386C30.4943 34.0056 30.4114 33.7027 30.3767 33.5655C30.3419 33.4283 30.2697 33.2313 30.2161 33.1278C30.1202 32.9424 30.1223 32.9374 30.3474 32.8046C30.4731 32.7304 30.576 32.6435 30.576 32.6114C30.576 32.5793 30.6204 32.553 30.6747 32.553C30.729 32.553 30.8022 32.4773 30.8374 32.3847C30.875 32.2858 30.9367 32.2299 30.9868 32.2491C31.0399 32.2695 31.1019 32.1998 31.1506 32.065C31.1938 31.9456 31.279 31.8322 31.34 31.8128C31.401 31.7935 31.4797 31.7232 31.515 31.6566C31.5503 31.5901 31.6596 31.4151 31.7579 31.2677C31.9249 31.0175 31.9565 30.9999 32.2389 30.9999C32.4051 30.9999 32.7996 30.9668 33.1157 30.9262C33.7366 30.8466 33.8027 30.7394 33.2389 30.7265C33.0557 30.7224 32.9058 30.6951 32.9058 30.666C32.9058 30.637 32.7886 30.5944 32.6455 30.5715C32.3158 30.5188 32.2729 30.4471 32.455 30.2533C32.5348 30.1683 32.6325 30.0345 32.6721 29.9561C32.7519 29.7977 33.1974 29.5186 33.3772 29.5142C33.5657 29.5097 33.9372 29.244 33.9402 29.1117C33.942 29.0334 33.5378 28.8643 33.3488 28.8643C33.1366 28.8643 33.1153 28.7889 33.2812 28.6241C33.4856 28.421 33.6134 28.1695 33.6581 27.8819C33.6821 27.7282 33.7702 27.4513 33.8538 27.2667C33.9375 27.0822 34.0059 26.8904 34.0059 26.8407C34.0059 26.791 34.0261 26.7301 34.0508 26.7054C34.0754 26.6808 34.1033 26.5296 34.1125 26.3694C34.1219 26.2088 34.176 26.0317 34.2332 25.9745C34.2903 25.9174 34.3215 25.8305 34.3026 25.7812C34.2837 25.732 34.2936 25.6265 34.3245 25.5469C34.3773 25.4112 34.5066 24.7576 34.552 24.3977C34.5631 24.3094 34.5912 24.1644 34.6143 24.0754C34.6375 23.9864 34.6687 23.7971 34.6838 23.6547C34.6988 23.5124 34.7239 23.294 34.7395 23.1694C34.8672 22.1496 34.8944 21.7552 34.9563 20.0307C35.0559 17.2552 34.9848 15.3529 34.7467 14.4236C34.6952 14.2226 34.6531 13.979 34.6531 13.8821C34.6531 13.6731 34.4499 13.0739 34.379 13.0739C34.3518 13.0739 34.3295 13.0152 34.3295 12.9435C34.3295 12.8719 34.3028 12.7626 34.2702 12.7008C34.2376 12.639 34.1611 12.472 34.1002 12.3296C34.0393 12.1873 33.9534 12.0271 33.9093 11.9737C33.8652 11.9203 33.8102 11.7966 33.7869 11.6987C33.7636 11.6008 33.716 11.5207 33.6811 11.5207C33.6462 11.5207 33.6176 11.452 33.6176 11.368C33.6176 11.2839 33.5448 11.1079 33.4558 10.9768C33.3669 10.8457 33.2941 10.7249 33.2941 10.7084C33.2941 10.6488 32.6217 9.47908 32.5148 9.35275C32.4546 9.28157 32.3514 9.07772 32.2854 8.89975C32.2194 8.72178 32.0835 8.43057 31.9835 8.2526C31.8833 8.07463 31.7845 7.87803 31.7636 7.81577C31.7428 7.75352 31.7001 7.70252 31.6686 7.70252C31.6372 7.70252 31.6115 7.67159 31.6115 7.63373C31.6115 7.59587 31.5422 7.4139 31.4574 7.22926C31.3727 7.04463 31.2709 6.82078 31.2314 6.7318C31.155 6.56024 31.074 6.4202 30.886 6.13578C30.763 5.94966 30.7344 5.69792 30.8247 5.59605C30.8738 5.54059 31.0255 4.95544 31.0754 4.62857C31.0863 4.55738 31.094 4.34298 31.0926 4.15213C31.0912 3.96123 31.1225 3.76592 31.1622 3.71809C31.239 3.62548 31.1942 3.49605 31.0852 3.49605C31.0491 3.49605 31.0311 3.54705 31.0452 3.60931C31.0593 3.67156 31.0325 3.8008 30.9857 3.89645C30.9389 3.99203 30.9171 4.1135 30.9374 4.16631C30.9624 4.23154 30.9259 4.2692 30.8236 4.28364C30.7108 4.29962 30.6478 4.37792 30.572 4.59621C30.5165 4.75638 30.4217 5.00042 30.3615 5.13852L30.252 5.38968L30.1327 5.23559C30.0671 5.15088 29.9722 4.9942 29.9218 4.88743C29.8677 4.77262 29.7513 4.66681 29.6369 4.62857C29.477 4.57505 29.4405 4.52457 29.4265 4.33735C29.4138 4.16844 29.3521 4.06399 29.1839 3.92667C29.0598 3.82532 28.9741 3.71673 28.9936 3.68528C29.013 3.65383 29.0708 3.34889 29.122 3.00752C29.1733 2.66621 29.2631 2.28601 29.3217 2.1626C29.3802 2.03919 29.4139 1.92407 29.3965 1.90672C29.2456 1.75581 28.7405 2.52365 28.7749 2.85169C28.7863 2.95983 28.7627 3.06894 28.7225 3.09418C28.6824 3.11948 28.6386 3.19837 28.6252 3.26955C28.5917 3.44784 28.311 3.48783 28.311 3.31433C28.311 3.24502 28.2698 3.1541 28.2194 3.1123C28.1252 3.03412 28.1698 2.7321 28.2999 2.56759C28.3323 2.52656 28.378 2.38671 28.4014 2.25683C28.4247 2.12695 28.4898 1.92853 28.546 1.81593C28.6022 1.70339 28.6317 1.59492 28.6117 1.57493C28.5917 1.55493 28.6356 1.48976 28.7093 1.4301C28.7849 1.36894 28.8328 1.26753 28.8193 1.19758C28.7986 1.09008 28.7843 1.08614 28.7126 1.16845C28.5668 1.33581 28.1036 2.08482 28.0904 2.17471C28.0719 2.30077 27.6671 2.84891 27.5925 2.84891C27.5577 2.84891 27.4503 2.79357 27.3539 2.72595C27.0983 2.54675 26.8226 2.49517 26.8226 2.62654C26.8226 2.68362 26.7862 2.71805 26.7417 2.7031C26.6972 2.68822 26.6606 2.62499 26.6603 2.56274C26.6596 2.37584 26.4546 2.26964 26.2228 2.33617C26.0233 2.39338 25.8797 2.31371 25.957 2.18868C25.9745 2.16027 25.8836 2.13704 25.7548 2.13704C25.5883 2.13704 25.5327 2.1604 25.5624 2.21794C25.5854 2.26246 25.5495 2.23185 25.4826 2.14992C25.3899 2.03635 25.2695 1.99163 24.9754 1.96147C24.7488 1.93824 24.5607 1.88232 24.5191 1.82583C24.4193 1.69032 24.1298 1.7747 24.0832 1.95286C24.0528 2.06928 24.0297 2.07977 23.9499 2.0135C23.8968 1.96949 23.8694 1.89177 23.8889 1.84091C23.9184 1.76409 23.8076 1.74933 23.2348 1.75393C22.7946 1.75749 22.5121 1.73199 22.4537 1.68358C22.3875 1.62858 22.3037 1.62592 22.1494 1.67407C21.9225 1.74493 21.4297 1.73322 21.2385 1.65246C21.1633 1.62075 21.0784 1.64385 20.9958 1.71859C20.9259 1.78182 20.8688 1.80246 20.8688 1.76454C20.8688 1.72196 20.6767 1.69394 20.3673 1.69142C19.2513 1.68223 19.1215 1.65129 19.1215 1.39431C19.1215 1.16121 19.1883 1.03689 19.3134 1.03689C19.3958 1.03689 19.4649 0.921178 19.5654 0.614882C19.6416 0.38275 19.7039 0.149776 19.7039 0.0971631C19.7039 -0.071937 19.5137 -0.00482784 19.4709 0.179415ZM28.8995 0.803073C28.8466 0.866817 28.8439 0.909141 28.8908 0.938133C28.9283 0.961366 28.9771 0.933602 28.999 0.876394C29.0536 0.734022 28.9936 0.689757 28.8995 0.803073ZM14.5924 1.34428C14.593 1.37101 14.6217 1.4365 14.6562 1.48989C14.7069 1.56839 14.7191 1.55907 14.7199 1.44136C14.7204 1.36124 14.6918 1.29575 14.6562 1.29575C14.6206 1.29575 14.5919 1.31756 14.5924 1.34428ZM29.4112 1.36428C29.4112 1.40194 29.4403 1.41482 29.4759 1.39282C29.5115 1.37082 29.5406 1.34001 29.5406 1.32429C29.5406 1.30856 29.5115 1.29575 29.4759 1.29575C29.4403 1.29575 29.4112 1.32662 29.4112 1.36428ZM4.81951 1.54522C4.81951 1.64844 4.86034 1.76681 4.91024 1.80823C4.96013 1.84958 5.01889 1.95513 5.0409 2.04262C5.10115 2.28258 5.23219 2.24298 5.18353 1.99952C5.16127 1.88828 5.14308 1.74603 5.14308 1.68339C5.14308 1.62075 5.07028 1.5218 4.98129 1.46349C4.82151 1.35878 4.81951 1.35982 4.81951 1.54522ZM18.2155 1.97325C18.2155 2.0311 18.2534 2.05369 18.3126 2.03104C18.366 2.01052 18.4096 1.96775 18.4096 1.93597C18.4096 1.9042 18.366 1.87818 18.3126 1.87818C18.2592 1.87818 18.2155 1.92096 18.2155 1.97325ZM23.2255 2.27398C23.2284 2.43001 23.2683 2.59716 23.3141 2.64544C23.5024 2.84431 23.1123 3.01231 22.9166 2.81655C22.8632 2.76316 22.7979 2.71948 22.7714 2.71948C22.745 2.71948 22.6749 2.6756 22.6157 2.62201C22.5197 2.53517 22.4855 2.53581 22.3008 2.62797C22.155 2.70071 22.0697 2.71152 22.0129 2.66434C21.9623 2.6224 21.8433 2.61742 21.6943 2.65101C21.5635 2.68052 21.2878 2.69087 21.0817 2.67398C20.5324 2.62894 19.8774 2.63457 19.2269 2.6899L18.6527 2.7387L18.5319 3.01173C18.4655 3.16193 18.3671 3.32132 18.3133 3.36598C18.2595 3.41063 18.2155 3.49605 18.2155 3.55572C18.2155 3.61545 18.1887 3.69195 18.1559 3.72579C18.0523 3.83277 17.6493 4.685 17.6061 4.88866C17.5833 4.99608 17.5955 5.2873 17.6331 5.5358C17.6708 5.78425 17.7169 6.14775 17.7357 6.34351C17.7811 6.81697 17.8927 7.26673 17.9846 7.34659C18.0256 7.38218 18.1112 7.54967 18.175 7.7187C18.2387 7.88774 18.3146 8.0261 18.3435 8.0261C18.3724 8.0261 18.4908 8.2227 18.6065 8.46292C18.7222 8.70315 18.8709 8.9378 18.9368 8.98433C19.0028 9.0308 19.0568 9.108 19.0568 9.15589C19.0568 9.20372 19.1858 9.41442 19.3434 9.62417C19.5011 9.83384 19.6498 10.0843 19.674 10.1807C19.6982 10.277 19.7402 10.3558 19.7675 10.3558C19.7947 10.3558 19.9042 10.5383 20.0107 10.7615C20.1173 10.9845 20.2521 11.2065 20.3102 11.2547C20.3682 11.3029 20.4158 11.384 20.4158 11.4348C20.4158 11.4856 20.5177 11.6321 20.6423 11.7603C20.7669 11.8886 20.8688 12.0288 20.8688 12.0719C20.8688 12.1151 20.9852 12.3217 21.1275 12.5312C21.2698 12.7407 21.3863 12.9569 21.3864 13.0116C21.3865 13.0664 21.4727 13.212 21.578 13.3352C21.6834 13.4584 21.7707 13.6066 21.7722 13.6646C21.7736 13.7225 21.8166 13.8046 21.8677 13.847C21.9188 13.8894 21.9794 14.0094 22.0023 14.1138C22.0252 14.2181 22.086 14.3034 22.1375 14.3034C22.1889 14.3034 22.256 14.369 22.2864 14.4491C22.4154 14.7877 22.5646 15.0708 22.8068 15.436C22.9484 15.6495 23.0944 15.8915 23.1313 15.9737C23.2119 16.1536 23.2977 16.1157 23.3581 15.8734C23.3827 15.7752 23.4434 15.6074 23.4933 15.5007C23.5431 15.3939 23.6741 15.0299 23.7843 14.6917C23.8944 14.3536 24.0261 14.0124 24.0769 13.9336C24.1277 13.8548 24.1693 13.7383 24.1693 13.6747C24.1693 13.5427 24.44 12.7344 24.5006 12.6856C24.5227 12.6678 24.6139 12.4202 24.7032 12.1355C24.9069 11.4861 25.0628 11.048 25.2153 10.6963C25.2806 10.5454 25.3341 10.3931 25.3341 10.3579C25.3341 10.2672 25.5925 9.43986 25.6624 9.30668C25.6943 9.24572 25.7811 8.96906 25.855 8.69189C25.9291 8.41465 26.0169 8.16019 26.0501 8.12641C26.0835 8.09256 26.1107 8.01212 26.1107 7.94754C26.1107 7.88301 26.1381 7.7796 26.1717 7.7178C26.2052 7.656 26.2979 7.30369 26.3777 6.93488C26.4575 6.56607 26.5552 6.23117 26.5948 6.19065C26.7241 6.05857 26.8927 5.40223 26.9173 4.93512C26.9306 4.68377 26.9729 4.41921 27.0114 4.34725C27.119 4.14625 27.0969 4.08884 26.9035 4.06658C26.7782 4.05222 26.7195 4.00452 26.7055 3.90551C26.6928 3.81685 26.6138 3.7399 26.4914 3.69725C26.3847 3.66004 26.1666 3.54129 26.0066 3.43341C25.8467 3.32547 25.6916 3.2372 25.6618 3.2372C25.6321 3.2372 25.5244 3.19371 25.4224 3.14051C25.3205 3.08738 25.142 3.0437 25.0258 3.04344C24.9097 3.04325 24.7641 3.016 24.7023 2.98299C24.2809 2.75772 23.9637 2.64965 23.8393 2.68912C23.7511 2.71715 23.6802 2.70116 23.6458 2.64551C23.6159 2.59723 23.5614 2.55406 23.5244 2.5496C23.4876 2.54513 23.4283 2.53789 23.3927 2.53342C23.2529 2.51595 23.3376 2.3959 23.4898 2.3959C23.5905 2.3959 23.6515 2.35921 23.6515 2.29883C23.6515 2.24279 23.593 2.20176 23.5131 2.20176C23.4369 2.20176 23.3398 2.15419 23.2973 2.09601C23.2332 2.00845 23.2209 2.03893 23.2255 2.27398ZM16.0469 2.26751C16.0245 2.30368 15.9791 2.31656 15.946 2.29605C15.9129 2.2756 15.8858 2.35067 15.8858 2.46288C15.8858 2.61244 15.9203 2.67592 16.0152 2.70071C16.0864 2.71935 16.1446 2.78458 16.1446 2.84567C16.1446 3.00662 16.0818 3.04531 15.9521 2.96429C15.5616 2.72045 15.5164 3.34585 15.8968 3.72838C16.0153 3.84746 16.1459 3.94589 16.1871 3.94699C16.2282 3.94815 16.2817 4.09318 16.306 4.2694C16.3722 4.75127 16.6623 4.90179 16.6623 4.45429C16.6623 4.1799 16.7928 3.75343 16.9334 3.56821C17.0056 3.47308 17.0506 3.30392 17.0506 3.12731C17.0506 2.84295 17.049 2.84088 16.8403 2.86101C16.6553 2.8788 16.6275 2.90663 16.6097 3.09159C16.5858 3.33899 16.4035 3.38889 16.4035 3.14802C16.4035 3.06344 16.3598 2.95795 16.3064 2.91362C16.253 2.86929 16.2093 2.78011 16.2093 2.7154C16.2093 2.65062 16.1801 2.57963 16.1444 2.55756C16.1086 2.53549 16.0972 2.44638 16.1191 2.3596C16.1594 2.19871 16.1203 2.14875 16.0469 2.26751ZM20.3277 2.29883C20.3072 2.35222 20.3187 2.3959 20.3531 2.3959C20.3876 2.3959 20.4158 2.35222 20.4158 2.29883C20.4158 2.24544 20.4043 2.20176 20.3904 2.20176C20.3764 2.20176 20.3482 2.24544 20.3277 2.29883ZM22.422 2.26647C22.422 2.30206 22.4528 2.33119 22.4905 2.33119C22.5282 2.33119 22.541 2.30206 22.519 2.26647C22.497 2.23088 22.4662 2.20176 22.4505 2.20176C22.4348 2.20176 22.422 2.23088 22.422 2.26647ZM17.6608 2.87919C17.6033 2.96701 17.5696 3.07625 17.5861 3.12187C17.6041 3.17164 17.6496 3.13365 17.6996 3.02687C17.7457 2.92902 17.8077 2.84891 17.8376 2.84891C17.8675 2.84891 17.8919 2.81978 17.8919 2.78419C17.8919 2.66589 17.7669 2.71727 17.6608 2.87919ZM23.4574 2.84891C23.4574 2.97212 23.7278 3.18452 23.8456 3.15378C23.9101 3.13689 24.0458 3.17766 24.147 3.24444C24.2482 3.31116 24.3965 3.36598 24.4767 3.36617C24.5627 3.36643 24.6223 3.4063 24.6223 3.4637C24.6223 3.51709 24.6647 3.56077 24.7165 3.56077C24.8265 3.56077 25.2436 3.82338 25.4335 4.01222C25.5059 4.08425 25.6106 4.1432 25.6661 4.1432C25.7216 4.1432 25.8198 4.20145 25.8842 4.27263C26.0287 4.43222 26.1087 4.43927 26.0679 4.28881C26.0279 4.14107 25.3518 3.64846 25.1052 3.58737C24.9998 3.56122 24.8754 3.48628 24.8289 3.42086C24.7824 3.35543 24.7059 3.30191 24.6589 3.30191C24.6118 3.30191 24.5401 3.26172 24.4993 3.21267C24.4585 3.16355 24.3338 3.10511 24.2221 3.08272C24.1104 3.06039 23.9784 2.9841 23.9287 2.91317C23.8349 2.77927 23.4574 2.72782 23.4574 2.84891ZM31.3041 2.82703C31.2577 2.84573 31.2232 2.97355 31.2232 3.12608C31.2232 3.44312 31.3216 3.38358 31.3871 3.02687C31.4116 2.89343 31.4212 2.78652 31.4083 2.7893C31.3955 2.79209 31.3486 2.80911 31.3041 2.82703ZM13.4135 2.89679C13.3148 2.91931 13.1871 3.14918 13.2427 3.204C13.2548 3.21597 13.3449 3.2104 13.4428 3.19157C13.5594 3.16918 13.6207 3.11669 13.6207 3.0393C13.6207 2.90055 13.565 2.86224 13.4135 2.89679ZM13.82 3.01606C13.8231 3.09146 13.8384 3.10679 13.8591 3.05522C13.8778 3.00849 13.8755 2.95264 13.854 2.93116C13.8325 2.90967 13.8172 2.94786 13.82 3.01606ZM14.389 3.1066C14.3661 3.32171 14.349 3.3355 14.0141 3.40953C13.8212 3.45218 13.6377 3.53275 13.6064 3.58866C13.5752 3.64451 13.4962 3.6902 13.431 3.6902C13.3658 3.6902 13.1707 3.82092 12.9974 3.98071C12.8242 4.14049 12.6493 4.27153 12.6089 4.27192C12.5685 4.27231 12.452 4.31612 12.35 4.36932C12.2481 4.42245 12.1186 4.46613 12.0623 4.46639C12.006 4.46658 11.9196 4.54224 11.8703 4.63445C11.8209 4.72661 11.6631 4.86167 11.5196 4.93447C11.3761 5.00734 11.1369 5.1503 10.9881 5.25222C10.8394 5.35415 10.6878 5.4375 10.6513 5.4375C10.6149 5.4375 10.5122 5.51031 10.4232 5.59929C10.3343 5.68827 10.1909 5.76108 10.1046 5.76108C10.0184 5.76108 9.9105 5.80605 9.86481 5.86112C9.81919 5.91613 9.74192 5.94577 9.69312 5.92707C9.6418 5.9074 9.57579 5.95593 9.53638 6.04252C9.49891 6.12471 9.36146 6.23039 9.23093 6.27737C9.1004 6.32435 8.90625 6.42693 8.79947 6.50536C8.69269 6.5838 8.55433 6.66592 8.49208 6.68786C8.42976 6.7098 8.37883 6.75775 8.37883 6.79451C8.37883 6.8312 8.30602 6.86123 8.21704 6.86123C8.12275 6.86123 8.05525 6.89844 8.05525 6.95041C8.05525 6.9994 8.01235 7.07511 7.95986 7.11867C7.87962 7.18526 7.8778 7.22499 7.94841 7.36931C7.99448 7.4636 8.07169 7.67178 8.11997 7.83195C8.16818 7.99212 8.2439 8.16685 8.28823 8.22024C8.33249 8.27363 8.38989 8.40468 8.41578 8.51146C8.44166 8.61824 8.50217 8.76307 8.55026 8.83329C8.59834 8.90344 8.63769 9.02271 8.63769 9.09829C8.63769 9.17382 8.69593 9.28836 8.76712 9.35275C8.8383 9.41714 8.89655 9.53745 8.89655 9.62009C8.89655 9.70267 9.02759 10.0207 9.18776 10.327C9.34793 10.6331 9.47898 10.9174 9.47898 10.9585C9.47898 11.0598 9.88202 11.8712 9.94583 11.8982C9.97379 11.9101 9.9967 11.9638 9.9967 12.0177C9.9967 12.0715 10.0388 12.1928 10.0903 12.2873C10.1417 12.3818 10.231 12.5756 10.2887 12.7179C10.5171 13.2818 11.0348 14.3034 11.0921 14.3034C11.1255 14.3034 11.173 14.2402 11.1975 14.1628C11.222 14.0855 11.2924 13.9682 11.3539 13.9021C11.4154 13.8361 11.5 13.6677 11.542 13.5278C11.5838 13.3879 11.6428 13.2582 11.6729 13.2396C11.703 13.221 11.8053 13.0378 11.9002 12.8324C11.9952 12.6271 12.1181 12.3717 12.1734 12.2649C12.3962 11.8344 12.4437 11.7392 12.5285 11.5531C12.5771 11.4463 12.6972 11.2294 12.7952 11.0712C12.8933 10.913 12.9736 10.718 12.9736 10.6381C12.9736 10.5581 13.0256 10.4545 13.0892 10.4081C13.1527 10.3615 13.301 10.1051 13.4188 9.83812C13.5365 9.57117 13.6693 9.30907 13.7138 9.25568C13.7584 9.20229 13.8424 9.03578 13.9006 8.88558C13.9587 8.73544 14.0639 8.54615 14.1342 8.46493C14.268 8.31059 14.6401 7.64842 14.8254 7.23476C14.8849 7.1021 14.9847 6.97726 15.0473 6.9574C15.1098 6.93753 15.1778 6.85456 15.1982 6.77296C15.2187 6.69142 15.3112 6.54296 15.4037 6.44311C15.6273 6.20191 15.6899 6.01955 15.7004 5.5789C15.7053 5.37654 15.7221 5.27817 15.7378 5.36036C15.7535 5.44249 15.8005 5.49795 15.8422 5.48364C15.9457 5.44818 15.9012 4.99291 15.775 4.79618C15.72 4.71036 15.6602 4.45442 15.6419 4.22733C15.618 3.93029 15.5782 3.79808 15.4996 3.75608C15.4386 3.7234 15.3525 3.53935 15.3043 3.33828C15.224 3.00364 15.2118 2.98778 15.1276 3.10802C15.0637 3.19914 14.9636 3.2372 14.7873 3.2372C14.573 3.2372 14.5287 3.21189 14.4754 3.05923L14.4131 2.88126L14.389 3.1066ZM12.4325 3.34682C12.3716 3.40778 12.3822 3.61235 12.4485 3.65325C12.48 3.67273 12.5197 3.61552 12.5369 3.52608C12.5678 3.36442 12.5115 3.26781 12.4325 3.34682ZM16.5976 3.62167C16.5976 3.69492 16.6267 3.75491 16.6623 3.75491C16.6979 3.75491 16.727 3.71298 16.727 3.66166C16.727 3.61034 16.6979 3.55042 16.6623 3.52841C16.6267 3.50641 16.5976 3.54841 16.5976 3.62167ZM11.857 3.74495C11.7161 3.80701 11.6269 3.88596 11.6447 3.93288C11.6615 3.9774 11.647 4.01377 11.6126 4.01377C11.5781 4.01377 11.5499 3.9798 11.5499 3.93825C11.5499 3.89677 11.5334 3.87923 11.5134 3.89929C11.4932 3.91942 11.4953 4.03461 11.518 4.15543C11.5567 4.36142 11.573 4.37339 11.7816 4.349C11.904 4.33476 12.0243 4.29024 12.0491 4.25018C12.0885 4.18643 12.1476 3.61539 12.1131 3.6317C12.1058 3.63513 11.9906 3.68606 11.857 3.74495ZM10.9998 3.81963C11.0218 3.85522 11.0526 3.88434 11.0683 3.88434C11.084 3.88434 11.0969 3.85522 11.0969 3.81963C11.0969 3.78404 11.066 3.75491 11.0283 3.75491C10.9907 3.75491 10.9778 3.78404 10.9998 3.81963ZM10.6762 4.20792C10.6542 4.24351 10.6671 4.27263 10.7047 4.27263C10.7424 4.27263 10.7733 4.24351 10.7733 4.20792C10.7733 4.17233 10.7605 4.1432 10.7447 4.1432C10.729 4.1432 10.6982 4.17233 10.6762 4.20792ZM27.6752 4.70946C27.6813 4.73619 27.6547 4.8308 27.6158 4.91978C27.5265 5.12435 27.3633 5.8797 27.3094 6.33853C27.2867 6.53157 27.2365 6.74856 27.1979 6.82085C27.1592 6.89307 27.0453 7.34672 26.9447 7.82891C26.8441 8.3111 26.6921 8.90946 26.6068 9.15861C26.5216 9.40776 26.4657 9.63601 26.4827 9.66578C26.5402 9.76647 26.627 9.60793 26.6852 9.29593C26.7172 9.12522 26.7757 8.95314 26.8153 8.91353C26.8549 8.87393 26.8873 8.76171 26.8873 8.66412C26.8873 8.56653 26.9156 8.4692 26.9503 8.44785C27.0291 8.39905 27.1705 8.07386 27.2602 7.73488C27.3523 7.38665 27.5342 6.90278 27.5883 6.86194C27.6648 6.80428 27.7844 6.39121 27.8602 5.92286C27.9005 5.67371 27.9616 5.34256 27.9958 5.18693C28.0474 4.95246 28.0391 4.88328 27.948 4.78246C27.8403 4.66351 27.6528 4.61336 27.6752 4.70946ZM28.6143 5.77726C28.5754 6.01547 28.3441 7.03648 28.2515 7.37895C28.2179 7.50353 28.1716 7.67826 28.1488 7.76724C28.0891 7.99963 27.8042 8.97669 27.6934 9.32907C27.6416 9.49402 27.5992 9.67245 27.5992 9.72564C27.5992 9.77877 27.5591 9.85552 27.5102 9.8961C27.4612 9.93674 27.4034 10.0787 27.3817 10.2115C27.3368 10.4862 27.0049 11.5562 26.9048 11.7489C26.8683 11.8192 26.8039 11.9931 26.7615 12.1355C26.6853 12.3919 26.5968 12.6213 26.4969 12.8216C26.4685 12.8786 26.3546 13.199 26.244 13.5335C26.1334 13.868 25.9999 14.2363 25.9474 14.352C25.7012 14.8941 25.6565 15.0051 25.5557 15.3237C25.4965 15.5111 25.4224 15.6803 25.3911 15.6996C25.2972 15.7577 25.3268 15.9213 25.4312 15.9213C25.4846 15.9213 25.5283 15.8922 25.5283 15.8566C25.5283 15.821 25.572 15.7919 25.6253 15.7919C25.7413 15.7919 25.7451 15.8227 25.6508 15.999C25.5932 16.1065 25.5678 16.1152 25.5223 16.0433C25.4834 15.9818 25.4652 15.9785 25.4645 16.0326C25.464 16.0759 25.4245 16.0964 25.3768 16.0781C25.2649 16.0351 25.1769 16.1495 25.0743 16.4714C25.0289 16.6138 24.9742 16.7448 24.9526 16.7626C24.843 16.8531 24.5366 17.9059 24.5931 17.9975C24.6134 18.0302 24.5699 18.0569 24.4967 18.0569C24.4234 18.0569 24.3633 18.0933 24.3632 18.1378C24.3629 18.2703 24.7018 19.0276 24.7614 19.0276C24.8528 19.0276 25.0825 18.7682 25.045 18.7074C25.0257 18.6762 25.1242 18.4224 25.2639 18.1434C25.4036 17.8645 25.5789 17.4665 25.6535 17.259C25.7281 17.0516 25.8443 16.775 25.9116 16.6442C26.071 16.3354 26.1492 16.1415 26.2425 15.8242C26.2844 15.6819 26.403 15.3933 26.5059 15.1829C26.6089 14.9726 26.6931 14.7614 26.6931 14.7137C26.6931 14.666 26.7223 14.627 26.7579 14.627C26.7935 14.627 26.8226 14.5857 26.8226 14.5352C26.8226 14.4847 26.8627 14.3609 26.9117 14.2601C27.1438 13.7833 27.2136 13.607 27.2534 13.3974C27.277 13.2729 27.3321 13.1127 27.3758 13.0415C27.4196 12.9703 27.4915 12.7956 27.5357 12.6532C27.5799 12.5108 27.6388 12.3652 27.6665 12.3296C27.6943 12.294 27.7372 12.1568 27.7619 12.0246C27.7866 11.8924 27.8475 11.7504 27.8972 11.7092C27.9468 11.668 27.9874 11.6123 27.9874 11.5854C27.9874 11.5585 28.0314 11.4311 28.0852 11.3024C28.1391 11.1736 28.1822 11.0533 28.181 11.035C28.1799 11.0166 28.2197 10.9218 28.2695 10.8244C28.3194 10.7268 28.382 10.5457 28.4087 10.4218C28.4354 10.298 28.5609 9.97771 28.6875 9.70998C28.8142 9.44232 28.9209 9.17964 28.9248 9.12625C28.9333 9.00737 29.0847 8.67577 29.1905 8.54382C29.2333 8.49043 29.2819 8.3157 29.2982 8.15553C29.3476 7.67483 29.488 7.092 29.5712 7.02302C29.6141 6.98742 29.6651 6.87463 29.6845 6.77231C29.7118 6.62858 29.693 6.57933 29.6016 6.55545C29.5365 6.53843 29.4662 6.44705 29.4455 6.35238C29.3951 6.12322 28.914 5.56693 28.7661 5.56693C28.6839 5.56693 28.6385 5.62996 28.6143 5.77726ZM15.6805 6.69944C15.6608 6.80622 15.6631 7.05376 15.6855 7.24952C15.7224 7.57161 15.7337 7.59212 15.8052 7.46554C15.8676 7.35494 15.8666 7.23994 15.8002 6.91546C15.7275 6.5605 15.7114 6.53144 15.6805 6.69944ZM16.435 7.07997C16.3366 7.23004 16.1636 7.66382 15.9157 8.38203C15.8543 8.56 15.7787 8.75615 15.7478 8.81795C15.7169 8.87975 15.6916 8.96207 15.6916 9.0009C15.6916 9.08328 15.2776 10.1045 15.1292 10.3882C15.0247 10.588 14.7598 11.2793 14.4873 12.0632C14.4022 12.3082 14.2766 12.5994 14.2082 12.7104C14.0655 12.9418 13.8819 13.4425 13.8806 13.6041C13.88 13.6644 13.8241 13.7525 13.7563 13.8C13.6806 13.853 13.6154 14.0037 13.5875 14.1899C13.5624 14.3568 13.5014 14.527 13.4519 14.5681C13.4024 14.6092 13.3619 14.7076 13.3619 14.7867C13.3619 14.8658 13.3053 14.9817 13.2361 15.0444C13.167 15.1069 13.0907 15.2498 13.0668 15.3618C13.0428 15.4737 12.9433 15.7276 12.8456 15.9258C12.4846 16.6591 12.4286 16.9245 12.5152 17.4908C12.5699 17.8477 12.6501 18.0899 12.7834 18.3C12.888 18.465 12.9736 18.6635 12.9736 18.7411C12.9736 18.8188 13.0125 18.9146 13.06 18.9541C13.1075 18.9935 13.1847 19.1499 13.2317 19.3018C13.3708 19.752 13.6416 20.3505 13.7313 20.4061C13.7773 20.4345 13.8149 20.504 13.8149 20.5605C13.8149 20.617 13.9288 20.8995 14.0681 21.1883C14.2074 21.477 14.3579 21.8443 14.4026 22.0045C14.4471 22.1647 14.5501 22.3864 14.6312 22.4972C14.7123 22.608 14.7997 22.7823 14.8253 22.8845C14.851 22.9867 14.9544 23.2366 15.0553 23.4398C15.1561 23.643 15.2386 23.836 15.2386 23.8687C15.2386 23.9412 15.599 24.8396 15.6918 24.9984C15.7284 25.0611 15.8047 25.2504 15.8612 25.419C15.9177 25.5877 16.0019 25.7693 16.0483 25.8227C16.0947 25.8761 16.1649 26.0363 16.2043 26.1786C16.2438 26.321 16.3193 26.494 16.3722 26.5631C16.425 26.6322 16.4682 26.7318 16.4682 26.7845C16.4682 26.8372 16.5075 26.9263 16.5554 26.9825C16.6034 27.0387 16.6797 27.2221 16.7251 27.3902C16.7704 27.5582 16.8768 27.7895 16.9614 27.9043C17.0461 28.019 17.1153 28.176 17.1153 28.2531C17.1153 28.3303 17.2254 28.6085 17.3598 28.8715C17.4942 29.1345 17.6451 29.4752 17.6951 29.6286C17.787 29.9113 17.917 30.0305 18.1303 30.0275C18.255 30.0259 18.4743 29.6586 18.4743 29.4516C18.4743 29.386 18.5862 29.0596 18.7228 28.7262C18.8595 28.3929 19.0236 27.9453 19.0877 27.7318C19.1517 27.5182 19.2251 27.3144 19.2509 27.2788C19.2767 27.2432 19.3169 27.134 19.3403 27.0361C19.3637 26.9382 19.4114 26.8581 19.4463 26.8581C19.4813 26.8581 19.5098 26.7936 19.5098 26.7147C19.5098 26.5341 19.7044 26.0168 19.7723 26.0168C19.8002 26.0168 19.8438 25.9223 19.8692 25.8068C19.9176 25.5868 19.9567 25.4888 20.286 24.7632C20.397 24.5186 20.5179 24.1545 20.5545 23.9542C20.5912 23.7539 20.6595 23.5464 20.7062 23.493C20.753 23.4396 20.8559 23.1484 20.9349 22.8458C21.014 22.5433 21.1183 22.2321 21.1667 22.1541C21.2152 22.0763 21.3307 21.7268 21.4235 21.3776C21.5163 21.0284 21.6155 20.7135 21.644 20.6779C21.6724 20.6423 21.7312 20.4523 21.7746 20.2557C21.8415 19.9529 21.8382 19.8614 21.7527 19.6571C21.6973 19.5244 21.6101 19.4159 21.559 19.4159C21.5078 19.4159 21.4508 19.3359 21.4323 19.238C21.3797 18.9588 21.2275 18.5913 21.1117 18.4633C21.0535 18.3991 20.9691 18.2012 20.9241 18.0237C20.879 17.8462 20.7927 17.6276 20.7322 17.5379C20.6717 17.4481 20.5742 17.2152 20.5154 17.0202C20.4566 16.8251 20.3493 16.5199 20.2769 16.342C20.2046 16.164 20.0744 15.8 19.9877 15.533C19.9009 15.2661 19.7904 14.9749 19.7421 14.8859C19.6937 14.7969 19.6344 14.6315 19.6102 14.5182C19.586 14.405 19.5243 14.2777 19.4733 14.2353C19.4222 14.1928 19.3804 14.1079 19.3804 14.0466C19.3804 13.9852 19.3252 13.8713 19.2577 13.7936C19.1903 13.7158 19.1154 13.544 19.0913 13.4115C19.0672 13.2792 18.9666 13.0253 18.8677 12.8474C18.7687 12.6694 18.6375 12.3711 18.576 12.1844C18.5145 11.9977 18.4267 11.823 18.3809 11.7961C18.3351 11.7692 18.2823 11.6598 18.2637 11.5531C18.2069 11.2279 17.9705 10.4621 17.8639 10.2575C17.8086 10.1514 17.7631 10.0209 17.7628 9.96755C17.7615 9.69535 17.4163 8.52337 17.2468 8.21597C17.1402 8.0226 17.0524 7.815 17.0518 7.75475C17.0511 7.69443 16.9968 7.60707 16.9311 7.5606C16.8653 7.51407 16.7759 7.36724 16.7322 7.23425C16.6294 6.92083 16.5621 6.88595 16.435 7.07997ZM30.2184 7.78342C30.194 7.89913 30.1294 8.0901 30.0747 8.20782C30.0058 8.35627 29.9959 8.44261 30.0427 8.48933C30.0894 8.53612 30.0724 8.59449 29.9871 8.67972C29.9195 8.74734 29.8642 8.85917 29.8642 8.92829C29.8642 8.9974 29.8351 9.07189 29.7995 9.09389C29.7639 9.1159 29.7347 9.19084 29.7347 9.26041C29.7347 9.32997 29.7088 9.43746 29.6771 9.49927C29.6119 9.6263 29.3844 10.3539 29.3789 10.4529C29.377 10.4885 29.3562 10.5482 29.3327 10.5857C29.2615 10.6991 29.0895 11.2227 29.0886 11.3291C29.088 11.3838 29.0303 11.541 28.9602 11.6784C28.8902 11.8158 28.7729 12.1204 28.6996 12.3554C28.6262 12.5904 28.5379 12.8721 28.5033 12.9814C28.4687 13.0907 28.4404 13.229 28.4404 13.2888C28.4404 13.3485 28.4113 13.3974 28.3757 13.3974C28.3401 13.3974 28.311 13.4294 28.311 13.4686C28.311 13.5076 28.2717 13.6314 28.2235 13.7436C28.1754 13.8557 28.0423 14.195 27.9276 14.4976C27.8129 14.8001 27.681 15.135 27.6346 15.2418C27.588 15.3486 27.5121 15.567 27.4658 15.7272C27.4196 15.8873 27.3623 16.0475 27.3385 16.0831C27.3148 16.1187 27.227 16.3517 27.1434 16.6008C27.0598 16.85 26.9559 17.0975 26.9125 17.1509C26.8692 17.2043 26.756 17.4518 26.661 17.701C26.4916 18.1456 26.3555 18.4642 26.1565 18.8814C26.1015 18.9967 26.0378 19.1767 26.0147 19.2814C25.9918 19.386 25.9311 19.5064 25.8801 19.5488C25.8289 19.5912 25.7871 19.6616 25.7871 19.7051C25.7871 19.7487 25.7418 19.8753 25.6863 19.9864C25.5271 20.3056 25.4979 20.6218 25.6115 20.7953C25.6664 20.879 25.7315 21.0825 25.7562 21.2474C25.781 21.4124 25.841 21.5803 25.8895 21.6206C25.9381 21.6609 25.9978 21.8002 26.0221 21.9301C26.0464 22.06 26.1736 22.3702 26.3047 22.6193C26.4357 22.8685 26.5946 23.2325 26.6577 23.4282C26.7208 23.624 26.8074 23.8424 26.8501 23.9136C26.8928 23.9848 26.9934 24.2323 27.0736 24.4637C27.1538 24.695 27.2597 24.9717 27.309 25.0785C27.3582 25.1853 27.5135 25.5207 27.6542 25.8241C27.7947 26.1273 28.0032 26.6806 28.1175 27.0536C28.2318 27.4266 28.3779 27.7868 28.4421 27.854C28.5567 27.9737 28.5626 27.9734 28.7339 27.8387C28.83 27.763 28.9343 27.7171 28.9658 27.7365C28.9972 27.7559 29.0229 27.682 29.0229 27.5722C29.0229 27.4189 29.0603 27.3584 29.1847 27.3111C29.2736 27.2773 29.3465 27.2144 29.3465 27.1714C29.3465 27.0343 29.6185 26.5254 29.7107 26.49C29.7595 26.4713 29.7995 26.4026 29.7995 26.3373C29.7995 26.272 29.8298 26.1999 29.8669 26.1769C29.904 26.154 29.9799 26.0212 30.0357 25.8819C30.0915 25.7426 30.1599 25.6286 30.1877 25.6286C30.2156 25.6286 30.2572 25.5485 30.28 25.4506C30.3029 25.3527 30.3616 25.1853 30.4105 25.0785C30.4594 24.9717 30.5487 24.7533 30.6091 24.5931C30.6694 24.4329 30.7435 24.2536 30.7736 24.1947C30.8395 24.0659 31.0146 23.1359 31.058 22.684C31.095 22.2996 31.1859 21.8121 31.2874 21.4544C31.3278 21.3121 31.3902 21.0645 31.4261 20.9044C31.4621 20.7442 31.5622 20.4595 31.6486 20.2716C31.735 20.0838 31.8056 19.914 31.8056 19.8945C31.8056 19.7955 32.276 18.8982 32.3279 18.8982C32.3609 18.8982 32.3881 18.8424 32.3881 18.7741C32.3881 18.7059 32.4441 18.5193 32.5126 18.3595C32.5812 18.1996 32.6576 17.9279 32.6826 17.7555C32.7076 17.5831 32.7504 17.413 32.7778 17.3774C32.9476 17.1567 33.0354 14.9165 32.8981 14.3034C32.8623 14.1433 32.8088 13.8812 32.7792 13.721C32.6742 13.1518 32.5331 12.5791 32.4673 12.4552C32.4306 12.3861 32.3239 12.0821 32.2303 11.7796C31.9495 10.8725 31.7709 10.403 31.3281 9.40932C31.1992 9.12011 31.0938 8.85432 31.0938 8.81866C31.0938 8.783 31.052 8.71913 31.0008 8.67668C30.9498 8.63429 30.8878 8.5079 30.8632 8.39588C30.8081 8.14524 30.7202 7.98209 30.5154 7.75106C30.313 7.52268 30.2725 7.52708 30.2184 7.78342ZM6.97199 8.12828C6.86307 8.35666 6.86469 8.36922 7.08569 9.01811C7.20904 9.38013 7.34572 9.69917 7.38953 9.72707C7.43328 9.75496 7.51093 9.91862 7.56206 10.0908C7.67421 10.4686 7.84389 10.8088 7.92006 10.8088C7.95061 10.8088 8.02477 10.9617 8.08483 11.1486C8.14488 11.3355 8.26292 11.5943 8.34718 11.7237C8.43144 11.8531 8.54437 12.0643 8.59808 12.1929C8.69761 12.431 8.85435 12.5007 8.9179 12.335C8.93725 12.2845 8.9179 12.2298 8.87487 12.2133C8.83183 12.1967 8.7897 12.0997 8.78129 11.9976C8.76097 11.7515 8.55472 11.1637 8.28823 10.5924C8.16941 10.3377 8.0372 9.98372 7.99442 9.80576C7.95164 9.62779 7.86512 9.42394 7.80215 9.35275C7.73918 9.28157 7.62153 9.01947 7.54057 8.77032C7.40629 8.35666 7.17985 7.89667 7.11054 7.89667C7.09508 7.89667 7.03276 8.00092 6.97199 8.12828ZM27.2432 8.41439C27.2212 8.44998 27.2232 8.51133 27.2475 8.55074C27.291 8.62109 27.4016 8.51327 27.404 8.39821C27.4055 8.32728 27.2899 8.33893 27.2432 8.41439ZM27.0491 9.12625C27.0233 9.16806 27.0312 9.23135 27.0668 9.26694C27.11 9.31011 27.1472 9.30635 27.1785 9.25568C27.2043 9.21388 27.1964 9.15058 27.1608 9.11499C27.1176 9.07183 27.0804 9.07558 27.0491 9.12625ZM5.80363 9.36628C5.73108 9.46814 5.60249 9.58857 5.51791 9.63387C5.39346 9.70047 5.0684 10.132 4.9591 10.3757C4.94622 10.4044 4.86584 10.4978 4.78055 10.583C4.69519 10.6684 4.62536 10.7799 4.62536 10.8308C4.62536 10.8817 4.55896 10.9669 4.47775 11.0201C4.39659 11.0733 4.25972 11.2538 4.17359 11.4212C4.08745 11.5887 3.96812 11.7599 3.90839 11.8018C3.76834 11.8999 3.62468 12.3281 3.48987 13.049C3.43073 13.3652 3.35934 13.6676 3.33119 13.721C3.30304 13.7744 3.26143 14.2695 3.23865 14.8212C3.10618 18.0318 3.05311 18.9424 2.99183 19.0569C2.90751 19.2145 2.89223 21.7457 2.97228 22.2948C3.01267 22.5719 3.06916 22.7139 3.17083 22.7938C3.24894 22.8553 3.3497 23.0372 3.39474 23.1981C3.43979 23.3589 3.51667 23.5238 3.56566 23.5643C3.61458 23.605 3.65464 23.6625 3.65464 23.6922C3.65464 23.7562 3.9632 24.2196 4.03814 24.2681C4.06681 24.2867 4.17009 24.4715 4.26762 24.6787C4.36521 24.886 4.48422 25.0705 4.53211 25.0889C4.57993 25.1073 4.65241 25.2289 4.69312 25.3592C4.73382 25.4895 4.83258 25.6544 4.91257 25.7256C4.99255 25.7968 5.12341 25.9934 5.2034 26.1625C5.37793 26.5315 5.56547 26.577 5.67051 26.2757C5.70772 26.1689 5.76169 26.0816 5.79049 26.0816C5.81929 26.0816 5.86297 25.935 5.88763 25.7558C5.92076 25.5145 5.98696 25.3723 6.14293 25.2069C6.2587 25.0842 6.34031 24.9706 6.32426 24.9545C6.27766 24.908 6.43576 24.4671 6.66421 24.0064C6.78005 23.7727 6.89401 23.4945 6.9173 23.3882C6.94067 23.2819 7.03153 23.0532 7.11922 22.88C7.2069 22.7067 7.27867 22.5262 7.27867 22.4789C7.27867 22.4316 7.3078 22.3928 7.34339 22.3928C7.37898 22.3928 7.4081 22.3403 7.4081 22.2761C7.4081 22.2119 7.47651 22.0153 7.56005 21.8392C7.6436 21.6632 7.76559 21.3881 7.83108 21.2279C7.89651 21.0678 7.98419 20.893 8.02594 20.8397C8.06761 20.7863 8.11848 20.6843 8.13893 20.6131C8.22701 20.3067 8.39488 19.8939 8.46788 19.8042C8.51136 19.7508 8.61691 19.547 8.7024 19.3512C8.78789 19.1554 8.89007 18.9516 8.92942 18.8982C9.03931 18.7491 9.15541 18.4524 9.15541 18.3206C9.15541 18.2555 9.19909 18.166 9.25248 18.1216C9.30587 18.0773 9.34955 17.9736 9.34955 17.891C9.34955 17.8085 9.37867 17.723 9.41427 17.701C9.49619 17.6504 9.49982 17.2156 9.41834 17.2156C9.38495 17.2156 9.35861 17.1064 9.35971 16.9729C9.36146 16.7682 9.11489 16.0927 8.90334 15.7226C8.87137 15.6667 8.75217 15.3974 8.63833 15.124C8.52457 14.8507 8.41235 14.6269 8.38899 14.6268C8.36563 14.6266 8.29159 14.4883 8.22455 14.3194C8.15744 14.1505 7.97759 13.7493 7.82487 13.4279C7.67214 13.1065 7.52562 12.7571 7.49929 12.6513C7.47295 12.5456 7.41775 12.4299 7.37665 12.3944C7.33556 12.3588 7.21842 12.1112 7.11643 11.8443C7.01444 11.5773 6.89647 11.3152 6.85434 11.2618C6.81214 11.2085 6.71365 10.9755 6.63541 10.7441C6.55723 10.5128 6.44301 10.2361 6.38172 10.1293C6.32037 10.0226 6.21664 9.78958 6.15114 9.61161C5.99046 9.17492 5.95681 9.15117 5.80363 9.36628ZM3.46049 11.5207C3.46049 11.5563 3.48962 11.5854 3.52521 11.5854C3.5608 11.5854 3.58992 11.5563 3.58992 11.5207C3.58992 11.4851 3.5608 11.456 3.52521 11.456C3.48962 11.456 3.46049 11.4851 3.46049 11.5207ZM27.039 12.0736C26.9808 12.2254 27.0437 12.2432 27.1329 12.1002C27.183 12.0201 27.1872 11.9737 27.1447 11.9737C27.1076 11.9737 27.0601 12.0186 27.039 12.0736ZM8.93505 12.5869C8.90975 12.6878 8.91551 12.7877 8.94793 12.8089C8.98029 12.83 9.07173 13.044 9.15107 13.2842C9.23048 13.5244 9.32017 13.721 9.35046 13.721C9.44242 13.721 9.48927 13.4778 9.42132 13.353C9.38624 13.2885 9.27286 13.0484 9.16932 12.8196C8.98902 12.421 8.97919 12.4112 8.93505 12.5869ZM26.396 13.6159C26.3727 13.6768 26.3722 13.7452 26.395 13.768C26.4178 13.7908 26.4709 13.775 26.513 13.7329C26.5714 13.6745 26.5716 13.6383 26.5141 13.5808C26.4565 13.5232 26.4284 13.5315 26.396 13.6159ZM9.41427 13.8112C9.41427 13.8251 9.45795 13.8534 9.51134 13.8739C9.56473 13.8943 9.60841 13.8829 9.60841 13.8484C9.60841 13.8139 9.56473 13.7857 9.51134 13.7857C9.45795 13.7857 9.41427 13.7972 9.41427 13.8112ZM9.72367 14.5526C9.77427 14.7537 9.85161 14.9619 9.89549 15.0153C9.93943 15.0687 10.0128 15.207 10.0586 15.3227C10.1723 15.6102 10.2718 15.5898 10.2171 15.2903C10.1599 14.9778 9.82417 14.2609 9.71538 14.2191C9.64841 14.1934 9.65009 14.2601 9.72367 14.5526ZM27.0643 14.5363C27.006 14.5946 27.0863 14.761 27.1529 14.7199C27.1848 14.7002 27.2109 14.6422 27.2109 14.5908C27.2109 14.4955 27.1338 14.4669 27.0643 14.5363ZM26.027 14.7572C26.0085 14.828 26.0167 14.8859 26.0452 14.8859C26.1212 14.8859 26.1789 14.7016 26.1152 14.6622C26.0853 14.6437 26.0455 14.6864 26.027 14.7572ZM21.0484 15.1396C21.0641 15.2469 21.1224 15.3721 21.1778 15.4177C21.2664 15.4906 21.2728 15.4772 21.2312 15.3065C21.2052 15.1997 21.1469 15.0746 21.1018 15.0284C21.0352 14.9602 21.0252 14.9811 21.0484 15.1396ZM25.6577 15.5692C25.6577 15.6247 25.6868 15.6521 25.7224 15.6301C25.758 15.6081 25.7871 15.5627 25.7871 15.5292C25.7871 15.4957 25.758 15.4683 25.7224 15.4683C25.6868 15.4683 25.6577 15.5137 25.6577 15.5692ZM21.3865 16.0058C21.3865 16.0975 21.4156 16.1905 21.4512 16.2125C21.4868 16.2345 21.516 16.3317 21.516 16.4285C21.516 16.5252 21.5742 16.6543 21.6454 16.7152C21.7166 16.7762 21.7748 16.8961 21.7748 16.9815C21.7748 17.0671 21.8149 17.1525 21.8639 17.1712C21.9363 17.1991 21.9417 17.1555 21.8929 16.938C21.8598 16.791 21.8092 16.6404 21.7804 16.6033C21.7515 16.5664 21.7076 16.4511 21.6827 16.3471C21.6577 16.2431 21.5809 16.0863 21.5119 15.9986L21.3865 15.8391V16.0058ZM2.13339 17.523C2.11093 17.692 2.06692 17.8887 2.03547 17.9598C1.96836 18.1119 1.86598 19.4688 1.89504 19.8204C1.90611 19.9539 1.93827 20.0631 1.96649 20.0631C2.05398 20.0631 2.16503 19.2044 2.20904 18.1877C2.25033 17.2341 2.21396 16.915 2.13339 17.523ZM22.0181 17.2579C21.9422 17.393 22.0779 17.9158 22.2433 18.1244C22.4486 18.3835 22.4629 18.3134 22.3156 17.77C22.2101 17.3808 22.0775 17.1525 22.0181 17.2579ZM25.5586 18.154C25.4592 18.4722 25.4593 18.4827 25.5605 18.3519C25.6553 18.2294 25.6921 18.0569 25.6233 18.0569C25.6044 18.0569 25.5753 18.1006 25.5586 18.154ZM32.4892 20.144C32.4417 20.2597 32.382 20.4562 32.3567 20.5808C32.3314 20.7054 32.2672 20.8757 32.2142 20.9593C32.1155 21.1149 31.9372 22.1801 31.9417 22.587L31.9442 22.8135L32.0378 22.5577C32.0893 22.4171 32.1605 22.2841 32.1959 22.2621C32.2313 22.2403 32.2738 22.1078 32.2904 21.9678C32.3455 21.5025 32.618 20.0967 32.669 20.0145C32.6978 19.9683 32.6885 19.9336 32.6474 19.9336C32.6079 19.9336 32.5367 20.0283 32.4892 20.144ZM10.8431 20.4028C10.5306 21.0836 10.4445 21.2622 10.383 21.3574C10.3484 21.4108 10.2906 21.5272 10.2545 21.6162C10.2183 21.7052 10.1184 21.9026 10.0324 22.0549C9.94642 22.2071 9.84119 22.4401 9.79854 22.5726C9.75589 22.7051 9.69921 22.8426 9.67261 22.8782C9.64601 22.9138 9.60323 23.0114 9.57748 23.0952C9.55178 23.1789 9.46164 23.3493 9.37712 23.4738C9.29267 23.5983 9.20491 23.7995 9.18213 23.9209C9.15935 24.0422 9.11587 24.1569 9.08545 24.1757C9.05503 24.1945 8.93809 24.4053 8.82549 24.6442C8.71289 24.883 8.58397 25.1222 8.53893 25.1755C8.49389 25.2289 8.4128 25.4037 8.3587 25.5638C8.3046 25.724 8.21439 25.9424 8.15821 26.0492C8.10204 26.156 8.0559 26.2798 8.05564 26.3242C8.05545 26.3688 8.03001 26.4051 7.99914 26.4051C7.96834 26.4051 7.88266 26.5435 7.80888 26.7125C7.73504 26.8816 7.61765 27.1218 7.54795 27.2464C7.32786 27.6397 6.89038 28.614 6.89038 28.7107C6.89038 28.7619 6.93297 28.82 6.985 28.84C7.03703 28.8599 7.09741 28.9324 7.11915 29.0009C7.1409 29.0694 7.24502 29.2196 7.35051 29.3346C7.45599 29.4497 7.55895 29.6094 7.57927 29.6894C7.59966 29.7695 7.64955 29.8387 7.69013 29.8433C7.73077 29.8478 7.83684 29.859 7.92582 29.8681C8.0148 29.8772 8.71373 29.9036 9.47898 29.9269C10.2442 29.95 11.0596 29.9966 11.291 30.0301C11.7544 30.0975 14.6384 30.1031 14.9474 30.0372C15.1085 30.0029 15.1474 29.9573 15.1758 29.7698L15.21 29.5438L15.2554 29.7557C15.3104 30.0129 15.4689 30.0914 15.5956 29.924C15.72 29.7598 15.7143 29.7215 15.5579 29.6719C15.4605 29.6409 15.4285 29.5827 15.4402 29.4572C15.4637 29.2043 15.3731 28.9779 15.2651 29.0194C15.1936 29.0469 15.1739 28.9789 15.1739 28.7043C15.1739 28.5117 15.1448 28.3362 15.1092 28.3142C15.0736 28.2922 15.0445 28.2222 15.0445 28.1586C15.0445 28.0951 14.9891 27.993 14.9214 27.9318C14.8537 27.8705 14.7796 27.7203 14.7567 27.5979C14.7337 27.4755 14.6626 27.3245 14.5986 27.2623C14.5347 27.2002 14.413 26.9746 14.3283 26.7611C14.2436 26.5475 14.1125 26.2708 14.0369 26.1463C13.9613 26.0217 13.8613 25.8033 13.8146 25.6609C13.768 25.5185 13.6949 25.3729 13.6523 25.3373C13.6096 25.3017 13.4619 25.0251 13.324 24.7225C13.1861 24.42 13.0553 24.1579 13.0334 24.1401C13.0114 24.1223 12.9741 24.0285 12.9504 23.9316C12.9267 23.8347 12.8439 23.6964 12.7664 23.6242C12.689 23.552 12.6459 23.493 12.6708 23.493C12.7152 23.493 12.5667 23.1691 12.1923 22.4493C12.0881 22.249 12.0029 22.0519 12.0029 22.0112C12.0029 21.9705 11.9356 21.8286 11.8535 21.6958C11.7713 21.5631 11.637 21.2943 11.5551 21.0985C11.4732 20.9027 11.3693 20.6989 11.3242 20.6455C11.2791 20.5921 11.2036 20.4393 11.1565 20.3058C11.1094 20.1723 11.0547 20.0631 11.0349 20.0631C11.0152 20.0631 10.9289 20.2159 10.8431 20.4028ZM1.1129 20.2952C1.05278 20.519 1.06643 21.1231 1.14169 21.566C1.20059 21.9128 1.26025 22.0499 1.4355 22.2412C1.55639 22.3733 1.68485 22.5269 1.72096 22.5827C1.76923 22.6573 1.77661 22.6251 1.74891 22.4608C1.72821 22.3379 1.68731 22.2214 1.65799 22.2019C1.62874 22.1823 1.58745 22.1081 1.56629 22.0369C1.37758 21.4025 1.31966 21.139 1.29073 20.7827C1.25294 20.3175 1.16887 20.087 1.1129 20.2952ZM33.7471 20.4161C33.7471 20.5076 33.7191 20.6331 33.6849 20.6949C33.6248 20.8037 33.4957 21.3198 33.4626 21.5839C33.4393 21.7689 33.3579 22.08 33.2933 22.231C33.2628 22.3022 33.2095 22.4624 33.1749 22.587C32.9913 23.2467 32.8854 23.6033 32.8386 23.7195C32.6551 24.1748 32.3734 25.1233 32.3726 25.2888C32.3722 25.3689 32.3329 25.4344 32.2852 25.4344C32.1773 25.4344 32.0437 25.672 32.1002 25.7634C32.1231 25.8005 32.099 25.88 32.0466 25.94C31.9941 26.0001 31.913 26.2021 31.8662 26.389C31.8194 26.5758 31.7556 26.7287 31.7243 26.7287C31.693 26.7287 31.6868 26.7895 31.7104 26.8639C31.7412 26.9608 31.7137 27.0268 31.6133 27.0971C31.5363 27.151 31.4877 27.2326 31.5053 27.2784C31.5229 27.3242 31.48 27.4231 31.4101 27.4982C31.3401 27.5733 31.3005 27.6347 31.3221 27.6347C31.3438 27.6347 31.3012 27.7193 31.2276 27.8226C31.154 27.9261 31.0938 28.0437 31.0938 28.0842C31.0938 28.1246 31.0321 28.2411 30.9567 28.343C30.8813 28.445 30.8394 28.5603 30.8634 28.5993C30.888 28.639 30.863 28.6702 30.8064 28.6702C30.7509 28.6702 30.7055 28.7008 30.7055 28.7383C30.7055 28.7758 30.6327 28.9136 30.5437 29.0445C30.3202 29.3735 30.3316 29.4614 30.5922 29.4158C30.7079 29.3955 30.9918 29.3688 31.2232 29.3563C31.4545 29.3438 31.6897 29.3142 31.7458 29.2905C31.844 29.249 32.0645 28.8305 32.0645 28.6855C32.0645 28.6466 32.1379 28.557 32.2277 28.4864C32.3872 28.3609 32.6021 27.8551 32.7081 27.3555C32.7369 27.2196 32.8121 27.0012 32.875 26.8701C32.938 26.7389 33.0107 26.5869 33.0367 26.5321C33.0627 26.4773 33.1043 26.3026 33.129 26.1438C33.1539 25.985 33.2263 25.7386 33.29 25.5962C33.3548 25.4512 33.4105 25.159 33.4166 24.9318C33.4226 24.7088 33.454 24.4564 33.4865 24.3709C33.519 24.2855 33.5762 23.8564 33.6134 23.4174C33.6781 22.6558 33.6988 22.4267 33.7759 21.6162C33.8443 20.8985 33.8557 20.3167 33.8021 20.2836C33.7718 20.2649 33.7471 20.3245 33.7471 20.4161ZM22.906 21.5022C22.8814 21.5997 22.8571 21.8035 22.852 21.9552C22.844 22.1915 22.821 22.2341 22.6917 22.2524C22.5564 22.2715 22.5505 22.285 22.6354 22.3818C22.7787 22.5455 22.709 23.1854 22.5361 23.2933C22.4097 23.3723 22.4065 23.3627 22.4339 22.9831C22.4569 22.6651 22.4463 22.6046 22.3774 22.6618C22.3307 22.7005 22.2925 22.7632 22.2925 22.801C22.2925 22.8388 22.2375 22.9881 22.1703 23.1328C21.9726 23.5585 21.92 23.7712 21.9543 24.0052C21.9817 24.1914 21.9699 24.2191 21.8783 24.1839C21.8081 24.1569 21.7551 24.1818 21.7278 24.2545C21.7047 24.3161 21.6506 24.3957 21.6077 24.4313C21.5648 24.4669 21.5125 24.598 21.4915 24.7225C21.4705 24.8471 21.4394 25.0308 21.4225 25.1307C21.4056 25.2306 21.3318 25.3617 21.2586 25.4219C21.1708 25.4943 21.0927 25.6911 21.0286 26.001C20.9753 26.2593 20.8811 26.5294 20.8194 26.6013C20.7576 26.6732 20.6744 26.8842 20.6345 27.0701C20.5947 27.2561 20.5392 27.4628 20.5113 27.5295C20.4628 27.6452 20.4681 27.6458 20.6246 27.5433C20.7682 27.4492 20.9196 27.2003 21.1498 26.6802C21.1853 26.6001 21.251 26.5346 21.2959 26.5346C21.3408 26.5346 21.3901 26.6001 21.4055 26.6802C21.421 26.7602 21.4376 26.6574 21.4424 26.4517C21.4484 26.1987 21.4803 26.0664 21.5411 26.0431C21.5904 26.0241 21.6482 25.9217 21.6695 25.8155C21.6971 25.6774 21.7406 25.6279 21.8223 25.6417C21.9158 25.6574 21.9379 25.6108 21.9436 25.385C21.9475 25.2286 21.9967 25.0581 22.0568 24.9916C22.1153 24.927 22.1631 24.832 22.1631 24.7804C22.1631 24.7288 22.2136 24.6146 22.2753 24.5267C22.3523 24.4168 22.3878 24.2398 22.3886 23.9622C22.3896 23.5687 22.4567 23.4104 22.4984 23.7033C22.5115 23.7955 22.5606 23.8456 22.6323 23.8399C22.711 23.8337 22.7455 23.878 22.7455 23.9855C22.7455 24.0705 22.7193 24.1401 22.6872 24.1401C22.6052 24.1401 22.4786 24.5109 22.4537 24.8236C22.4379 25.0229 22.4613 25.1043 22.5506 25.16C22.6604 25.2286 22.6682 25.203 22.6656 24.7853C22.6641 24.5386 22.6918 24.2999 22.7272 24.2547C22.8287 24.125 22.8753 23.8625 22.8106 23.7846C22.7431 23.7033 22.8638 23.3083 23.0665 22.9475C23.1455 22.807 23.1985 22.5944 23.1985 22.419C23.1985 22.2575 23.2271 22.072 23.2621 22.0067C23.31 21.9172 23.3003 21.8783 23.223 21.8487C23.1666 21.827 23.1365 21.7673 23.1562 21.7159C23.176 21.6646 23.1377 21.5556 23.0713 21.4738L22.9506 21.325L22.906 21.5022ZM23.1694 23.2467C23.1431 23.3426 23.0734 23.4339 23.0144 23.4495C22.9543 23.4655 22.9837 23.4812 23.0815 23.4855C23.2895 23.4944 23.3223 23.4487 23.2623 23.2341L23.2171 23.0723L23.1694 23.2467ZM24.1149 23.3143C24.0736 23.3556 24.0392 23.42 24.0384 23.4574C24.0376 23.4948 23.98 23.5981 23.9104 23.6871C23.8408 23.7761 23.7832 23.8963 23.7824 23.9542C23.7816 24.0122 23.7373 24.0958 23.6839 24.1401C23.6305 24.1844 23.5868 24.2754 23.5868 24.3422C23.5868 24.409 23.5617 24.4637 23.5309 24.4637C23.5001 24.4637 23.3685 24.6749 23.2385 24.9329C23.1085 25.1909 22.9169 25.5477 22.8126 25.7256C22.7084 25.9036 22.5766 26.1366 22.5199 26.2433C22.4631 26.3501 22.3471 26.554 22.262 26.6964C22.1769 26.8387 22.0612 27.0542 22.005 27.1752C21.9488 27.2963 21.7316 27.649 21.5224 27.9591C21.3132 28.2692 21.1231 28.5826 21.1 28.6555C21.0769 28.7283 21.0154 28.8232 20.9634 28.8664C20.9114 28.9095 20.8688 28.9836 20.8688 29.0311C20.8688 29.0785 20.7955 29.1905 20.706 29.2802C20.5645 29.4216 20.5487 29.4793 20.5855 29.7199C20.6088 29.8722 20.6341 30.0045 20.6415 30.014C20.649 30.0235 20.8706 30.0446 21.1341 30.0609C21.3975 30.0772 21.9042 30.1101 22.2602 30.134C23.4433 30.2133 26.1273 30.1919 26.2929 30.1017C26.3753 30.0568 26.5042 30.0083 26.5793 29.9938C26.787 29.9538 26.8564 29.8567 26.7601 29.7407C26.7146 29.6858 26.6941 29.6409 26.7147 29.6409C26.7353 29.6409 26.711 29.5244 26.6608 29.382C26.6106 29.2396 26.59 29.1227 26.6151 29.1222C26.6402 29.1216 26.6316 29.0998 26.5959 29.0737C26.5279 29.0238 26.2633 28.3072 26.0288 27.5376C25.9529 27.2885 25.8679 27.0687 25.8399 27.049C25.7741 27.003 25.5283 26.2892 25.5283 26.1441C25.5283 26.0828 25.4878 25.9991 25.4384 25.9581C25.3889 25.9171 25.3339 25.8188 25.3161 25.7398C25.2594 25.4888 24.9743 24.7379 24.9014 24.6476C24.8628 24.5998 24.767 24.4006 24.6884 24.2048C24.4796 23.6845 24.2982 23.3061 24.2405 23.2705C24.2128 23.2533 24.1562 23.2731 24.1149 23.3143ZM7.98225 23.6709C7.90181 23.7736 7.90408 23.7758 8.00672 23.6954C8.11453 23.6108 8.14876 23.5577 8.0955 23.5577C8.08211 23.5577 8.03111 23.6087 7.98225 23.6709ZM7.67952 24.2716C7.56581 24.52 7.47282 24.7486 7.47282 24.7796C7.47282 24.8107 7.43392 24.8684 7.38642 24.9078C7.33886 24.9473 7.26126 25.0969 7.21396 25.2403C7.16665 25.3837 7.08906 25.5332 7.04149 25.5727C6.99399 25.6121 6.9551 25.6975 6.9551 25.7624C6.9551 25.8274 6.83919 26.1045 6.69747 26.3783C6.42372 26.9073 6.30769 27.3111 6.42936 27.3111C6.53956 27.3111 6.8005 26.8547 6.85376 26.5689C6.88003 26.4276 6.96856 26.1946 7.05049 26.0511C7.13235 25.9077 7.24962 25.6302 7.31103 25.4344C7.37245 25.2386 7.45858 25.0494 7.50252 25.0138C7.5464 24.9782 7.61571 24.8471 7.65648 24.7225C7.8591 24.1039 7.92822 23.862 7.90816 23.842C7.89605 23.8299 7.79316 24.0232 7.67952 24.2716ZM30.4466 26.7934C30.4466 26.829 30.3924 26.9124 30.3261 26.9786C30.2598 27.0449 30.1292 27.2607 30.0357 27.4582C29.9423 27.6556 29.7854 27.9053 29.687 28.013C29.3735 28.3564 29.1745 28.6309 29.0553 28.8849C28.9532 29.1022 28.9507 29.1434 29.0343 29.227C29.1521 29.3448 29.3355 29.2829 29.416 29.0982C29.4488 29.0229 29.4998 28.9177 29.5294 28.8643C29.739 28.4863 29.8642 28.2093 29.8642 28.1234C29.8642 28.0682 29.8893 28.023 29.9201 28.023C29.9508 28.023 30.0276 27.8846 30.0905 27.7156C30.1535 27.5466 30.2554 27.35 30.3169 27.2788C30.4574 27.1161 30.592 26.7287 30.508 26.7287C30.4742 26.7287 30.4466 26.7578 30.4466 26.7934ZM6.22867 27.5414C6.17664 27.5934 6.2477 27.8289 6.31552 27.8289C6.34691 27.8289 6.37266 27.7561 6.37266 27.6671C6.37266 27.5148 6.30996 27.4601 6.22867 27.5414ZM27.6114 28.4922C27.6901 28.7283 27.7933 28.8714 27.7933 28.7446C27.7933 28.6553 27.6119 28.2819 27.5685 28.2819C27.5535 28.2819 27.5728 28.3765 27.6114 28.4922ZM15.1865 29.2849C15.1878 29.3917 15.2023 29.4276 15.2187 29.3646C15.2352 29.3016 15.2341 29.2143 15.2163 29.1705C15.1986 29.1267 15.1852 29.1782 15.1865 29.2849ZM20.3511 29.8712C20.3511 29.9267 20.3807 29.9538 20.4168 29.9314C20.453 29.9091 20.4659 29.8637 20.4454 29.8306C20.3899 29.7408 20.3511 29.7575 20.3511 29.8712ZM30.9315 30.1772C30.7929 30.2564 30.7738 30.2608 30.479 30.2827C30.3092 30.2953 30.3011 30.3041 30.4142 30.3527C30.6631 30.4597 30.9549 30.4265 31.032 30.2825C31.1229 30.1125 31.0953 30.0836 30.9315 30.1772ZM3.22305 30.4965C3.3996 30.5433 3.49188 30.5414 3.54339 30.4899C3.59678 30.4365 3.53168 30.4192 3.29547 30.4241L2.97513 30.4309L3.22305 30.4965ZM23.7163 30.6763C23.7163 30.7119 23.7454 30.741 23.781 30.741C23.8166 30.741 23.8457 30.7119 23.8457 30.6763C23.8457 30.6407 23.8166 30.6116 23.781 30.6116C23.7454 30.6116 23.7163 30.6407 23.7163 30.6763ZM1.42197 30.8057C1.31862 30.8501 1.34218 30.8623 1.53904 30.8659C1.68789 30.8686 1.76969 30.8448 1.74555 30.8057C1.69831 30.7293 1.59981 30.7293 1.42197 30.8057ZM22.5029 30.9816C22.4584 30.9976 22.422 31.0894 22.422 31.1857C22.422 31.3143 22.4563 31.3632 22.5514 31.3704C22.6531 31.378 22.6808 31.3402 22.6808 31.1938C22.6808 30.994 22.6317 30.9354 22.5029 30.9816ZM23.2895 31.0102C23.2627 31.0532 23.3235 31.2588 23.363 31.2588C23.4778 31.2588 23.7163 31.1132 23.7163 31.0431C23.7163 30.9522 23.3435 30.9235 23.2895 31.0102ZM4.62536 31.1564C4.62536 31.2069 4.6077 31.2942 4.58608 31.3505C4.51729 31.5298 4.79071 31.4704 4.8738 31.2881C4.97424 31.0676 4.97308 31.0646 4.78715 31.0646C4.69066 31.0646 4.62536 31.1016 4.62536 31.1564ZM5.70008 31.167C5.6322 31.3438 5.65601 31.3882 5.81877 31.3882C6.00152 31.3882 6.06611 31.3136 6.01 31.1675C5.95907 31.0346 5.75101 31.0343 5.70008 31.167ZM10.2556 31.1293C10.2556 31.1663 10.451 31.194 10.7124 31.194C11.0004 31.194 11.1544 31.1702 11.1292 31.1293C11.1072 31.0937 10.9017 31.0646 10.6724 31.0646C10.4377 31.0646 10.2556 31.0929 10.2556 31.1293ZM11.4528 31.1293C11.4283 31.1689 11.5276 31.194 11.7078 31.194C11.8701 31.194 12.0029 31.1649 12.0029 31.1293C12.0029 31.0937 11.8881 31.0646 11.7478 31.0646C11.6075 31.0646 11.4748 31.0937 11.4528 31.1293ZM25.9489 31.1293C25.9269 31.1649 25.9381 31.194 25.9736 31.194C26.0092 31.194 26.0563 31.1649 26.0784 31.1293C26.1004 31.0937 26.0892 31.0646 26.0536 31.0646C26.018 31.0646 25.9709 31.0937 25.9489 31.1293ZM29.9061 31.1124C29.6074 31.1358 29.5973 31.1427 29.6985 31.2545C29.757 31.3191 29.8002 31.3975 29.7945 31.4286C29.7536 31.6519 29.8236 31.6498 30.0583 31.4205C30.2996 31.185 30.3827 31.0489 30.2686 31.0763C30.2419 31.0827 30.0788 31.099 29.9061 31.1124ZM7.53753 31.2264C7.62373 31.3303 7.99054 31.3621 7.99054 31.2657C7.99054 31.1898 7.82668 31.1293 7.6214 31.1293C7.48259 31.1293 7.46952 31.1445 7.53753 31.2264ZM26.7286 31.5502C26.5135 31.7844 26.4563 31.8869 26.5068 31.9477C26.5442 31.9928 26.5541 32.0632 26.5288 32.1041C26.4941 32.1602 26.4714 32.1602 26.4367 32.1039C26.4034 32.05 26.3338 32.0616 26.1864 32.1455C26.074 32.2095 25.9819 32.2825 25.9817 32.3078C25.9815 32.3331 25.9258 32.406 25.858 32.4696C25.7902 32.5333 25.7247 32.6582 25.7124 32.7472C25.6953 32.871 25.6518 32.909 25.5272 32.909C25.3147 32.909 24.6406 33.3171 24.6007 33.4699C24.5836 33.5351 24.5121 33.5885 24.4416 33.5885C24.2749 33.5885 23.9976 33.7341 23.8379 33.9055C23.7682 33.9803 23.6614 34.0418 23.6005 34.0422C23.5396 34.0426 23.3917 34.1438 23.2718 34.2672C23.1363 34.4066 22.9649 34.5073 22.8188 34.5334C22.6896 34.5564 22.4827 34.6518 22.3591 34.7452C22.2356 34.8386 22.0754 34.9362 22.0032 34.962C21.9306 34.9879 22.0393 34.9999 22.2461 34.9889C22.5593 34.9721 22.6542 34.9368 22.8285 34.7721C22.9725 34.636 23.125 34.5643 23.3228 34.5396C23.4808 34.5199 23.6336 34.4596 23.6641 34.405C23.6946 34.3506 23.8934 34.2573 24.1062 34.1977C24.4081 34.1129 24.4928 34.0617 24.4928 33.9639C24.4928 33.8747 24.5254 33.8485 24.6061 33.873C24.7589 33.9194 26.162 33.1417 26.4 32.8787C26.4655 32.8063 26.5582 32.7472 26.6061 32.7472C26.654 32.7472 26.6931 32.7181 26.6931 32.6825C26.6931 32.6469 26.7323 32.6178 26.7801 32.6178C26.8279 32.6178 26.9662 32.4722 27.0875 32.2943C27.2087 32.1164 27.3242 31.9708 27.3441 31.9707C27.364 31.9707 27.4339 31.9314 27.4995 31.8834C27.6074 31.8046 27.6101 31.7767 27.5284 31.5922C27.4788 31.48 27.4178 31.3882 27.393 31.3882C27.3078 31.3882 27.2527 31.5423 27.3288 31.5677C27.435 31.6031 27.4244 31.7118 27.3149 31.7118C27.2653 31.7118 27.2063 31.7596 27.1839 31.8181C27.1615 31.8766 27.1246 31.906 27.102 31.8834C27.0795 31.8608 27.0212 31.8754 26.9726 31.9157C26.8621 32.0073 26.7932 31.9463 26.8475 31.8049C26.8699 31.7463 26.9286 31.7138 26.9778 31.7327C27.0379 31.7557 27.0803 31.701 27.1074 31.5654C27.1779 31.2131 27.0431 31.2076 26.7286 31.5502ZM24.814 31.4866C24.6584 31.5433 24.4925 31.553 24.2962 31.5171C23.922 31.4486 23.8581 31.5084 23.8889 31.899C23.9117 32.1873 23.8962 32.2299 23.713 32.3841C23.4193 32.6312 23.2633 32.6105 23.2633 32.3245C23.2633 32.1811 23.2271 32.0821 23.1662 32.0588C23.0259 32.0049 23.0469 31.9059 23.1985 31.9059C23.2987 31.9059 23.328 31.9491 23.328 32.0962C23.328 32.3212 23.3769 32.3619 23.5626 32.2917C23.6646 32.253 23.7117 32.1617 23.7454 31.9374C23.7703 31.7712 23.7726 31.6171 23.7504 31.5949C23.7282 31.5727 23.5004 31.5505 23.244 31.5454C22.9876 31.5403 22.6993 31.5216 22.6033 31.5038C22.4896 31.4827 22.4166 31.503 22.394 31.5619C22.373 31.6167 22.263 31.6533 22.1155 31.6545C21.8518 31.6568 21.3325 31.6937 20.8688 31.7431C20.7086 31.7602 20.2533 31.7984 19.857 31.828C18.9446 31.8961 18.9055 31.9267 19.0026 32.4973C19.0412 32.7237 19.1128 33.0007 19.1618 33.1129C19.2108 33.225 19.2509 33.3449 19.2509 33.3792C19.2509 33.4135 19.3041 33.511 19.369 33.5959C19.4339 33.6808 19.5346 33.9209 19.5926 34.1293C19.7492 34.6915 19.9297 34.7751 20.4419 34.5225C20.5453 34.4715 20.6717 34.4298 20.7229 34.4298C20.7741 34.4298 20.8901 34.3715 20.9806 34.3004C21.0711 34.2292 21.186 34.1709 21.2361 34.1709C21.3189 34.1709 21.9231 33.861 22.5837 33.4797C22.7261 33.3975 22.9208 33.2988 23.0163 33.2604C23.1118 33.2219 23.2379 33.1174 23.2964 33.0282C23.3549 32.9389 23.4951 32.8271 23.6081 32.7799C23.721 32.7326 23.9007 32.6048 24.0075 32.4958C24.1143 32.3869 24.2371 32.297 24.2806 32.296C24.3241 32.295 24.4988 32.1637 24.6689 32.0041C24.839 31.8445 25.0403 31.7134 25.1162 31.7129C25.2117 31.7121 25.2638 31.6618 25.2853 31.55C25.3106 31.4172 25.2917 31.3895 25.1795 31.3958C25.1044 31.3999 24.9399 31.4408 24.814 31.4866ZM22.6998 32.1009C22.722 32.1859 22.6925 32.2533 22.6149 32.2948C22.5226 32.3442 22.4899 32.3332 22.4684 32.2454C22.4531 32.1833 22.4392 32.2853 22.4375 32.4722C22.4358 32.659 22.4583 32.8119 22.4876 32.8119C22.5168 32.8119 22.5915 32.8314 22.6534 32.8551C22.7512 32.8926 22.7604 32.8698 22.7229 32.6827C22.6932 32.5344 22.7118 32.4184 22.7823 32.3108C22.8894 32.1473 22.8674 31.9706 22.74 31.9706C22.6975 31.9706 22.6802 32.0262 22.6998 32.1009ZM14.365 32.1648L13.4589 32.1971L13.6854 32.3121C13.81 32.3753 13.9848 32.4696 14.0737 32.5215C14.1627 32.5734 14.2829 32.6163 14.3409 32.6168C14.3988 32.6173 14.4824 32.6614 14.5267 32.7148C14.5711 32.7682 14.6379 32.8119 14.6752 32.8119C14.7125 32.8119 14.7967 32.8605 14.8624 32.9199C14.928 32.9793 15.0467 33.0324 15.1263 33.0379C15.2125 33.0439 15.3048 33.1174 15.3548 33.2199C15.4279 33.3698 15.4548 33.3817 15.5651 33.3128C15.6728 33.2455 15.7247 33.0353 15.7047 32.7472C15.7035 32.7294 15.8087 32.7148 15.9388 32.7148C16.1236 32.7148 16.1804 32.743 16.1997 32.8443C16.2234 32.9689 16.2196 32.9694 16.0967 32.8588C15.9943 32.7667 15.9553 32.7604 15.9001 32.8271C15.7953 32.9533 15.8589 33.4156 15.9915 33.4914C16.0537 33.527 16.1766 33.6251 16.2645 33.7092C16.3525 33.7935 16.5086 33.8866 16.6116 33.9161C16.8521 33.9851 17.0159 33.8325 17.1158 33.4463C17.1554 33.2931 17.2018 33.1193 17.2189 33.06C17.236 33.0007 17.2231 32.9356 17.1901 32.9152C17.1572 32.8949 17.1096 32.7396 17.0844 32.57C17.0592 32.4005 17.0071 32.2237 16.9688 32.1771C16.8969 32.0898 16.5142 32.088 14.365 32.1648ZM8.50826 32.264C8.50826 32.3068 8.73036 32.5198 9.38346 33.1031C9.66245 33.3523 10.0142 33.6726 10.1653 33.815C10.3163 33.9574 10.4747 34.0823 10.5172 34.0926C10.5597 34.1029 10.6884 34.183 10.8032 34.2706C10.918 34.3581 11.0567 34.4298 11.1112 34.4298C11.1658 34.4298 11.2428 34.4687 11.2823 34.5164C11.3219 34.564 11.5142 34.6388 11.7098 34.6826C11.9053 34.7263 12.081 34.7874 12.1 34.8182C12.1879 34.9603 13.0558 35.1384 13.6713 35.1407C13.7953 35.1411 13.8984 35.18 13.9191 35.2342C13.9387 35.2852 14.0034 35.3276 14.0628 35.3283C14.6857 35.3359 15.2864 35.3793 15.3522 35.4213C15.4685 35.4956 15.8783 35.3317 15.9223 35.1934C15.9426 35.1293 16.0155 35.0467 16.0843 35.0099C16.2478 34.9224 16.2443 34.8181 16.0779 34.8181C16.0055 34.8181 15.9293 34.7735 15.9085 34.7192C15.8876 34.6648 15.8154 34.5909 15.7481 34.5548C15.6468 34.5006 15.6149 34.5176 15.5632 34.6537C15.4883 34.8507 15.368 34.8708 15.368 34.6864C15.368 34.4586 15.1762 34.2356 14.9802 34.2356C14.8819 34.2356 14.7652 34.192 14.7209 34.1386C14.6766 34.0852 14.6072 34.0415 14.5667 34.0415C14.5263 34.0415 14.4584 33.9858 14.4159 33.9179C14.3735 33.8499 14.2427 33.7732 14.1254 33.7475C14.008 33.7217 13.8105 33.6463 13.6864 33.5799C13.5624 33.5134 13.4276 33.4591 13.3869 33.4591C13.3463 33.4591 13.2779 33.4168 13.2351 33.3652C13.1922 33.3135 13.0285 33.252 12.8712 33.2283C12.7139 33.2048 12.5853 33.162 12.5853 33.1333C12.5853 33.1045 12.4907 33.0615 12.375 33.0375C12.2593 33.0136 12.0135 32.9239 11.8289 32.8382C11.6442 32.7526 11.4618 32.6825 11.4234 32.6825C11.2885 32.6825 10.838 32.521 10.838 32.4726C10.838 32.4456 10.7687 32.4236 10.6841 32.4236C10.5995 32.4236 10.4257 32.3799 10.2979 32.3265C10.1351 32.2585 9.83265 32.2295 9.28691 32.2295C8.85862 32.2295 8.50826 32.245 8.50826 32.264ZM15.1739 32.3551C15.1739 32.4283 15.203 32.4883 15.2386 32.4883C15.2742 32.4883 15.3033 32.4464 15.3033 32.3951C15.3033 32.3438 15.2742 32.2838 15.2386 32.2618C15.203 32.2398 15.1739 32.2818 15.1739 32.3551ZM15.4004 32.2942C15.3407 32.3909 15.4238 32.4883 15.566 32.4883C15.7167 32.4883 15.734 32.3243 15.5892 32.2688C15.455 32.2172 15.4473 32.2183 15.4004 32.2942ZM14.3326 32.3551C14.3326 32.3886 14.3617 32.434 14.3973 32.456C14.4329 32.478 14.462 32.4505 14.462 32.3951C14.462 32.3396 14.4329 32.2942 14.3973 32.2942C14.3617 32.2942 14.3326 32.3216 14.3326 32.3551ZM15.9019 32.3403C15.7515 32.3688 15.7112 32.4528 15.8166 32.5179C15.8497 32.5384 15.8959 32.5244 15.9191 32.4868C15.9423 32.4491 16.0206 32.4371 16.093 32.4601C16.1845 32.4892 16.2161 32.4764 16.1968 32.4182C16.164 32.3198 16.0998 32.3029 15.9019 32.3403ZM16.6643 32.4738C16.6118 32.5314 16.578 32.6665 16.5889 32.7758C16.6124 33.0125 16.727 33.1631 16.727 32.9573C16.727 32.8807 16.7612 32.7431 16.803 32.6514C16.8965 32.4461 16.8012 32.324 16.6643 32.4738ZM27.7222 32.9666C27.6304 33.0517 27.4559 33.1725 27.3345 33.235C27.2131 33.2975 26.9981 33.4473 26.8567 33.568C26.7153 33.6887 26.5354 33.8035 26.4569 33.8232C26.3784 33.8429 26.2984 33.9001 26.2792 33.9502C26.2599 34.0005 26.1901 34.0415 26.124 34.0415C26.0579 34.0415 25.9355 34.1143 25.8518 34.2033C25.7682 34.2923 25.6613 34.3651 25.6141 34.3651C25.5669 34.3651 25.5283 34.3942 25.5283 34.4298C25.5283 34.5099 25.5637 34.5109 25.7071 34.435C26.1325 34.2098 26.3986 34.1035 26.4694 34.1307C26.5146 34.148 26.6037 34.1046 26.6675 34.0341C26.7927 33.8957 27.3645 33.5885 27.4968 33.5885C27.6114 33.5885 28.1169 33.0951 28.1169 32.9832C28.1169 32.9114 27.9913 32.8119 27.9006 32.8119C27.8943 32.8119 27.8139 32.8815 27.7222 32.9666ZM3.20163 33.0099C3.20163 33.0475 3.23076 33.0604 3.26635 33.0384C3.30194 33.0164 3.33106 32.9856 3.33106 32.9699C3.33106 32.9542 3.30194 32.9413 3.26635 32.9413C3.23076 32.9413 3.20163 32.9722 3.20163 33.0099ZM25.4121 33.1244C25.4355 33.2459 25.6015 33.2719 25.6388 33.1599C25.6521 33.12 25.6019 33.0713 25.5272 33.0517C25.4249 33.0249 25.3965 33.0429 25.4121 33.1244ZM16.1811 33.3107C16.146 33.4029 16.1534 33.4103 16.2174 33.3469C16.2616 33.303 16.2815 33.2507 16.2616 33.2309C16.2416 33.2109 16.2054 33.2469 16.1811 33.3107ZM11.593 33.4375C11.5185 33.5119 11.5458 33.5885 11.6469 33.5885C11.7003 33.5885 11.744 33.5448 11.744 33.4914C11.744 33.3903 11.6674 33.363 11.593 33.4375ZM18.4771 33.6208C18.476 33.7632 18.5141 33.9545 18.5618 34.0458C18.6095 34.1371 18.6681 34.2901 18.6921 34.3856C18.7539 34.632 18.9925 34.6285 18.9911 34.3812C18.9899 34.1713 18.9364 34.0797 18.7817 34.0226C18.7195 33.9996 18.6675 33.9144 18.6662 33.8332C18.6649 33.752 18.6223 33.6128 18.5714 33.5238C18.4796 33.3632 18.4789 33.3639 18.4771 33.6208ZM24.8164 33.5238C24.8164 33.5594 24.8455 33.5885 24.8811 33.5885C24.9167 33.5885 24.9458 33.5594 24.9458 33.5238C24.9458 33.4882 24.9167 33.4591 24.8811 33.4591C24.8455 33.4591 24.8164 33.4882 24.8164 33.5238ZM13.2324 33.8797C13.2324 33.9331 13.2744 33.9768 13.3257 33.9768C13.4626 33.9768 13.507 33.8672 13.3885 33.8218C13.2444 33.7665 13.2324 33.7709 13.2324 33.8797ZM11.6895 33.9768C11.6895 34.0658 11.7042 34.1022 11.7221 34.0577C11.7401 34.0132 11.7401 33.9404 11.7221 33.8959C11.7042 33.8514 11.6895 33.8878 11.6895 33.9768ZM10.6438 34.5228C10.6438 34.576 10.6993 34.6117 10.7733 34.6061C10.9283 34.5945 10.9423 34.5236 10.8003 34.4691C10.6563 34.4138 10.6438 34.4181 10.6438 34.5228ZM3.6835 34.6296C3.65962 34.6683 3.67367 34.7336 3.71476 34.7746C3.77119 34.8311 3.80355 34.8265 3.84723 34.7559C3.9089 34.6561 3.87778 34.5592 3.78407 34.5592C3.75268 34.5592 3.70745 34.5909 3.6835 34.6296ZM10.6438 34.8767C10.6438 34.909 10.7021 34.9201 10.7733 34.9016C10.8445 34.8829 10.9027 34.8565 10.9027 34.8429C10.9027 34.8293 10.8445 34.8181 10.7733 34.8181C10.7021 34.8181 10.6438 34.8445 10.6438 34.8767ZM15.4328 34.976C15.4328 35.0315 15.4619 35.0769 15.4975 35.0769C15.5331 35.0769 15.5622 35.0496 15.5622 35.016C15.5622 34.9825 15.5331 34.9371 15.4975 34.9151C15.4619 34.8931 15.4328 34.9206 15.4328 34.976ZM2.82952 35.0858C2.78506 35.1308 2.74863 35.1929 2.74863 35.2239C2.74863 35.255 2.70495 35.324 2.65156 35.3774C2.52905 35.4999 2.52174 35.8535 2.64172 35.8535C2.76112 35.8535 2.95818 35.396 2.93184 35.18C2.91462 35.0387 2.8945 35.0202 2.82952 35.0858ZM16.5778 35.1183C16.5261 35.17 16.5845 35.2711 16.6662 35.2711C16.6997 35.2711 16.727 35.2274 16.727 35.174C16.727 35.074 16.6507 35.0454 16.5778 35.1183ZM12.4924 35.3168C12.4573 35.409 12.4647 35.4165 12.5286 35.3531C12.5729 35.3091 12.5927 35.2569 12.5728 35.237C12.5529 35.2171 12.5167 35.253 12.4924 35.3168ZM16.2525 35.2495C16.2287 35.2732 16.2093 35.3227 16.2093 35.3595C16.2093 35.4001 16.2395 35.3962 16.2859 35.3498C16.328 35.3077 16.3474 35.2582 16.3291 35.2398C16.3107 35.2214 16.2762 35.2258 16.2525 35.2495ZM13.3619 35.5547C13.3619 35.608 13.391 35.6697 13.4266 35.6917C13.4622 35.7137 13.4913 35.688 13.4913 35.6346C13.4913 35.5813 13.4622 35.5196 13.4266 35.4976C13.391 35.4756 13.3619 35.5013 13.3619 35.5547ZM15.6916 37.4352C15.6916 37.4865 15.7207 37.5465 15.7563 37.5685C15.7919 37.5905 15.821 37.5485 15.821 37.4752C15.821 37.4019 15.7919 37.342 15.7563 37.342C15.7207 37.342 15.6916 37.3839 15.6916 37.4352Z" fill="white"/>
</svg>
